<svg width="3632" height="2797" viewBox="0 0 3632 2797" fill="none" xmlns="http://www.w3.org/2000/svg">
<path d="M0 2327.92C296.051 2662.99 881.73 1472.01 1059.5 832.5C1420.5 946 1516.48 1276.56 1548.5 1414.42C1484.98 1707.08 1169.67 2424.1 857.131 2667.68C544.592 2911.27 219.163 2815.09 0 2327.92Z" fill="#33C6F0"/>
<path d="M1836.98 1278.42C1453.32 555.181 1191.13 422.246 1108 446.183C1139.78 248.447 1526.57 -199.6 1836.98 100.722C2355.01 644.175 2700.78 1368.44 3053.99 1889.58C3336.56 2306.49 3557.07 2258.55 3632 2182.46C3588.94 2354.55 3250.85 2877.49 2918.91 2785.16C2587.35 2692.94 2317.17 2183.62 1838.61 1281.49L1836.98 1278.42Z" fill="#33C6F0"/>
<ellipse cx="1762" cy="2337.5" rx="369" ry="368.5" fill="#33C6F0"/>
</svg>
