<svg width="69" height="74" viewBox="0 0 69 74" fill="none" xmlns="http://www.w3.org/2000/svg">
<rect width="69" height="73.8699" rx="8" fill="#00A0F3"/>
<path d="M11.0087 45.8691C11.554 45.8691 35.2093 45.8691 35.2093 45.8691C39.5173 45.8691 42.9515 44.5885 45.5119 42.0271C48.0723 39.425 49.3525 35.7456 49.3525 30.9888C49.3525 29.5251 49.2103 28.0615 48.9258 26.5978C48.682 25.0935 48.4805 25.2562 48.4805 25.2562L38.6841 25.2562C38.6841 25.2562 38.9009 26.5572 38.928 27.4889C38.9427 27.9971 38.928 28.651 38.928 29.2202C38.928 30.196 38.6232 30.9888 38.0135 31.5986C37.4039 32.2085 36.4285 32.5134 35.0873 32.5134H33.5023H27.8635C27.8635 32.5134 11.808 32.5134 11.0087 32.5134C10.2094 32.5134 10.4634 45.8691 11.0087 45.8691Z" fill="#F6F9FF"/>
<circle cx="3.14137" cy="3.14137" r="3.14137" transform="matrix(0 -1 -1 0 36.3691 30.0762)" fill="#F6F9FF"/>
<path d="M57.9139 8.00076C57.284 8.00076 31.3022 8.00076 31.3022 8.00076C26.9941 8.00076 23.5599 9.28144 20.9995 11.8428C18.4391 14.4449 17.1588 18.1243 17.1588 22.8811C17.1588 24.3448 17.3011 25.8084 17.5856 27.2721C17.8294 28.7764 18.555 28.8379 18.555 28.8379H28.4979C28.4979 28.8379 28.3027 27.49 28.2033 26.2963C28.1186 25.2799 28.1186 24.9173 28.1186 24.3481C28.1186 23.3724 27.8883 22.8811 28.4979 22.2713C29.1075 21.6614 30.0829 21.3565 31.4241 21.3565L33.0091 21.3565H38.7238C38.7238 21.3565 57.4872 21.3565 58.1171 21.3565C58.747 21.3565 58.5438 8.00076 57.9139 8.00076Z" fill="#F6F9FF"/>
<path d="M27.8633 24.1152C28.0001 22.5005 28.3647 22.0511 29.9323 21.5258L19.6511 13.4877L19.2419 14.1015L18.8699 14.7711L18.2375 16.1475L27.8633 24.1152Z" fill="#F6F9FF"/>
<path d="M11.816 64.0611C11.112 64.0611 10.432 63.9811 9.776 63.8211C9.12 63.6611 8.58 63.4531 8.156 63.1971L9.068 61.1331C9.468 61.3651 9.912 61.5531 10.4 61.6971C10.896 61.8331 11.376 61.9011 11.84 61.9011C12.112 61.9011 12.324 61.8851 12.476 61.8531C12.636 61.8131 12.752 61.7611 12.824 61.6971C12.896 61.6251 12.932 61.5411 12.932 61.4451C12.932 61.2931 12.848 61.1731 12.68 61.0851C12.512 60.9971 12.288 60.9251 12.008 60.8691C11.736 60.8051 11.436 60.7411 11.108 60.6771C10.78 60.6051 10.448 60.5131 10.112 60.4011C9.784 60.2891 9.48 60.1411 9.2 59.9571C8.928 59.7731 8.708 59.5331 8.54 59.2371C8.372 58.9331 8.288 58.5571 8.288 58.1091C8.288 57.5891 8.432 57.1171 8.72 56.6931C9.016 56.2611 9.452 55.9171 10.028 55.6611C10.612 55.4051 11.336 55.2771 12.2 55.2771C12.768 55.2771 13.328 55.3371 13.88 55.4571C14.432 55.5771 14.928 55.7611 15.368 56.0091L14.516 58.0611C14.1 57.8531 13.696 57.6971 13.304 57.5931C12.92 57.4891 12.544 57.4371 12.176 57.4371C11.904 57.4371 11.688 57.4611 11.528 57.5091C11.368 57.5571 11.252 57.6211 11.18 57.7011C11.116 57.7811 11.084 57.8691 11.084 57.9651C11.084 58.1091 11.168 58.2251 11.336 58.3131C11.504 58.3931 11.724 58.4611 11.996 58.5171C12.276 58.5731 12.58 58.6331 12.908 58.6971C13.244 58.7611 13.576 58.8491 13.904 58.9611C14.232 59.0731 14.532 59.2211 14.804 59.4051C15.084 59.5891 15.308 59.8291 15.476 60.1251C15.644 60.4211 15.728 60.7891 15.728 61.2291C15.728 61.7411 15.58 62.2131 15.284 62.6451C14.996 63.0691 14.564 63.4131 13.988 63.6771C13.412 63.9331 12.688 64.0611 11.816 64.0611ZM18.3707 63.8691V55.4691H21.2027V63.8691H18.3707ZM24.366 63.8691V55.4691H26.694L30.054 60.9531H28.83L32.094 55.4691H34.422L34.446 63.8691H31.866L31.842 59.3571H32.25L30.018 63.1131H28.77L26.442 59.3571H26.946V63.8691H24.366ZM37.6152 63.8691V55.4691H40.4472V63.8691H37.6152ZM45.4346 63.8691V57.6651H42.9746V55.4691H50.7266V57.6651H48.2666V63.8691H45.4346ZM56.3941 64.0611C55.6901 64.0611 55.0101 63.9811 54.3541 63.8211C53.6981 63.6611 53.1581 63.4531 52.7341 63.1971L53.6461 61.1331C54.0461 61.3651 54.4901 61.5531 54.9781 61.6971C55.4741 61.8331 55.9541 61.9011 56.4181 61.9011C56.6901 61.9011 56.9021 61.8851 57.0541 61.8531C57.2141 61.8131 57.3301 61.7611 57.4021 61.6971C57.4741 61.6251 57.5101 61.5411 57.5101 61.4451C57.5101 61.2931 57.4261 61.1731 57.2581 61.0851C57.0901 60.9971 56.8661 60.9251 56.5861 60.8691C56.3141 60.8051 56.0141 60.7411 55.6861 60.6771C55.3581 60.6051 55.0261 60.5131 54.6901 60.4011C54.3621 60.2891 54.0581 60.1411 53.7781 59.9571C53.5061 59.7731 53.2861 59.5331 53.1181 59.2371C52.9501 58.9331 52.8661 58.5571 52.8661 58.1091C52.8661 57.5891 53.0101 57.1171 53.2981 56.6931C53.5941 56.2611 54.0301 55.9171 54.6061 55.6611C55.1901 55.4051 55.9141 55.2771 56.7781 55.2771C57.3461 55.2771 57.9061 55.3371 58.4581 55.4571C59.0101 55.5771 59.5061 55.7611 59.9461 56.0091L59.0941 58.0611C58.6781 57.8531 58.2741 57.6971 57.8821 57.5931C57.4981 57.4891 57.1221 57.4371 56.7541 57.4371C56.4821 57.4371 56.2661 57.4611 56.1061 57.5091C55.9461 57.5571 55.8301 57.6211 55.7581 57.7011C55.6941 57.7811 55.6621 57.8691 55.6621 57.9651C55.6621 58.1091 55.7461 58.2251 55.9141 58.3131C56.0821 58.3931 56.3021 58.4611 56.5741 58.5171C56.8541 58.5731 57.1581 58.6331 57.4861 58.6971C57.8221 58.7611 58.1541 58.8491 58.4821 58.9611C58.8101 59.0731 59.1101 59.2211 59.3821 59.4051C59.6621 59.5891 59.8861 59.8291 60.0541 60.1251C60.2221 60.4211 60.3061 60.7891 60.3061 61.2291C60.3061 61.7411 60.1581 62.2131 59.8621 62.6451C59.5741 63.0691 59.1421 63.4131 58.5661 63.6771C57.9901 63.9331 57.2661 64.0611 56.3941 64.0611Z" fill="#F6F9FF"/>
</svg>
