<svg width="53" height="58" viewBox="0 0 53 58" fill="none" xmlns="http://www.w3.org/2000/svg">
<path d="M3.00871 37.8691C3.55401 37.8691 27.2093 37.8691 27.2093 37.8691C31.5173 37.8691 34.9515 36.5885 37.5119 34.0271C40.0723 31.425 41.3525 27.7456 41.3525 22.9888C41.3525 21.5251 41.2103 20.0615 40.9258 18.5978C40.682 17.0935 40.4805 17.2562 40.4805 17.2562L30.6841 17.2562C30.6841 17.2562 30.9009 18.5572 30.928 19.4889C30.9427 19.9971 30.928 20.651 30.928 21.2202C30.928 22.196 30.6232 22.9888 30.0135 23.5986C29.4039 24.2085 28.4285 24.5134 27.0873 24.5134L25.5023 24.5134H19.8635C19.8635 24.5134 3.80802 24.5134 3.00871 24.5134C2.20938 24.5134 2.4634 37.8691 3.00871 37.8691Z" fill="url(#paint0_linear_131_290)"/>
<circle cx="3.14137" cy="3.14137" r="3.14137" transform="matrix(0 -1 -1 0 28.3691 22.0762)" fill="#00A0F3"/>
<path d="M49.9139 0.000761032C49.284 0.000764847 23.3022 0.00075531 23.3022 0.00075531C18.9941 0.00075531 15.5599 1.28144 12.9995 3.84282C10.4391 6.44485 9.15884 10.1243 9.15884 14.8811C9.15884 16.3448 9.30109 17.8084 9.58558 19.2721C9.82943 20.7764 10.555 20.8379 10.555 20.8379H20.4979C20.4979 20.8379 20.3027 19.49 20.2033 18.2963C20.1186 17.2799 20.1186 16.9173 20.1186 16.3481C20.1186 15.3724 19.8883 14.8811 20.4979 14.2713C21.1075 13.6614 22.0829 13.3565 23.4241 13.3565L25.0091 13.3565H30.7238C30.7238 13.3565 49.4872 13.3565 50.1171 13.3565C50.747 13.3565 50.5438 0.00075531 49.9139 0.000761032Z" fill="url(#paint1_linear_131_290)"/>
<path d="M19.8633 16.1152C20.0001 14.5005 20.3647 14.0511 21.9323 13.5258L11.6511 5.48767L11.2419 6.10148L10.8699 6.77108L10.2375 8.14749L19.8633 16.1152Z" fill="url(#paint2_linear_131_290)"/>
<path d="M3.816 56.0611C3.112 56.0611 2.432 55.9811 1.776 55.8211C1.12 55.6611 0.58 55.4531 0.156 55.1971L1.068 53.1331C1.468 53.3651 1.912 53.5531 2.4 53.6971C2.896 53.8331 3.376 53.9011 3.84 53.9011C4.112 53.9011 4.324 53.8851 4.476 53.8531C4.636 53.8131 4.752 53.7611 4.824 53.6971C4.896 53.6251 4.932 53.5411 4.932 53.4451C4.932 53.2931 4.848 53.1731 4.68 53.0851C4.512 52.9971 4.288 52.9251 4.008 52.8691C3.736 52.8051 3.436 52.7411 3.108 52.6771C2.78 52.6051 2.448 52.5131 2.112 52.4011C1.784 52.2891 1.48 52.1411 1.2 51.9571C0.928 51.7731 0.708 51.5331 0.54 51.2371C0.372 50.9331 0.288 50.5571 0.288 50.1091C0.288 49.5891 0.432 49.1171 0.72 48.6931C1.016 48.2611 1.452 47.9171 2.028 47.6611C2.612 47.4051 3.336 47.2771 4.2 47.2771C4.768 47.2771 5.328 47.3371 5.88 47.4571C6.432 47.5771 6.928 47.7611 7.368 48.0091L6.516 50.0611C6.1 49.8531 5.696 49.6971 5.304 49.5931C4.92 49.4891 4.544 49.4371 4.176 49.4371C3.904 49.4371 3.688 49.4611 3.528 49.5091C3.368 49.5571 3.252 49.6211 3.18 49.7011C3.116 49.7811 3.084 49.8691 3.084 49.9651C3.084 50.1091 3.168 50.2251 3.336 50.3131C3.504 50.3931 3.724 50.4611 3.996 50.5171C4.276 50.5731 4.58 50.6331 4.908 50.6971C5.244 50.7611 5.576 50.8491 5.904 50.9611C6.232 51.0731 6.532 51.2211 6.804 51.4051C7.084 51.5891 7.308 51.8291 7.476 52.1251C7.644 52.4211 7.728 52.7891 7.728 53.2291C7.728 53.7411 7.58 54.2131 7.284 54.6451C6.996 55.0691 6.564 55.4131 5.988 55.6771C5.412 55.9331 4.688 56.0611 3.816 56.0611ZM10.3707 55.8691V47.4691H13.2027V55.8691H10.3707ZM16.366 55.8691V47.4691H18.694L22.054 52.9531H20.83L24.094 47.4691H26.422L26.446 55.8691H23.866L23.842 51.3571H24.25L22.018 55.1131H20.77L18.442 51.3571H18.946V55.8691H16.366ZM29.6152 55.8691V47.4691H32.4472V55.8691H29.6152ZM37.4346 55.8691V49.6651H34.9746V47.4691H42.7266V49.6651H40.2666V55.8691H37.4346ZM48.3941 56.0611C47.6901 56.0611 47.0101 55.9811 46.3541 55.8211C45.6981 55.6611 45.1581 55.4531 44.7341 55.1971L45.6461 53.1331C46.0461 53.3651 46.4901 53.5531 46.9781 53.6971C47.4741 53.8331 47.9541 53.9011 48.4181 53.9011C48.6901 53.9011 48.9021 53.8851 49.0541 53.8531C49.2141 53.8131 49.3301 53.7611 49.4021 53.6971C49.4741 53.6251 49.5101 53.5411 49.5101 53.4451C49.5101 53.2931 49.4261 53.1731 49.2581 53.0851C49.0901 52.9971 48.8661 52.9251 48.5861 52.8691C48.3141 52.8051 48.0141 52.7411 47.6861 52.6771C47.3581 52.6051 47.0261 52.5131 46.6901 52.4011C46.3621 52.2891 46.0581 52.1411 45.7781 51.9571C45.5061 51.7731 45.2861 51.5331 45.1181 51.2371C44.9501 50.9331 44.8661 50.5571 44.8661 50.1091C44.8661 49.5891 45.0101 49.1171 45.2981 48.6931C45.5941 48.2611 46.0301 47.9171 46.6061 47.6611C47.1901 47.4051 47.9141 47.2771 48.7781 47.2771C49.3461 47.2771 49.9061 47.3371 50.4581 47.4571C51.0101 47.5771 51.5061 47.7611 51.9461 48.0091L51.0941 50.0611C50.6781 49.8531 50.2741 49.6971 49.8821 49.5931C49.4981 49.4891 49.1221 49.4371 48.7541 49.4371C48.4821 49.4371 48.2661 49.4611 48.1061 49.5091C47.9461 49.5571 47.8301 49.6211 47.7581 49.7011C47.6941 49.7811 47.6621 49.8691 47.6621 49.9651C47.6621 50.1091 47.7461 50.2251 47.9141 50.3131C48.0821 50.3931 48.3021 50.4611 48.5741 50.5171C48.8541 50.5731 49.1581 50.6331 49.4861 50.6971C49.8221 50.7611 50.1541 50.8491 50.4821 50.9611C50.8101 51.0731 51.1101 51.2211 51.3821 51.4051C51.6621 51.5891 51.8861 51.8291 52.0541 52.1251C52.2221 52.4211 52.3061 52.7891 52.3061 53.2291C52.3061 53.7411 52.1581 54.2131 51.8621 54.6451C51.5741 55.0691 51.1421 55.4131 50.5661 55.6771C49.9901 55.9331 49.2661 56.0611 48.3941 56.0611Z" fill="url(#paint3_linear_131_290)"/>
<defs>
<linearGradient id="paint0_linear_131_290" x1="41.3372" y1="17.2601" x2="2.50005" y2="37.8691" gradientUnits="userSpaceOnUse">
<stop stop-color="#00A0F3"/>
<stop offset="1" stop-color="#00BDF7"/>
</linearGradient>
<linearGradient id="paint1_linear_131_290" x1="9" y1="21.0007" x2="51" y2="0.000734874" gradientUnits="userSpaceOnUse">
<stop stop-color="#00A0F3"/>
<stop offset="1" stop-color="#00BDF7"/>
</linearGradient>
<linearGradient id="paint2_linear_131_290" x1="21" y1="15.0007" x2="11" y2="7.00073" gradientUnits="userSpaceOnUse">
<stop stop-color="#00A0F3"/>
<stop offset="1" stop-color="#5D8CE0"/>
</linearGradient>
<linearGradient id="paint3_linear_131_290" x1="3.64391e-07" y1="57.9993" x2="53.0451" y2="46.2021" gradientUnits="userSpaceOnUse">
<stop stop-color="#00A0F3"/>
<stop offset="1" stop-color="#00BDF7"/>
</linearGradient>
</defs>
</svg>
