<svg width="25" height="24" viewBox="0 0 25 24" fill="none" xmlns="http://www.w3.org/2000/svg">
<path d="M22.75 12C22.75 17.5241 18.2725 22 12.75 22C7.22754 22 2.75 17.5241 2.75 12C2.75 6.47915 7.22754 2 12.75 2C18.2725 2 22.75 6.47915 22.75 12ZM13.0183 5.30645C10.8209 5.30645 9.41935 6.23214 8.31879 7.87734C8.17621 8.09048 8.22391 8.37794 8.42827 8.5329L9.82742 9.59379C10.0373 9.75294 10.3363 9.71508 10.4994 9.50823C11.2197 8.5946 11.7136 8.0648 12.81 8.0648C13.6337 8.0648 14.6527 8.59496 14.6527 9.39375C14.6527 9.99762 14.1542 10.3077 13.3408 10.7638C12.3923 11.2955 11.1371 11.9573 11.1371 13.6129V13.7742C11.1371 14.0414 11.3537 14.2581 11.621 14.2581H13.879C14.1462 14.2581 14.3629 14.0414 14.3629 13.7742V13.7204C14.3629 12.5728 17.7172 12.525 17.7172 9.41935C17.7172 7.08056 15.2912 5.30645 13.0183 5.30645ZM12.75 15.3065C11.7272 15.3065 10.8952 16.1385 10.8952 17.1613C10.8952 18.184 11.7272 19.0161 12.75 19.0161C13.7728 19.0161 14.6048 18.184 14.6048 17.1613C14.6048 16.1385 13.7728 15.3065 12.75 15.3065Z" fill="#A6ABBD"/>
</svg>
