<svg width="25" height="24" viewBox="0 0 25 24" fill="none" xmlns="http://www.w3.org/2000/svg">
    <path
        d="M12.7213 2C11.9854 2 3.8912 8.52723 3.15533 9.78297C2.41945 11.0387 2.91043 21.1631 2.91043 21.1631C2.91043 21.3851 2.99657 21.598 3.14989 21.7549C3.30321 21.9118 3.51115 22 3.72798 22L9.45385 21.9848C9.66997 21.9837 9.87687 21.8951 10.0293 21.7382C10.1817 21.5814 10.2673 21.3692 10.2673 21.148V16.1421C10.2673 15.9201 10.3534 15.7073 10.5068 15.5503C10.6601 15.3934 10.868 15.3052 11.0849 15.3052H14.355C14.5718 15.3052 14.7798 15.3934 14.9331 15.5503C15.0864 15.7073 15.1726 15.9201 15.1726 16.1421V21.1443C15.1722 21.2544 15.1931 21.3635 15.2341 21.4654C15.275 21.5672 15.3352 21.6598 15.4111 21.7378C15.4871 21.8157 15.5773 21.8776 15.6767 21.9198C15.776 21.9621 15.8825 21.9838 15.9901 21.9838L21.7139 22C21.9308 22 22.1387 21.9118 22.292 21.7549C22.4454 21.598 22.5315 21.3851 22.5315 21.1631C22.5315 21.1631 23.0231 11.0387 22.5315 9.93653C22.0398 8.83437 13.4571 2 12.7213 2Z"
        fill="#A6ABBD" />
</svg>