<svg width="25" height="24" viewBox="0 0 25 24" fill="none" xmlns="http://www.w3.org/2000/svg">
<path d="M11.3379 11.0875C10.8339 11.5915 10.8339 12.4085 11.3379 12.9121C11.8415 13.4161 12.6589 13.4161 13.1625 12.9121C13.6665 12.4081 13.6665 11.5911 13.1625 11.0875C12.6585 10.5839 11.8415 10.5839 11.3379 11.0875ZM12.25 2C6.72702 2 2.25 6.47702 2.25 12C2.25 17.523 6.72702 22 12.25 22C17.773 22 22.25 17.523 22.25 12C22.25 6.47702 17.773 2 12.25 2ZM17.3363 7.96976L14.6762 13.7903C14.5475 14.0718 14.3218 14.2975 14.0403 14.4262L8.22016 17.0863C7.54879 17.3931 6.85685 16.7012 7.16371 16.0298L9.82419 10.2093C9.95286 9.92779 10.1786 9.70205 10.4601 9.57339L16.2802 6.91331C16.9516 6.60685 17.6431 7.29839 17.3363 7.96976Z" fill="#00A0F3"/>
</svg>
