<svg width="25" height="24" viewBox="0 0 25 24" fill="none" xmlns="http://www.w3.org/2000/svg">
<path d="M21.9707 8.50908C22.0957 8.84899 21.9903 9.22797 21.7207 9.47021L20.0289 11.0096C20.0719 11.3339 20.0954 11.666 20.0954 12.002C20.0954 12.338 20.0719 12.6701 20.0289 12.9943L21.7207 14.5337C21.9903 14.7759 22.0957 15.1549 21.9707 15.4948C21.7988 15.9598 21.5917 16.4052 21.3534 16.8349L21.1698 17.1514C20.9119 17.5812 20.6228 17.9875 20.3063 18.3704C20.0758 18.6517 19.6929 18.7455 19.3491 18.6361L17.1729 17.9445C16.6494 18.3469 16.0711 18.6829 15.4538 18.9369L14.9654 21.1678C14.8873 21.5233 14.6138 21.8046 14.2544 21.8633C13.7152 21.9531 13.1604 22 12.5939 22C12.0274 22 11.4726 21.9531 10.9334 21.8633C10.574 21.8046 10.3005 21.5233 10.2223 21.1678L9.73396 18.9369C9.11665 18.6829 8.53841 18.3469 8.01487 17.9445L5.84257 18.64C5.49876 18.7494 5.11587 18.6517 4.88535 18.3743C4.56889 17.9914 4.27977 17.5851 4.02191 17.1553L3.83828 16.8388C3.59995 16.4091 3.39288 15.9637 3.22097 15.4987C3.09594 15.1588 3.20143 14.7798 3.47102 14.5376L5.16275 12.9982C5.11978 12.6701 5.09633 12.338 5.09633 12.002C5.09633 11.666 5.11978 11.3339 5.16275 11.0096L3.47102 9.47021C3.20143 9.22797 3.09594 8.84899 3.22097 8.50908C3.39288 8.04415 3.59995 7.59875 3.83828 7.16898L4.02191 6.85251C4.27977 6.42274 4.56889 6.01641 4.88535 5.63352C5.11587 5.35222 5.49876 5.25845 5.84257 5.36785L8.01878 6.05939C8.54232 5.65696 9.12056 5.32096 9.73786 5.06701L10.2262 2.8361C10.3044 2.48056 10.5779 2.19926 10.9373 2.14065C11.4765 2.04688 12.0313 2 12.5978 2C13.1643 2 13.7191 2.04688 14.2583 2.13675C14.6177 2.19535 14.8912 2.47666 14.9694 2.83219L15.4577 5.0631C16.075 5.31705 16.6533 5.65306 17.1768 6.05548L19.353 5.36394C19.6968 5.25454 20.0797 5.35222 20.3102 5.62962C20.6267 6.0125 20.9158 6.41883 21.1737 6.8486L21.3573 7.16507C21.5956 7.59484 21.8027 8.04024 21.9746 8.50518L21.9707 8.50908ZM12.5978 15.1276C14.3247 15.1276 15.7234 13.7289 15.7234 12.002C15.7234 10.2751 14.3247 8.87634 12.5978 8.87634C10.8709 8.87634 9.47219 10.2751 9.47219 12.002C9.47219 13.7289 10.8709 15.1276 12.5978 15.1276Z" fill="#A6ABBD"/>
</svg>
