<svg width="1399" height="876" viewBox="0 0 1399 876" fill="none" xmlns="http://www.w3.org/2000/svg">
<path d="M0 816.31V59.6889C0.0137639 43.8639 4.84411 28.6922 13.4313 17.5023C22.0185 6.31232 33.6614 0.0179356 45.8055 0H1353.19C1365.34 0.0179356 1376.98 6.31232 1385.57 17.5023C1394.16 28.6922 1398.99 43.8639 1399 59.6889V816.31C1398.99 832.135 1394.16 847.307 1385.57 858.497C1376.98 869.687 1365.34 875.982 1353.19 876H45.8055C33.6612 875.982 22.0183 869.687 13.431 858.497C4.84378 847.307 0.0135554 832.135 0 816.31Z" fill="#F6F9FF"/>
<path d="M201.969 843.751H1320.66C1327.07 843.752 1333.41 842.376 1339.33 839.704C1345.25 837.032 1350.63 833.115 1355.16 828.177C1359.69 823.239 1363.28 817.377 1365.73 810.925C1368.18 804.473 1369.44 797.558 1369.44 790.574V85.4193C1369.45 80.7066 1368.88 76.0142 1367.73 71.4692C1364.93 60.2037 1358.8 50.2584 1350.29 43.1688C1341.78 36.0791 1331.37 32.2394 1320.66 32.2422H883.713C873.52 50.9582 867.238 71.8942 865.315 93.5589C859.895 156.543 893.025 214.77 922.669 269.173C952.313 323.576 980.585 386.83 964.886 447.754C954.27 488.845 925.503 518.584 889.809 536.408C855.511 552.952 817.783 559.215 780.522 554.55C758.143 551.469 736.099 545.983 714.711 538.173C686.664 528.243 659.269 515.372 631.919 502.354C631.897 502.354 631.897 502.354 631.874 502.329C631.402 502.108 630.907 501.863 630.435 501.643C609.27 491.566 588.128 481.465 566.671 472.566C541.529 461.848 515.434 454.01 488.805 449.176C448.342 442.263 407.542 444.763 371.443 464.769C312.605 497.352 281.072 567.765 256.398 634.5C231.478 701.97 209.143 771.696 201.969 843.751Z" fill="#346A97"/>
<path d="M201.969 843.751H1320.66C1327.07 843.752 1333.41 842.376 1339.33 839.704C1345.25 837.032 1350.63 833.115 1355.16 828.177C1359.69 823.239 1363.28 817.377 1365.73 810.925C1368.18 804.473 1369.44 797.558 1369.44 790.574V85.4193C1369.45 80.7066 1368.88 76.0142 1367.73 71.4692C1364.93 60.2037 1358.8 50.2584 1350.29 43.1688C1341.78 36.0791 1331.37 32.2394 1320.66 32.2422H883.713C873.52 50.9582 867.238 71.8942 865.315 93.5589C859.895 156.543 893.025 214.77 922.669 269.173C952.313 323.576 980.585 386.83 964.886 447.754C954.27 488.845 925.503 518.584 889.809 536.408C855.511 552.952 817.783 559.215 780.522 554.55C758.143 551.469 736.099 545.983 714.711 538.173C686.664 528.243 659.269 515.372 631.919 502.354C631.897 502.354 631.897 502.354 631.874 502.329C631.402 502.108 630.907 501.863 630.435 501.643C609.27 491.566 588.128 481.465 566.671 472.566C541.529 461.848 515.434 454.01 488.805 449.176C448.342 442.263 407.542 444.763 371.443 464.769C312.605 497.352 281.072 567.765 256.398 634.5C231.478 701.97 209.143 771.696 201.969 843.751Z" fill="black" fill-opacity="0.2"/>
<path d="M295.563 838.377H361.754C373.075 796.878 389.415 752.89 404.336 712.804C432.965 635.944 469.537 554.846 537.799 517.317C566.945 501.293 598.724 495.034 631.178 495.375C676.011 495.837 722.104 508.94 764.303 526.304C781.565 533.391 798.67 541.184 815.707 549.148C879.896 579.176 943.386 611.883 1012.41 620.723C1099.76 631.901 1202.46 589.355 1226.31 497.713C1244.52 427.55 1211.73 354.708 1177.34 292.046C1142.95 229.384 1104.51 162.339 1110.79 89.7892C1110.81 89.5457 1110.83 89.2777 1110.88 89.0342C1113.24 62.9757 1127.53 44.2485 1147.5 32.2422H1060.58C1059.43 99.9208 1095.39 159.66 1127.76 218.644C1162.15 281.282 1194.94 354.148 1176.73 424.311C1152.88 515.929 955.33 408.534 867.983 397.331C843.316 394.189 882.5 405.367 858.98 397.331C822.092 384.74 818.003 500.221 782.105 483.271C759.757 472.702 737.385 462.205 714.721 452.878C705.336 449.006 695.749 445.377 686.048 442.016C686.026 442.016 686.026 442.016 686.003 441.992C620.87 419.538 549.637 410.795 489.455 443.258C489.05 443.477 488.623 443.696 488.218 443.915C419.956 481.42 383.383 562.518 354.755 639.378C331.101 702.916 307.222 771.356 295.563 838.377Z" fill="#E0F1F0"/>
<path d="M441.587 338.58H65.7969C62.7177 338.58 59.7646 339.996 57.5873 342.515C55.41 345.035 54.1868 348.452 54.1868 352.016C54.1868 355.579 55.41 358.996 57.5873 361.516C59.7646 364.036 62.7177 365.451 65.7969 365.451H441.587C444.666 365.451 447.619 364.036 449.797 361.516C451.974 358.996 453.197 355.579 453.197 352.016C453.197 348.452 451.974 345.035 449.797 342.515C447.619 339.996 444.666 338.58 441.587 338.58V338.58Z" fill="#3C4856"/>
<path d="M185.173 252.588H66.0562C62.9083 252.588 59.8892 254.286 57.6633 257.31C55.4373 260.334 54.1868 264.435 54.1868 268.711C54.1868 272.987 55.4373 277.088 57.6633 280.111C59.8892 283.135 62.9083 284.833 66.0562 284.833H185.173C188.321 284.833 191.34 283.135 193.566 280.111C195.792 277.088 197.042 272.987 197.042 268.711C197.042 264.435 195.792 260.334 193.566 257.31C191.34 254.286 188.321 252.588 185.173 252.588H185.173Z" fill="#3C4856"/>
<path d="M29.5566 575.043V790.784C29.5563 797.74 30.636 804.629 32.734 811.055C34.832 817.482 37.9073 823.322 41.7842 828.241C45.6611 833.16 50.2636 837.061 55.3291 839.723C60.3945 842.385 65.8237 843.755 71.3064 843.755H230.452C233.205 811.201 230.895 778.769 220.789 748.51C198.769 682.523 145.49 643.497 94.6933 612.164C73.3467 599.001 51.6345 586.301 29.5566 575.043Z" fill="#346A97"/>
<path d="M29.5566 575.043V790.784C29.5563 797.74 30.636 804.629 32.734 811.055C34.832 817.482 37.9073 823.322 41.7842 828.241C45.6611 833.16 50.2636 837.061 55.3291 839.723C60.3945 842.385 65.8237 843.755 71.3064 843.755H230.452C233.205 811.201 230.895 778.769 220.789 748.51C198.769 682.523 145.49 643.497 94.6933 612.164C73.3467 599.001 51.6345 586.301 29.5566 575.043Z" fill="black" fill-opacity="0.2"/>
</svg>
