<svg width="358" height="206" viewBox="0 0 358 206" fill="none" xmlns="http://www.w3.org/2000/svg">
    <path
        d="M0 191.471V14.0004C0.00352214 10.2886 1.23959 6.72996 3.43704 4.10528C5.63448 1.4806 8.61385 0.00420693 11.7215 0H346.279C349.386 0.00420693 352.366 1.4806 354.563 4.10528C356.76 6.72996 357.996 10.2886 358 14.0004V191.471C357.997 195.183 356.76 198.742 354.563 201.366C352.366 203.991 349.386 205.468 346.279 205.472H11.7215C8.61381 205.468 5.63441 203.991 3.43696 201.366C1.23951 198.742 0.0034688 195.183 0 191.471Z"
        fill="#F6F9FF" />
    <path
        d="M51.6831 197.908H337.953C339.592 197.908 341.216 197.585 342.73 196.958C344.245 196.331 345.621 195.413 346.78 194.254C347.94 193.096 348.859 191.721 349.486 190.208C350.114 188.695 350.437 187.073 350.437 185.435V20.0356C350.439 18.9302 350.292 17.8295 349.999 16.7635C349.281 14.1211 347.712 11.7883 345.535 10.1254C343.358 8.46248 340.693 7.56184 337.953 7.5625H226.14C223.531 11.9525 221.924 16.8631 221.432 21.9448C220.045 36.7181 228.522 50.3758 236.108 63.1364C243.694 75.8969 250.929 90.7335 246.911 105.024C244.195 114.662 236.833 121.637 227.699 125.818C218.923 129.698 209.268 131.168 199.733 130.073C194.007 129.351 188.366 128.064 182.892 126.232C175.715 123.903 168.705 120.884 161.706 117.83C161.701 117.83 161.701 117.83 161.695 117.825C161.574 117.773 161.447 117.715 161.326 117.664C155.91 115.3 150.5 112.931 145.009 110.843C138.576 108.33 131.898 106.491 125.084 105.357C114.729 103.736 104.289 104.322 95.0512 109.015C79.9947 116.657 71.9254 133.173 65.6116 148.826C59.2344 164.652 53.5191 181.007 51.6831 197.908Z"
        fill="#346A97" />
    <path
        d="M51.6831 197.908H337.953C339.592 197.908 341.216 197.585 342.73 196.958C344.245 196.331 345.621 195.413 346.78 194.254C347.94 193.096 348.859 191.721 349.486 190.208C350.114 188.695 350.437 187.073 350.437 185.435V20.0356C350.439 18.9302 350.292 17.8295 349.999 16.7635C349.281 14.1211 347.712 11.7883 345.535 10.1254C343.358 8.46248 340.693 7.56184 337.953 7.5625H226.14C223.531 11.9525 221.924 16.8631 221.432 21.9448C220.045 36.7181 228.522 50.3758 236.108 63.1364C243.694 75.8969 250.929 90.7335 246.911 105.024C244.195 114.662 236.833 121.637 227.699 125.818C218.923 129.698 209.268 131.168 199.733 130.073C194.007 129.351 188.366 128.064 182.892 126.232C175.715 123.903 168.705 120.884 161.706 117.83C161.701 117.83 161.701 117.83 161.695 117.825C161.574 117.773 161.447 117.715 161.326 117.664C155.91 115.3 150.5 112.931 145.009 110.843C138.576 108.33 131.898 106.491 125.084 105.357C114.729 103.736 104.289 104.322 95.0512 109.015C79.9947 116.657 71.9254 133.173 65.6116 148.826C59.2344 164.652 53.5191 181.007 51.6831 197.908Z"
        fill="black" fill-opacity="0.2" />
    <path
        d="M75.6338 196.647H92.5719C95.4688 186.913 99.6501 176.595 103.469 167.193C110.794 149.165 120.153 130.143 137.621 121.34C145.08 117.582 153.212 116.113 161.517 116.193C172.989 116.302 184.784 119.375 195.583 123.448C200 125.11 204.377 126.938 208.737 128.806C225.163 135.85 241.41 143.521 259.074 145.595C281.425 148.217 307.705 138.237 313.81 116.742C318.469 100.285 310.078 83.1991 301.278 68.5013C292.477 53.8035 282.641 38.0775 284.247 21.0605C284.253 21.0034 284.259 20.9406 284.271 20.8835C284.875 14.7713 288.532 10.3787 293.641 7.5625H271.398C271.105 23.437 280.308 37.4492 288.59 51.2844C297.39 65.9765 305.782 83.0677 301.122 99.5249C295.017 121.015 244.466 95.8243 222.114 93.1965C215.802 92.4597 225.829 95.0816 219.811 93.1965C210.371 90.2433 209.325 117.33 200.139 113.354C194.42 110.875 188.695 108.413 182.895 106.226C180.494 105.317 178.04 104.466 175.558 103.678C175.552 103.678 175.552 103.678 175.546 103.672C158.879 98.4053 140.651 96.3546 125.25 103.969C125.147 104.02 125.037 104.072 124.933 104.123C107.465 112.92 98.1066 131.942 90.7808 149.97C84.7277 164.874 78.6171 180.927 75.6338 196.647Z"
        fill="#E0F1F0" />
    <path
        d="M113.001 79.416H16.8372C16.0493 79.416 15.2936 79.748 14.7364 80.339C14.1792 80.93 13.8662 81.7316 13.8662 82.5674C13.8662 83.4032 14.1792 84.2048 14.7364 84.7958C15.2936 85.3868 16.0493 85.7188 16.8372 85.7188H113.001C113.789 85.7188 114.544 85.3868 115.102 84.7958C115.659 84.2048 115.972 83.4032 115.972 82.5674C115.972 81.7316 115.659 80.93 115.102 80.339C114.544 79.748 113.789 79.416 113.001 79.416Z"
        fill="#3C4856" />
    <path
        d="M47.3852 59.2461H16.9036C16.098 59.2461 15.3255 59.6445 14.7558 60.3537C14.1862 61.0629 13.8662 62.0248 13.8662 63.0278C13.8662 64.0307 14.1862 64.9926 14.7558 65.7019C15.3255 66.4111 16.098 66.8095 16.9036 66.8095H47.3852C48.1907 66.8095 48.9633 66.4111 49.5329 65.7019C50.1025 64.9926 50.4226 64.0307 50.4226 63.0278C50.4226 62.0248 50.1025 61.0629 49.5329 60.3537C48.9633 59.6445 48.1907 59.2461 47.3852 59.2461H47.3852Z"
        fill="#3C4856" />
    <path
        d="M7.56348 134.881V185.484C7.5634 187.116 7.83968 188.732 8.37656 190.239C8.91344 191.747 9.70039 193.116 10.6925 194.27C11.6846 195.424 12.8623 196.339 14.1586 196.963C15.4548 197.588 16.8441 197.909 18.2471 197.909H58.972C59.6764 190.273 59.0853 182.666 56.4994 175.569C50.8645 160.091 37.2304 150.937 24.2318 143.588C18.7692 140.5 13.2131 137.522 7.56348 134.881Z"
        fill="#346A97" />
    <path
        d="M7.56348 134.881V185.484C7.5634 187.116 7.83968 188.732 8.37656 190.239C8.91344 191.747 9.70039 193.116 10.6925 194.27C11.6846 195.424 12.8623 196.339 14.1586 196.963C15.4548 197.588 16.8441 197.909 18.2471 197.909H58.972C59.6764 190.273 59.0853 182.666 56.4994 175.569C50.8645 160.091 37.2304 150.937 24.2318 143.588C18.7692 140.5 13.2131 137.522 7.56348 134.881Z"
        fill="black" fill-opacity="0.2" />
</svg>