<svg width="129" height="99" viewBox="0 0 129 99" fill="none" xmlns="http://www.w3.org/2000/svg">
<path d="M123.628 55.6478C122.308 55.5279 113.583 52.5995 109.385 51.1503V52.0498C110.285 52.0573 112.954 52.5776 116.432 54.5984C120.779 57.1243 125.971 64.0433 127.376 70.1899C128.78 76.3366 128.031 82.6332 126.381 86.0813C124.732 89.5294 120.385 94.646 115.532 96.5756C112.139 97.9249 109.385 98.6745 105.843 98.2247C102.3 97.775 97.542 96.2758 93.794 92.5278C90.7956 89.5294 88.6468 85.2817 87.9472 83.5327H86.5979C85.5485 83.5327 83.1498 84.732 78.952 84.732C56.0144 81.8836 46.4197 77.0862 44.6207 76.3366C42.8217 75.587 40.5729 76.9363 38.474 77.386C37.3009 77.6374 36.1277 77.842 34.876 77.8426C30.3784 86.3948 24.3817 86.0813 21.3833 85.7815C18.3849 85.4816 15.2917 84.732 11.0389 79.7847C6.78616 74.8374 5.33838 66.0922 5.41152 62.0943C3.16132 59.6354 1.37866 57.482 0.844586 56.5473C-0.354763 54.4485 -0.0549255 52.3496 0.39483 52.1997C0.844586 52.0498 2.94345 50.1008 3.54312 50.1008C4.1428 50.1008 9.38995 50.4007 9.53987 50.1008C9.68979 49.801 10.2895 48.1519 14.4872 45.4534C18.6849 42.7548 22.4329 43.8043 24.5317 43.8043C24.7716 42.7248 23.9321 41.3556 23.4823 40.8059C22.7327 40.7559 21.1736 40.536 20.9337 40.0563C17.3356 36.1584 15.2368 32.4104 12.5382 28.9623C10.3794 26.2038 8.7403 21.7162 8.1906 19.8173C8.79021 19.4175 9.95944 18.528 9.83951 18.1682C9.68959 17.7184 7.89056 15.4696 9.83951 15.0199C11.7884 14.5701 16.7358 15.4696 21.6831 17.1187C26.6304 18.7678 43.1214 22.9656 45.3702 24.4648C47.1692 25.6641 55.6147 26.4637 59.6125 26.7135C61.6614 28.4126 66.2089 32.2905 68.0079 34.2095C70.0468 35.6487 70.5565 38.5571 69.9569 38.8569C69.3572 39.1568 68.4577 38.4971 68.4577 38.8569C68.4577 39.3067 68.0079 41.4056 66.6587 45.6033C65.5792 48.9615 66.7086 58.5962 67.4083 62.9938C68.9074 63.5435 72.4155 64.8528 74.4544 65.6924C73.2551 60.5951 70.7065 38.2573 70.5565 37.2078C70.4066 36.1584 69.3572 32.8602 69.3572 31.8108C69.3572 30.9712 71.0563 29.9618 71.9058 29.562C73.8048 29.512 77.8726 29.3221 78.952 28.9623C79.5517 27.4631 78.3523 23.1155 77.6027 21.7662C76.4034 20.7168 73.7048 16.3691 73.405 15.4696C73.1651 14.75 74.3045 13.7706 74.9042 13.3708C74.7543 12.7711 74.5444 11.3319 74.9042 10.3724C75.264 9.41292 73.0552 8.97316 71.9058 8.87321C70.4066 9.22302 67.4382 10.0126 67.5582 10.3724C67.7081 10.8222 67.2583 11.122 66.5087 11.5717C65.7591 12.0215 66.059 10.8222 65.6092 10.3724C65.2494 10.0126 67.3583 9.22302 68.4577 8.87321V7.9737L59.0128 8.87321V6.3246C62.1611 6.12471 68.5177 5.60499 68.7575 5.12525C69.0574 4.52557 71.4561 4.07582 72.8053 3.47614C74.1546 2.87647 76.8531 1.67712 78.3523 1.67712C80.1513 0.627687 85.6983 -0.271824 86.1481 0.927525C86.5978 2.12687 92.2947 4.37565 93.1943 5.12525C93.9139 5.72492 93.8939 9.37294 93.7939 11.122C94.5935 11.4718 98.1715 13.7606 106.087 20.1171C115.982 28.0628 116.731 35.109 116.432 36.1584C116.192 36.9979 110.535 40.606 107.736 42.3051C107.686 42.405 108.036 42.6049 109.835 42.6049C119.58 47.7021 125.277 55.7977 123.628 55.6478Z" fill="#00A0F3"/>
<path d="M93.6467 70.1881C94.3964 65.9904 99.6436 61.4928 102.792 60.5933C105.94 59.6938 111.253 59.9331 115.235 64.3413C119.433 68.9888 119.883 75.7351 119.433 78.5836C118.983 81.432 117.784 87.4288 110.737 89.3777C103.691 91.3267 99.7935 87.8785 96.4953 83.9807C93.1971 80.0828 92.8971 74.3858 93.6467 70.1881Z" fill="#F6F9FF"/>
<path d="M13.8771 69.4436C10.399 58.0498 15.2261 52.9525 18.6745 51.7532C22.1229 50.5538 25.7209 52.5028 28.2695 57.0003C30.8181 61.4979 29.319 73.4914 27.2201 75.5902C25.1212 77.6891 22.2727 78.7385 19.5742 77.3893C16.8758 76.04 15.9762 74.3909 13.8771 69.4436Z" fill="#F6F9FF"/>
<path d="M42.1344 36.4553C39.4959 33.6968 25.0437 24.5118 18.1475 20.2641C19.047 17.2657 21.8954 17.8654 23.2447 17.8654C24.594 17.8654 39.4359 21.9132 43.1839 23.2624C47.3816 25.961 56.5266 25.811 59.3751 26.4107C62.2235 27.0104 69.7195 35.4058 70.0193 36.905C70.3089 38.3529 70.4691 39.0039 68.9699 39.0039C67.7705 39.0039 63.3729 39.2038 61.4739 39.4536C56.5266 39.2538 45.7325 38.3742 42.1344 36.4553Z" fill="#3C4856"/>
<path d="M100.744 33.4627C99.305 33.2228 97.296 30.7641 95.9468 26.5664C96.6664 26.5664 106.591 30.0645 113.637 31.9635C114.687 33.4627 113.937 36.491 113.337 36.611C112.588 36.7609 102.543 33.7625 100.744 33.4627Z" fill="#F6F9FF"/>
</svg>
