<svg width="62" height="63" viewBox="0 0 62 63" fill="none" xmlns="http://www.w3.org/2000/svg">
<rect y="0.482422" width="61.7096" height="61.7507" rx="8" fill="#F6F9FF"/>
<path d="M53.039 33.6532C52.5477 33.6095 49.2984 32.5412 47.7351 32.0125V32.3406C48.0702 32.3434 49.064 32.5332 50.3593 33.2704C51.9783 34.1919 53.9119 36.7159 54.4348 38.9582C54.9578 41.2005 54.6786 43.4976 54.0645 44.7554C53.4504 46.0133 51.8313 47.8799 50.0243 48.5838C48.7607 49.076 47.7351 49.3495 46.4158 49.1854C45.0965 49.0213 43.3247 48.4744 41.929 47.1071C40.8124 46.0133 40.0121 44.4638 39.7516 43.8257H39.2491C38.8583 43.8257 37.965 44.2632 36.4018 44.2632C27.8598 43.2241 24.2867 41.474 23.6168 41.2005C22.9468 40.9271 22.1094 41.4193 21.3278 41.5834C20.8909 41.6751 20.454 41.7497 19.9878 41.7499C18.3129 44.8698 16.0798 44.7554 14.9632 44.6461C13.8466 44.5367 12.6946 44.2632 11.1109 42.4584C9.52717 40.6536 8.98802 37.4633 9.01525 36.0049C8.17728 35.1079 7.51341 34.3223 7.31452 33.9814C6.86789 33.2157 6.97955 32.45 7.14704 32.3953C7.31452 32.3406 8.09614 31.6297 8.31946 31.6297C8.54278 31.6297 10.4968 31.739 10.5527 31.6297C10.6085 31.5203 10.8318 30.9187 12.395 29.9343C13.9583 28.9498 15.354 29.3327 16.1356 29.3327C16.225 28.9389 15.9123 28.4394 15.7448 28.2388C15.4657 28.2206 14.885 28.1404 14.7957 27.9654C13.4558 26.5434 12.6742 25.1762 11.6692 23.9183C10.8653 22.912 10.2549 21.2749 10.0502 20.5821C10.2735 20.4363 10.7089 20.1118 10.6642 19.9805C10.6084 19.8165 9.93845 18.9961 10.6642 18.832C11.39 18.668 13.2324 18.9961 15.0748 19.5977C16.9172 20.1993 23.0585 21.7306 23.8959 22.2776C24.5659 22.7151 27.7109 23.0068 29.1997 23.0979C29.9627 23.7177 31.6562 25.1324 32.3262 25.8325C33.0855 26.3575 33.2753 27.4185 33.052 27.5279C32.8287 27.6372 32.4937 27.3966 32.4937 27.5279C32.4937 27.6919 32.3262 28.4576 31.8237 29.9889C31.4218 31.214 31.8423 34.7288 32.1029 36.3331C32.6612 36.5336 33.9676 37.0112 34.7269 37.3175C34.2802 35.458 33.3311 27.3091 33.2753 26.9263C33.2195 26.5434 32.8287 25.3402 32.8287 24.9574C32.8287 24.6511 33.4614 24.2829 33.7778 24.137C34.485 24.1188 35.9998 24.0495 36.4018 23.9183C36.6251 23.3714 36.1785 21.7853 35.8993 21.2931C35.4527 20.9103 34.4477 19.3243 34.3361 18.9961C34.2467 18.7336 34.6711 18.3763 34.8944 18.2304C34.8385 18.0117 34.7604 17.4866 34.8944 17.1366C35.0284 16.7866 34.2058 16.6262 33.7778 16.5897C33.2195 16.7173 32.114 17.0054 32.1587 17.1366C32.2145 17.3007 32.0471 17.4101 31.7679 17.5742C31.4888 17.7382 31.6004 17.3007 31.4329 17.1366C31.2989 17.0054 32.0843 16.7173 32.4937 16.5897V16.2616L28.9764 16.5897V15.66C30.1488 15.5871 32.516 15.3975 32.6054 15.2224C32.717 15.0037 33.6103 14.8396 34.1128 14.6209L34.1128 14.6208C34.6152 14.4021 35.6202 13.9646 36.1785 13.9646C36.8484 13.5817 38.9141 13.2536 39.0816 13.6911C39.2491 14.1286 41.3706 14.949 41.7056 15.2224C41.9736 15.4412 41.9661 16.772 41.9289 17.4101C42.2267 17.5377 43.5592 18.3726 46.507 20.6915C50.1917 23.5901 50.4709 26.1606 50.3592 26.5434C50.2699 26.8497 48.1632 28.1659 47.121 28.7857C47.1024 28.8222 47.2327 28.8951 47.9026 28.8951C51.5316 30.7546 53.6531 33.7079 53.039 33.6532Z" fill="#00A0F3"/>
<path d="M41.8742 38.9586C42.1534 37.4273 44.1074 35.7866 45.2799 35.4584C46.4523 35.1303 48.4309 35.2176 49.9137 36.8257C51.477 38.5211 51.6445 40.9822 51.477 42.0213C51.3095 43.0605 50.8629 45.2481 48.2387 45.9591C45.6146 46.67 44.1633 45.4122 42.935 43.9902C41.7068 42.5682 41.595 40.49 41.8742 38.9586Z" fill="#F6F9FF"/>
<path d="M12.1698 38.6855C10.8745 34.529 12.6722 32.6696 13.9563 32.232C15.2405 31.7945 16.5804 32.5055 17.5295 34.1462C18.4786 35.7869 17.9203 40.1622 17.1387 40.9279C16.3571 41.6935 15.2963 42.0764 14.2914 41.5841C13.2865 41.0919 12.9515 40.4903 12.1698 38.6855Z" fill="#F6F9FF"/>
<path d="M22.6886 26.6511C21.706 25.6448 16.324 22.294 13.7559 20.7445C14.0908 19.6507 15.1516 19.8694 15.6541 19.8694C16.1565 19.8694 21.6837 21.3461 23.0794 21.8383C24.6427 22.8227 28.0483 22.768 29.1091 22.9868C30.1698 23.2056 32.9613 26.2682 33.073 26.8151C33.1808 27.3433 33.2405 27.5808 32.6822 27.5808C32.2355 27.5808 30.5978 27.6537 29.8907 27.7449C28.0483 27.672 24.0285 27.3511 22.6886 26.6511Z" fill="#3C4856"/>
<path d="M44.5175 25.5626C43.9815 25.4751 43.2334 24.5782 42.731 23.0469C42.9989 23.0469 46.6949 24.323 49.3189 25.0157C49.7097 25.5626 49.4305 26.6674 49.2072 26.7112C48.9281 26.7658 45.1875 25.672 44.5175 25.5626Z" fill="#F6F9FF"/>
</svg>
