<svg width="114" height="114" viewBox="0 0 114 114" fill="none" xmlns="http://www.w3.org/2000/svg">
<mask id="mask0_151_1016" style="mask-type:alpha" maskUnits="userSpaceOnUse" x="0" y="-2" width="116" height="116">
<rect y="-1.11719" width="115.118" height="115.118" fill="#D9D9D9"/>
</mask>
<g mask="url(#mask0_151_1016)">
<path d="M57.756 59.7068C69.4947 59.7068 79.0108 50.1908 79.0108 38.4521C79.0108 26.7134 69.4947 17.1973 57.756 17.1973C46.0173 17.1973 36.5012 26.7134 36.5012 38.4521C36.5012 50.1908 46.0173 59.7068 57.756 59.7068Z" fill="#FFEDCB"/>
<path d="M44.0289 77.8633H70.5974V49.5236H44.0289V77.8633Z" fill="#FFEDCB"/>
<path d="M24.9881 209.374C47.2422 214.59 70.7739 222.14 86.0957 214.688L85.6529 76.9745C79.1471 74.5893 73.7741 69.8484 70.5974 63.6903L59.97 72.5465L44.0289 62.8047C38.4876 69.5003 31.0431 76.5439 22.3313 79.1886L24.9881 209.374Z" fill="#F6F9FF"/>
<path d="M60.8556 185.905C57.0428 223.646 74.8383 221.152 98.0515 220.444C88.3967 172.301 88.7193 126.696 100.708 84.0595C88.5956 78.2517 77.9577 71.5365 70.5974 62.8047C70.959 63.7602 69.8348 63.182 70.1546 64.1331C77.6706 86.4859 75.1505 109.163 60.8556 129.226V185.905Z" fill="#346A97"/>
<path d="M60.8556 185.905C57.0428 223.646 74.8383 221.152 98.0515 220.444C88.3967 172.301 88.7193 126.696 100.708 84.0595C88.5956 78.2517 77.9577 71.5365 70.5974 62.8047C70.959 63.7602 69.8348 63.182 70.1546 64.1331C77.6706 86.4859 75.1505 109.163 60.8556 129.226V185.905Z" fill="black" fill-opacity="0.2"/>
<path d="M62.6264 186.793C61.7539 215.616 58.8062 219.963 16.5743 218.675C26.2292 170.532 25.9066 124.927 13.9175 82.2899C26.0303 76.4821 36.6682 69.7669 44.0284 61.0352C43.5283 62.3569 44.849 62.8108 44.4712 64.1348C38.1589 86.2623 48.5648 109.492 62.6264 129.228V186.793Z" fill="#346A97"/>
<path d="M62.6264 186.793C61.7539 215.616 58.8062 219.963 16.5743 218.675C26.2292 170.532 25.9066 124.927 13.9175 82.2899C26.0303 76.4821 36.6682 69.7669 44.0284 61.0352C43.5283 62.3569 44.849 62.8108 44.4712 64.1348C38.1589 86.2623 48.5648 109.492 62.6264 129.228V186.793Z" fill="black" fill-opacity="0.2"/>
<path d="M58.9252 2.1681C62.5354 2.33391 66.0521 3.36932 69.1762 5.18623C69.8946 5.60434 69.5625 7.11214 70.2265 7.60389C71.0627 8.22318 72.8783 7.84711 73.6188 8.57249C76.0091 10.906 77.8494 13.7426 79.006 16.8764C80.1627 20.0102 80.6066 23.3623 80.3055 26.6891L79.1265 38.4117L76.3452 35.3699C71.3583 29.8404 64.4351 26.4415 57.0104 25.8778C56.695 25.8563 56.379 25.8395 56.0625 25.8273L58.2022 22.0827L54.4834 25.8015C52.787 25.8201 51.094 25.9579 49.4169 26.2139L52.2625 21.2341L46.8025 26.6941C44.5696 27.1852 42.4828 28.1941 40.711 29.6391C38.9393 31.0841 37.5318 32.9252 36.6018 35.0138L35.9955 36.3579L35.3164 25.1743C35.2492 22.0833 35.8186 19.0115 36.9892 16.1499C38.1597 13.2882 39.9065 10.698 42.1208 8.54025C44.335 6.38247 46.9696 4.70327 49.8605 3.60705C52.7514 2.51083 55.8369 2.02103 58.9252 2.1681Z" fill="#346A97"/>
<path d="M58.9252 2.1681C62.5354 2.33391 66.0521 3.36932 69.1762 5.18623C69.8946 5.60434 69.5625 7.11214 70.2265 7.60389C71.0627 8.22318 72.8783 7.84711 73.6188 8.57249C76.0091 10.906 77.8494 13.7426 79.006 16.8764C80.1627 20.0102 80.6066 23.3623 80.3055 26.6891L79.1265 38.4117L76.3452 35.3699C71.3583 29.8404 64.4351 26.4415 57.0104 25.8778C56.695 25.8563 56.379 25.8395 56.0625 25.8273L58.2022 22.0827L54.4834 25.8015C52.787 25.8201 51.094 25.9579 49.4169 26.2139L52.2625 21.2341L46.8025 26.6941C44.5696 27.1852 42.4828 28.1941 40.711 29.6391C38.9393 31.0841 37.5318 32.9252 36.6018 35.0138L35.9955 36.3579L35.3164 25.1743C35.2492 22.0833 35.8186 19.0115 36.9892 16.1499C38.1597 13.2882 39.9065 10.698 42.1208 8.54025C44.335 6.38247 46.9696 4.70327 49.8605 3.60705C52.7514 2.51083 55.8369 2.02103 58.9252 2.1681Z" fill="black" fill-opacity="0.2"/>
<path d="M78.5672 41.6002C79.5045 41.6002 80.2643 39.7956 80.2643 37.5696C80.2643 35.3436 79.5045 33.5391 78.5672 33.5391C77.63 33.5391 76.8701 35.3436 76.8701 37.5696C76.8701 39.7956 77.63 41.6002 78.5672 41.6002Z" fill="#FFEDCB"/>
<path d="M36.1398 40.3248C37.077 40.3248 37.8368 38.5203 37.8368 36.2942C37.8368 34.0682 37.077 32.2637 36.1398 32.2637C35.2025 32.2637 34.4426 34.0682 34.4426 36.2942C34.4426 38.5203 35.2025 40.3248 36.1398 40.3248Z" fill="#FFEDCB"/>
<path d="M12.5893 214.692L-8.22266 216.021L2.40474 99.2282C2.40474 94.8594 3.82784 90.6095 6.45871 87.1217C9.08959 83.6338 12.785 81.0979 16.9857 79.8977L21.0027 78.75C26.7772 126.741 20.3099 172.69 12.5893 214.692Z" fill="#346A97"/>
<path d="M12.5893 214.692L-8.22266 216.021L2.40474 99.2282C2.40474 94.8594 3.82784 90.6095 6.45871 87.1217C9.08959 83.6338 12.785 81.0979 16.9857 79.8977L21.0027 78.75C26.7772 126.741 20.3099 172.69 12.5893 214.692Z" fill="black" fill-opacity="0.2"/>
<path d="M102.037 217.349L117.978 218.235L112.221 101C112.221 96.6309 110.798 92.381 108.167 88.8931C105.536 85.4053 101.841 82.8694 97.6401 81.6692L93.6232 80.5215C87.8487 128.512 94.316 175.347 102.037 217.349Z" fill="#346A97"/>
<path d="M102.037 217.349L117.978 218.235L112.221 101C112.221 96.6309 110.798 92.381 108.167 88.8931C105.536 85.4053 101.841 82.8694 97.6401 81.6692L93.6232 80.5215C87.8487 128.512 94.316 175.347 102.037 217.349Z" fill="black" fill-opacity="0.2"/>
</g>
</svg>
