<svg width="48" height="47" viewBox="0 0 48 47" fill="none" xmlns="http://www.w3.org/2000/svg">
<g clip-path="url(#clip0_2202_10471)">
<path d="M0.023893 13.1617L5.95197 34.5586L45.658 19.7445L40.4062 0.788421C40.3621 0.629876 40.26 0.496201 40.1223 0.416739C39.9846 0.337276 39.8226 0.318519 39.6717 0.364582L0.426953 12.3893C0.276105 12.4355 0.148896 12.5429 0.0733082 12.6877C-0.00227999 12.8326 -0.0200561 13.0031 0.023893 13.1617Z" fill="#346A97"/>
<path d="M0.023893 13.1617L5.95197 34.5586L45.658 19.7445L40.4062 0.788421C40.3621 0.629876 40.26 0.496201 40.1223 0.416739C39.9846 0.337276 39.8226 0.318519 39.6717 0.364582L0.426953 12.3893C0.276105 12.4355 0.148896 12.5429 0.0733082 12.6877C-0.00227999 12.8326 -0.0200561 13.0031 0.023893 13.1617Z" fill="black" fill-opacity="0.2"/>
<path d="M41.3665 4.57499L1.14673 16.8984L2.21204 20.7436L42.4318 8.42013L41.3665 4.57499Z" fill="#F6F9FF"/>
<path d="M36.972 19.8343C36.8529 19.8342 36.7371 19.7935 36.6418 19.7184C36.5466 19.6433 36.477 19.5377 36.4436 19.4175L35.4493 15.8287C35.4087 15.6814 35.4252 15.5232 35.4954 15.3888C35.5656 15.2543 35.6836 15.1546 35.8235 15.1115L39.2361 14.0659C39.3762 14.0232 39.5267 14.0406 39.6546 14.1144C39.7824 14.1882 39.8772 14.3123 39.9182 14.4595L40.9124 18.0483C40.9531 18.1956 40.9365 18.3539 40.8663 18.4883C40.7962 18.6228 40.6782 18.7225 40.5382 18.7655L37.1256 19.8112C37.0757 19.8265 37.024 19.8343 36.972 19.8343Z" fill="#F6F9FF"/>
<path d="M29.6779 18.4015C29.6599 18.3334 29.6293 18.2697 29.5879 18.214C29.5464 18.1584 29.495 18.1119 29.4364 18.0771C29.3779 18.0424 29.3134 18.0202 29.2466 18.0117C29.1799 18.0032 29.1122 18.0087 29.0475 18.0277L23.4288 19.6804L22.8237 19.8584H26.6236L27.2287 19.6804L29.3233 19.0646C29.4539 19.026 29.5646 18.9345 29.6311 18.8102C29.6976 18.6859 29.7144 18.5389 29.6779 18.4015Z" fill="#F6F9FF"/>
<path d="M25.7028 17.1663C25.6662 17.0289 25.5792 16.9124 25.461 16.8425C25.3427 16.7726 25.2029 16.7549 25.0723 16.7934L16.6414 19.2729C16.5236 19.308 16.4216 19.3862 16.3538 19.4934C16.286 19.6006 16.2568 19.7298 16.2716 19.8576H18.4542L19.0601 19.6796L25.3482 17.8302C25.4789 17.7915 25.5896 17.6998 25.6561 17.5754C25.7226 17.4509 25.7394 17.3038 25.7028 17.1663Z" fill="#F6F9FF"/>
<path d="M47.4075 19.6797H6.53089C6.37383 19.6799 6.22325 19.7456 6.11219 19.8624C6.00112 19.9792 5.93865 20.1375 5.93848 20.3027V45.7568C5.93865 45.922 6.00111 46.0804 6.11218 46.1972C6.22324 46.314 6.37382 46.3797 6.53089 46.3798H47.4075C47.5646 46.3797 47.7152 46.314 47.8262 46.1972C47.9373 46.0804 47.9998 45.922 48 45.7568V20.3027C47.9998 20.1375 47.9373 19.9792 47.8262 19.8624C47.7152 19.7456 47.5646 19.6799 47.4075 19.6797Z" fill="#00A0F3"/>
<path d="M14.625 34.7003C14.423 34.7001 14.2294 34.6156 14.0866 34.4655C13.9438 34.3153 13.8635 34.1117 13.8633 33.8993V31.4963C13.8633 31.2839 13.9435 31.0801 14.0864 30.9299C14.2292 30.7797 14.4229 30.6953 14.625 30.6953C14.827 30.6953 15.0207 30.7797 15.1635 30.9299C15.3064 31.0801 15.3866 31.2839 15.3866 31.4963V33.8993C15.3864 34.1117 15.3061 34.3153 15.1633 34.4655C15.0205 34.6156 14.8269 34.7001 14.625 34.7003Z" fill="#F6F9FF"/>
<path d="M16.6562 34.7003C16.4543 34.7001 16.2607 34.6156 16.1179 34.4655C15.9751 34.3153 15.8948 34.1117 15.8945 33.8993V31.4963C15.8945 31.2839 15.9748 31.0801 16.1176 30.9299C16.2605 30.7797 16.4542 30.6953 16.6562 30.6953C16.8582 30.6953 17.0519 30.7797 17.1948 30.9299C17.3376 31.0801 17.4179 31.2839 17.4179 31.4963V33.8993C17.4176 34.1117 17.3373 34.3153 17.1945 34.4655C17.0517 34.6156 16.8581 34.7001 16.6562 34.7003Z" fill="#F6F9FF"/>
<path d="M18.6872 34.7003C18.4853 34.7001 18.2917 34.6156 18.1489 34.4655C18.0061 34.3153 17.9258 34.1117 17.9255 33.8993V31.4963C17.9255 31.2839 18.0058 31.0801 18.1486 30.9299C18.2915 30.7797 18.4852 30.6953 18.6872 30.6953C18.8892 30.6953 19.083 30.7797 19.2258 30.9299C19.3686 31.0801 19.4489 31.2839 19.4489 31.4963V33.8993C19.4487 34.1117 19.3683 34.3153 19.2255 34.4655C19.0828 34.6156 18.8892 34.7001 18.6872 34.7003Z" fill="#F6F9FF"/>
<path d="M21.8186 34.7003C21.6166 34.7001 21.423 34.6156 21.2802 34.4655C21.1374 34.3153 21.0571 34.1117 21.0569 33.8993V31.4963C21.0569 31.2839 21.1371 31.0801 21.28 30.9299C21.4228 30.7797 21.6166 30.6953 21.8186 30.6953C22.0206 30.6953 22.2143 30.7797 22.3571 30.9299C22.5 31.0801 22.5802 31.2839 22.5802 31.4963V33.8993C22.58 34.1117 22.4997 34.3153 22.3569 34.4655C22.2141 34.6156 22.0205 34.7001 21.8186 34.7003Z" fill="#F6F9FF"/>
<path d="M23.8498 34.7003C23.6479 34.7001 23.4543 34.6156 23.3115 34.4655C23.1687 34.3153 23.0884 34.1117 23.0881 33.8993V31.4963C23.0881 31.2839 23.1684 31.0801 23.3112 30.9299C23.4541 30.7797 23.6478 30.6953 23.8498 30.6953C24.0518 30.6953 24.2456 30.7797 24.3884 30.9299C24.5312 31.0801 24.6115 31.2839 24.6115 31.4963V33.8993C24.6113 34.1117 24.5309 34.3153 24.3881 34.4655C24.2454 34.6156 24.0517 34.7001 23.8498 34.7003Z" fill="#F6F9FF"/>
<path d="M25.8808 34.7003C25.6789 34.7001 25.4853 34.6156 25.3425 34.4655C25.1997 34.3153 25.1194 34.1117 25.1191 33.8993V31.4963C25.1191 31.2839 25.1994 31.0801 25.3422 30.9299C25.4851 30.7797 25.6788 30.6953 25.8808 30.6953C26.0828 30.6953 26.2766 30.7797 26.4194 30.9299C26.5622 31.0801 26.6425 31.2839 26.6425 31.4963V33.8993C26.6423 34.1117 26.5619 34.3153 26.4191 34.4655C26.2764 34.6156 26.0828 34.7001 25.8808 34.7003Z" fill="#F6F9FF"/>
<path d="M29.0122 34.7003C28.8102 34.7001 28.6166 34.6156 28.4738 34.4655C28.331 34.3153 28.2507 34.1117 28.2505 33.8993V31.4963C28.2505 31.2839 28.3307 31.0801 28.4736 30.9299C28.6164 30.7797 28.8102 30.6953 29.0122 30.6953C29.2142 30.6953 29.4079 30.7797 29.5507 30.9299C29.6936 31.0801 29.7738 31.2839 29.7738 31.4963V33.8993C29.7736 34.1117 29.6933 34.3153 29.5505 34.4655C29.4077 34.6156 29.2141 34.7001 29.0122 34.7003Z" fill="#F6F9FF"/>
<path d="M31.0434 34.7003C30.8415 34.7001 30.6479 34.6156 30.5051 34.4655C30.3623 34.3153 30.282 34.1117 30.2817 33.8993V31.4963C30.2817 31.2839 30.362 31.0801 30.5048 30.9299C30.6477 30.7797 30.8414 30.6953 31.0434 30.6953C31.2454 30.6953 31.4392 30.7797 31.582 30.9299C31.7248 31.0801 31.8051 31.2839 31.8051 31.4963V33.8993C31.8049 34.1117 31.7245 34.3153 31.5817 34.4655C31.439 34.6156 31.2454 34.7001 31.0434 34.7003Z" fill="#F6F9FF"/>
<path d="M33.0744 34.7003C32.8725 34.7001 32.6789 34.6156 32.5361 34.4655C32.3933 34.3153 32.313 34.1117 32.3127 33.8993V31.4963C32.3127 31.2839 32.393 31.0801 32.5358 30.9299C32.6787 30.7797 32.8724 30.6953 33.0744 30.6953C33.2764 30.6953 33.4702 30.7797 33.613 30.9299C33.7558 31.0801 33.8361 31.2839 33.8361 31.4963V33.8993C33.8359 34.1117 33.7555 34.3153 33.6128 34.4655C33.47 34.6156 33.2764 34.7001 33.0744 34.7003Z" fill="#F6F9FF"/>
<path d="M36.2058 34.7003C36.0038 34.7001 35.8102 34.6156 35.6674 34.4655C35.5246 34.3153 35.4443 34.1117 35.4441 33.8993V31.4963C35.4441 31.2839 35.5243 31.0801 35.6672 30.9299C35.81 30.7797 36.0038 30.6953 36.2058 30.6953C36.4078 30.6953 36.6015 30.7797 36.7444 30.9299C36.8872 31.0801 36.9674 31.2839 36.9674 31.4963V33.8993C36.9672 34.1117 36.8869 34.3153 36.7441 34.4655C36.6013 34.6156 36.4077 34.7001 36.2058 34.7003Z" fill="#F6F9FF"/>
<path d="M38.237 34.7003C38.0351 34.7001 37.8415 34.6156 37.6987 34.4655C37.5559 34.3153 37.4756 34.1117 37.4753 33.8993V31.4963C37.4753 31.2839 37.5556 31.0801 37.6984 30.9299C37.8413 30.7797 38.035 30.6953 38.237 30.6953C38.439 30.6953 38.6328 30.7797 38.7756 30.9299C38.9184 31.0801 38.9987 31.2839 38.9987 31.4963V33.8993C38.9985 34.1117 38.9181 34.3153 38.7753 34.4655C38.6326 34.6156 38.439 34.7001 38.237 34.7003Z" fill="#F6F9FF"/>
<path d="M40.268 34.7003C40.0661 34.7001 39.8725 34.6156 39.7297 34.4655C39.5869 34.3153 39.5066 34.1117 39.5063 33.8993V31.4963C39.5063 31.2839 39.5866 31.0801 39.7294 30.9299C39.8723 30.7797 40.066 30.6953 40.268 30.6953C40.47 30.6953 40.6638 30.7797 40.8066 30.9299C40.9495 31.0801 41.0297 31.2839 41.0297 31.4963V33.8993C41.0295 34.1117 40.9491 34.3153 40.8064 34.4655C40.6636 34.6156 40.47 34.7001 40.268 34.7003Z" fill="#F6F9FF"/>
<path d="M19.7889 43.6155H8.8343C8.69857 43.6155 8.56839 43.5588 8.47241 43.4579C8.37643 43.3569 8.32251 43.22 8.32251 43.0773C8.32251 42.9345 8.37643 42.7976 8.47241 42.6967C8.56839 42.5958 8.69857 42.5391 8.8343 42.5391H19.7889C19.9247 42.5391 20.0548 42.5958 20.1508 42.6967C20.2468 42.7976 20.3007 42.9345 20.3007 43.0773C20.3007 43.22 20.2468 43.3569 20.1508 43.4579C20.0548 43.5588 19.9247 43.6155 19.7889 43.6155Z" fill="#F6F9FF"/>
<path d="M16.2768 41.303H12.3465C12.2108 41.303 12.0806 41.2463 11.9846 41.1454C11.8886 41.0444 11.8347 40.9075 11.8347 40.7648C11.8347 40.622 11.8886 40.4851 11.9846 40.3842C12.0806 40.2833 12.2108 40.2266 12.3465 40.2266H16.2768C16.4125 40.2266 16.5427 40.2833 16.6387 40.3842C16.7347 40.4851 16.7886 40.622 16.7886 40.7648C16.7886 40.9075 16.7347 41.0444 16.6387 41.1454C16.5427 41.2463 16.4125 41.303 16.2768 41.303Z" fill="#F6F9FF"/>
<path d="M47.8003 25H6.07739V25.178H47.8003V25Z" fill="#F6F9FF"/>
</g>
<defs>
<clipPath id="clip0_2202_10471">
<rect width="48" height="46.0408" fill="white" transform="translate(0 0.339844)"/>
</clipPath>
</defs>
</svg>
