<svg width="358" height="382" viewBox="0 0 358 382" fill="none" xmlns="http://www.w3.org/2000/svg">
<ellipse cx="179" cy="374.5" rx="179" ry="7.5" fill="#3C4856"/>
<path d="M322.395 332.3C323.751 332.385 324.5 330.703 323.474 329.723L323.372 329.318C323.386 329.286 323.399 329.253 323.413 329.221C324.784 325.957 329.43 325.979 330.79 329.248C331.996 332.15 333.532 335.056 333.91 338.124C334.08 339.478 334.004 340.857 333.703 342.186C336.53 336.02 338.017 329.288 338.017 322.517C338.017 320.815 337.924 319.114 337.733 317.417C337.576 316.029 337.36 314.649 337.081 313.283C335.568 305.894 332.291 298.856 327.566 292.978C325.294 291.738 323.399 289.8 322.255 287.477C321.844 286.639 321.522 285.737 321.369 284.819C321.628 284.853 322.344 280.921 322.149 280.68C322.509 280.134 323.154 279.863 323.548 279.33C325.505 276.681 328.201 277.144 329.608 280.744C332.615 282.259 332.644 284.772 330.799 287.189C329.626 288.726 329.464 290.807 328.434 292.453C328.54 292.589 328.651 292.72 328.757 292.855C330.7 295.344 332.38 298.018 333.797 300.828C333.396 297.705 333.988 293.943 334.995 291.518C336.143 288.755 338.293 286.428 340.186 284.039C342.461 281.17 347.125 282.422 347.525 286.059C347.529 286.094 347.533 286.129 347.537 286.165C347.255 286.323 346.98 286.491 346.711 286.669C345.175 287.683 345.706 290.059 347.525 290.339L347.566 290.346C347.464 291.357 347.291 292.36 347.036 293.346C349.466 302.726 344.221 306.142 336.733 306.296C336.568 306.38 336.407 306.465 336.241 306.545C337 308.678 337.606 310.866 338.055 313.084C338.458 315.043 338.738 317.024 338.895 319.013C339.09 321.522 339.073 324.044 338.861 326.55L338.873 326.461C339.412 323.701 340.912 321.124 343.091 319.338C346.336 316.677 350.921 315.696 354.422 313.557C356.107 312.527 358.267 313.858 357.973 315.809L357.959 315.902C357.437 316.114 356.929 316.359 356.437 316.634C356.156 316.793 355.88 316.961 355.611 317.139C354.076 318.152 354.606 320.529 356.426 320.809L356.467 320.815C356.496 320.82 356.522 320.824 356.551 320.828C355.657 322.948 354.411 324.916 352.851 326.613C351.333 334.801 344.809 335.578 337.831 333.194H337.827C337.064 336.511 335.949 339.753 334.516 342.842H322.692C322.649 342.711 322.611 342.576 322.573 342.444C323.666 342.512 324.768 342.449 325.845 342.25C324.967 341.175 324.09 340.092 323.213 339.017C323.192 338.995 323.175 338.974 323.158 338.953C322.713 338.403 322.263 337.857 321.818 337.307L321.818 337.306C321.79 335.617 321.993 333.934 322.395 332.301L322.395 332.3V332.3Z" fill="#F6F9FF"/>
<path d="M142.996 342.669H27.2252C13.109 342.669 1.62451 331.202 1.62451 317.107V68.6867C1.62451 54.592 13.109 43.125 27.2252 43.125H142.996C157.111 43.125 168.596 54.592 168.596 68.6867V317.107C168.596 331.202 157.111 342.669 142.996 342.669Z" fill="#3C4856"/>
<path d="M168.596 134.504C167.999 134.504 167.513 134.989 167.513 135.585V170.19C167.513 170.786 167.999 171.271 168.596 171.271C169.193 171.271 169.679 170.786 169.679 170.19V135.585C169.679 134.989 169.193 134.504 168.596 134.504Z" fill="#3C4856"/>
<path d="M166.159 68.6855V317.101C166.159 329.37 156.596 339.405 144.504 340.183H144.499C144.32 340.194 144.141 340.205 143.957 340.211C143.638 340.227 143.318 340.232 142.993 340.232C142.993 340.232 141.802 340.146 139.625 339.983C137.426 339.821 134.226 339.578 130.235 339.259C129.038 339.167 127.777 339.064 126.445 338.956C123.791 338.74 120.878 338.502 117.753 338.232C116.508 338.129 115.219 338.015 113.903 337.902C107.177 337.323 99.6449 336.647 91.7009 335.88C90.3579 335.755 89.0041 335.625 87.6395 335.49C87.2821 335.452 86.9193 335.42 86.5564 335.382C80.8922 334.825 4.06152 319.999 4.06152 317.101V68.6855C4.06152 55.909 14.4316 45.5547 27.2276 45.5547H41.0579C43.2673 45.5547 45.0435 47.2741 45.233 49.4747C45.2492 49.6207 45.2655 49.7667 45.2926 49.9127C45.6933 52.1241 47.724 53.6651 49.9767 53.6651H120.244C122.497 53.6651 124.528 52.1241 124.928 49.9127C124.955 49.7667 124.972 49.6207 124.988 49.4747C125.177 47.2741 126.954 45.5547 129.163 45.5547H142.993C155.789 45.5547 166.159 55.909 166.159 68.6855Z" fill="#F6F9FF"/>
<path d="M1.08303 108.551C0.485721 108.551 0 109.036 0 109.632V118.283C0 118.88 0.485728 119.365 1.08303 119.365C1.68033 119.365 2.16606 118.88 2.16606 118.283V109.632C2.16606 109.036 1.68033 108.551 1.08303 108.551Z" fill="#3C4856"/>
<path d="M1.08303 134.504C0.485721 134.504 0 134.989 0 135.585V152.347C0 152.943 0.485728 153.428 1.08303 153.428C1.68033 153.428 2.16606 152.943 2.16606 152.347V135.585C2.16606 134.989 1.68033 134.504 1.08303 134.504Z" fill="#3C4856"/>
<path d="M1.08303 158.293C0.485721 158.293 0 158.778 0 159.374V176.136C0 176.732 0.485728 177.217 1.08303 177.217C1.68033 177.217 2.16606 176.732 2.16606 176.136V159.374C2.16606 158.778 1.68033 158.293 1.08303 158.293Z" fill="#3C4856"/>
<path d="M40.6809 49.3438H19.9689C19.8565 49.3438 19.7654 49.4347 19.7654 49.547V51.844C19.7654 51.9562 19.8565 52.0472 19.9689 52.0472H40.6809C40.7934 52.0472 40.8845 51.9562 40.8845 51.844V49.547C40.8845 49.4347 40.7934 49.3438 40.6809 49.3438Z" fill="#E0F1F0"/>
<path d="M132.585 52.0482C133.782 52.0482 134.751 51.0799 134.751 49.8854C134.751 48.691 133.782 47.7227 132.585 47.7227C131.389 47.7227 130.419 48.691 130.419 49.8854C130.419 51.0799 131.389 52.0482 132.585 52.0482Z" fill="#E0F1F0"/>
<path d="M138.542 52.0482C139.738 52.0482 140.708 51.0799 140.708 49.8854C140.708 48.691 139.738 47.7227 138.542 47.7227C137.346 47.7227 136.376 48.691 136.376 49.8854C136.376 51.0799 137.346 52.0482 138.542 52.0482Z" fill="#E0F1F0"/>
<path d="M144.499 52.0482C145.695 52.0482 146.665 51.0799 146.665 49.8854C146.665 48.691 145.695 47.7227 144.499 47.7227C143.302 47.7227 142.333 48.691 142.333 49.8854C142.333 51.0799 143.302 52.0482 144.499 52.0482Z" fill="#E0F1F0"/>
<path d="M130.774 195.589H38.9053C37.458 195.589 36.2805 194.414 36.2805 192.968C36.2805 191.523 37.458 190.348 38.9053 190.348H130.774C132.221 190.348 133.399 191.523 133.399 192.968C133.399 194.414 132.221 195.589 130.774 195.589Z" fill="#E0F1F0"/>
<path d="M85.1691 297.144C106.189 297.144 123.229 280.13 123.229 259.142C123.229 238.155 106.189 221.141 85.1691 221.141C64.1493 221.141 47.1094 238.155 47.1094 259.142C47.1094 280.13 64.1493 297.144 85.1691 297.144Z" fill="#00A0F3"/>
<path d="M91.2177 246.735C88.0057 246.867 84.3744 247.087 82.0003 249.548C79.9378 251.686 79.4858 254.859 81.5774 257.141C83.6744 259.43 86.9349 259.739 89.3523 261.525C92.1907 263.621 91.775 267.768 89.0282 269.755C85.7891 272.098 81.6071 271.006 78.646 268.777C77.8872 268.205 77.1506 269.485 77.9008 270.049C80.5538 272.047 84.0157 273.158 87.2959 272.203C90.2564 271.34 92.5512 268.93 92.7846 265.795C92.896 264.299 92.4699 262.78 91.5381 261.599C90.5545 260.352 89.1377 259.585 87.7054 258.96C85.2399 257.885 80.9946 256.495 81.7114 252.995C82.5803 248.754 87.751 248.351 91.2177 248.209C92.1644 248.171 92.1694 246.696 91.2177 246.735L91.2177 246.735Z" fill="#F6F9FF"/>
<path d="M85.259 244.728L85.1174 277.09C85.1133 278.039 86.5897 278.04 86.5939 277.09L86.7355 244.728C86.7396 243.779 85.2632 243.778 85.259 244.728Z" fill="#F6F9FF"/>
<path d="M286.817 0H99.169C92.2854 0 86.688 5.58888 86.688 12.462V140.856C86.688 147.729 92.2854 153.318 99.169 153.318H286.817C293.7 153.318 299.298 147.729 299.298 140.856V12.462C299.298 5.58888 293.7 0 286.817 0Z" fill="#F6F9FF"/>
<path d="M192.13 76.3393C203.727 76.3393 213.129 66.9523 213.129 55.3728C213.129 43.7933 203.727 34.4062 192.13 34.4062C180.533 34.4062 171.132 43.7933 171.132 55.3728C171.132 66.9523 180.533 76.3393 192.13 76.3393Z" fill="#00A0F3"/>
<path d="M196.113 46.0162C193.514 46.1231 190.588 46.2876 188.622 48.2191C186.993 49.8189 186.424 52.3095 187.92 54.1932C189.496 56.1765 192.117 56.5529 194.174 57.8203C195.452 58.608 196.299 59.8014 196.327 61.335C196.352 62.7708 195.689 64.1122 194.579 65.0121C191.857 67.22 188.145 66.306 185.57 64.3751C185.064 63.9952 184.572 64.8481 185.073 65.2238C187.206 66.823 189.952 67.7517 192.606 67.0637C195.049 66.4303 197.016 64.5116 197.281 61.9478C197.56 59.2455 195.783 57.4056 193.479 56.35C191.373 55.3851 187.679 54.3571 188.027 51.3597C188.47 47.5486 193.142 47.1212 196.113 46.9989C196.745 46.973 196.748 45.99 196.113 46.0161V46.0162Z" fill="#F6F9FF"/>
<path d="M191.596 44.2364L191.478 71.2034C191.476 71.8359 192.46 71.8367 192.463 71.2034L192.581 44.2364C192.583 43.6039 191.599 43.6031 191.596 44.2364Z" fill="#F6F9FF"/>
<path d="M286.817 0H99.169C92.2854 0 86.688 5.58888 86.688 12.462V140.856C86.688 147.729 92.2854 153.318 99.169 153.318H286.817C293.7 153.318 299.298 147.729 299.298 140.856V12.462C299.298 5.58888 293.7 0 286.817 0ZM297.985 140.856C297.985 147.008 292.978 152.007 286.817 152.007H99.169C93.0072 152.007 88.0004 147.008 88.0004 140.856V12.462C88.0004 6.30963 93.0072 1.31041 99.169 1.31041H286.817C292.978 1.31041 297.985 6.30962 297.985 12.462V140.856Z" fill="#3C4856"/>
<path d="M171.358 12.6797H152.945C152.02 12.6797 151.265 13.4332 151.265 14.357C151.265 15.2874 152.02 16.0409 152.945 16.0409H171.358C172.283 16.0409 173.038 15.2874 173.038 14.357C173.038 13.4332 172.283 12.6797 171.358 12.6797Z" fill="#E0F1F0"/>
<path d="M202.199 12.6797H183.786C182.861 12.6797 182.106 13.4332 182.106 14.357C182.106 15.2874 182.861 16.0409 183.786 16.0409H202.199C203.125 16.0409 203.879 15.2874 203.879 14.357C203.879 13.4332 203.125 12.6797 202.199 12.6797Z" fill="#E0F1F0"/>
<path d="M233.041 12.6797H214.628C213.703 12.6797 212.948 13.4332 212.948 14.357C212.948 15.2874 213.703 16.0409 214.628 16.0409H233.041C233.966 16.0409 234.721 15.2874 234.721 14.357C234.721 13.4332 233.966 12.6797 233.041 12.6797Z" fill="#E0F1F0"/>
<path d="M263.41 88.1328H122.576C116.716 88.1328 111.952 92.8896 111.952 98.7406V108.32C111.952 114.171 116.716 118.927 122.576 118.927H263.41C269.27 118.927 274.034 114.171 274.034 108.32V98.7406C274.034 92.8896 269.27 88.1328 263.41 88.1328Z" fill="#00A0F3"/>
<path d="M48.0204 138.568L42.6199 136.014C44.8349 139.1 46.7436 143.921 47.7654 147.757C49.4955 144.183 52.2845 139.811 55.0451 137.2L49.3374 138.666C52.8545 121.455 66.0831 109.099 81.2317 109.099V107.789C65.4086 107.789 51.6114 120.662 48.0204 138.568Z" fill="#3C4856"/>
<path d="M72.8767 164.796H38.7542C37.3069 164.796 36.1294 163.621 36.1294 162.176C36.1294 160.73 37.3069 159.555 38.7542 159.555H72.8767C74.324 159.555 75.5016 160.73 75.5016 162.176C75.5016 163.621 74.324 164.796 72.8767 164.796Z" fill="#E0F1F0"/>
<path d="M299.871 156.259L299.526 183.017L292.858 206.87L287.528 204.885L289.895 183.021L289.584 153.434L299.871 156.259Z" fill="#D5A419"/>
<path d="M292.836 210.714C293.461 207.285 292.315 204.203 290.275 203.833C288.235 203.462 286.075 205.942 285.45 209.372C284.824 212.802 285.971 215.883 288.01 216.253C290.05 216.624 292.21 214.144 292.836 210.714Z" fill="#D5A419"/>
<path d="M291.779 124.398C291.779 124.398 303.202 124.555 303.192 130.614C303.187 134.035 302.451 165.093 300.403 183.961C298.824 198.511 295.81 202.306 295.81 202.306L288.592 185.926L291.779 124.398Z" fill="#E0F1F0"/>
<path d="M291.486 179.067H252.909C256.142 171.863 258.13 165.002 255.023 159.544L291.486 157.434C289.663 164.801 289.441 172.031 291.486 179.067Z" fill="#D5A419"/>
<path d="M286.729 115.219L271.404 114.164L265.063 122.079L261.848 122.662C257.029 123.537 253.598 127.831 253.813 132.717L255.064 161.096L291.693 163.762L300.469 126.808L289.9 122.606L286.729 115.219V115.219Z" fill="#E0F1F0"/>
<path d="M193.272 123.782C194.359 124.759 195.135 125.9 195.545 127.007L206.492 135.657L202.217 140.737L191.573 131.415C190.428 131.125 189.21 130.474 188.122 129.498C185.639 127.267 184.778 124.179 186.2 122.6C187.622 121.022 190.788 121.551 193.272 123.782L193.272 123.782Z" fill="#D5A419"/>
<path d="M270.662 131.064V131.064L228.72 159.343L198.655 138.452L203.169 130.288L226.832 144.019L248.654 127.289C256.424 120.001 266.163 121.414 270.662 131.064H270.662Z" fill="#E0F1F0"/>
<path d="M278.158 111.798C284.437 111.798 289.527 106.715 289.527 100.446C289.527 94.1762 284.437 89.0938 278.158 89.0938C271.879 89.0938 266.789 94.1762 266.789 100.446C266.789 106.715 271.879 111.798 278.158 111.798Z" fill="#D5A419"/>
<path d="M293.612 97.6531V99.8546L280.79 96.251L271.176 98.2624C271.065 96.8013 270.632 95.3664 269.91 94.0953C270.412 96.134 270.468 97.7112 269.936 98.5245L268.643 98.7931C268.433 98.2231 268.027 97.7252 267.495 97.4237C267.443 97.391 267.377 97.3648 267.318 97.3844C267.226 97.4172 267.219 97.5351 267.219 97.6269C267.233 98.1117 267.246 98.5965 267.265 99.0814L263.551 99.8546V97.6531C259.988 89.6479 269.379 82.7208 278.585 82.6489C282.738 82.6165 286.492 84.3262 289.215 87.0387C291.932 89.7578 293.612 93.5056 293.612 97.6531Z" fill="#3C4856"/>
<path d="M300.825 123.469L299.857 123.389C299.926 123.073 299.995 122.761 300.058 122.444C300.594 119.791 299.413 116.413 299.326 113.864C298.87 116.558 299.65 119.871 298.843 122.428C298.753 122.713 295.25 124.546 295.154 124.826C291.276 123.41 287.238 118.886 282.665 121.529C279.961 123.091 276.875 122.406 273.805 121.691C273.045 121.514 272.939 117.766 272.187 117.619C270.84 117.355 268.861 120.762 267.593 120.895L272.843 100.584C272.843 89.5343 271.818 77.9415 285.836 81.8486C289.361 82.8313 292.851 83.6015 295.453 86.5069C298.055 89.4163 299.908 93.4823 300.564 98.1125C300.96 100.906 303.43 110.391 300.825 123.469Z" fill="#3C4856"/>
<path d="M291.773 327.721L285.515 327.868L282.027 299.796L291.262 299.578L291.773 327.721Z" fill="#D5A419"/>
<path d="M270.303 340.757C270.303 341.812 271.053 342.668 271.978 342.668H284.4C284.4 342.668 285.622 337.762 290.606 335.65L290.95 342.668H297.358L296.581 331.384C296.581 331.384 298.296 325.347 294.736 322.261C291.176 319.175 294.059 319.605 294.059 319.605L292.659 312.621L282.976 313.758L282.905 324.721L278.206 335.603L271.313 339.002C270.7 339.305 270.303 339.994 270.303 340.757H270.303H270.303Z" fill="#3C4856"/>
<path d="M272.734 323.147L266.718 324.875L256.21 298.606L265.087 296.055L272.734 323.147Z" fill="#D5A419"/>
<path d="M255.279 341.195C255.548 342.216 256.491 342.854 257.386 342.62L269.401 339.472C269.401 339.472 269.336 334.417 273.62 331.112L275.737 337.813L281.935 336.189L278.316 325.471C278.316 325.471 278.44 319.198 274.212 317.115C269.985 315.032 272.883 314.717 272.883 314.717L269.753 308.316L260.676 311.869L263.394 322.492L261.614 334.208L255.811 339.242C255.295 339.691 255.086 340.458 255.28 341.195L255.279 341.195L255.279 341.195Z" fill="#3C4856"/>
<path d="M287.936 177.406L291.873 178.717C298.029 190.069 300.639 205.144 300.293 223.322L293.299 304.968H281.857L273.484 214.011L258.719 248.15L269.522 304.968L258.719 306.067L236.961 246.987L252.114 178.32L287.936 177.406Z" fill="#3C4856"/>
</svg>
