<svg width="50" height="30" viewBox="0 0 50 30" fill="none" xmlns="http://www.w3.org/2000/svg">
<path d="M32.8296 28.2998C32.5252 28.2994 32.2334 28.0301 32.0182 27.5511C31.8031 27.0722 31.6822 26.4228 31.6822 25.7457C31.6822 25.0686 31.8031 24.4192 32.0182 23.9403C32.2334 23.4614 32.5252 23.1921 32.8296 23.1916H49.8844C49.7986 22.8413 49.672 22.5489 49.5179 22.345C49.3638 22.1412 49.1878 22.0335 49.0085 22.0332H15.108C14.6657 22.0343 14.2417 22.4259 13.9292 23.1221C13.6166 23.8182 13.4411 24.7619 13.4412 25.7457C13.4414 26.7294 13.617 27.6727 13.9295 28.3687C14.242 29.0647 14.6658 29.4565 15.108 29.4583H49.0085C49.1878 29.458 49.3637 29.3502 49.5179 29.1464C49.672 28.9426 49.7986 28.6501 49.8844 28.2998L32.8296 28.2998Z" fill="#346A97"/>
<path d="M32.8296 28.2998C32.5252 28.2994 32.2334 28.0301 32.0182 27.5511C31.8031 27.0722 31.6822 26.4228 31.6822 25.7457C31.6822 25.0686 31.8031 24.4192 32.0182 23.9403C32.2334 23.4614 32.5252 23.1921 32.8296 23.1916H49.8844C49.7986 22.8413 49.672 22.5489 49.5179 22.345C49.3638 22.1412 49.1878 22.0335 49.0085 22.0332H15.108C14.6657 22.0343 14.2417 22.4259 13.9292 23.1221C13.6166 23.8182 13.4411 24.7619 13.4412 25.7457C13.4414 26.7294 13.617 27.6727 13.9295 28.3687C14.242 29.0647 14.6658 29.4565 15.108 29.4583H49.0085C49.1878 29.458 49.3637 29.3502 49.5179 29.1464C49.672 28.9426 49.7986 28.6501 49.8844 28.2998L32.8296 28.2998Z" fill="black" fill-opacity="0.2"/>
<path d="M49.9066 24.5986H33.6914C33.6666 24.5985 33.6428 24.5765 33.6253 24.5374C33.6077 24.4983 33.5979 24.4454 33.5979 24.3901C33.5979 24.3349 33.6077 24.282 33.6253 24.2429C33.6428 24.2038 33.6666 24.1818 33.6914 24.1816H49.9066C49.9314 24.1818 49.9552 24.2038 49.9727 24.2429C49.9902 24.282 50.0001 24.3349 50.0001 24.3901C50.0001 24.4454 49.9902 24.4983 49.9727 24.5374C49.9552 24.5765 49.9314 24.5985 49.9066 24.5986Z" fill="#346A97"/>
<path d="M49.9066 24.5986H33.6914C33.6666 24.5985 33.6428 24.5765 33.6253 24.5374C33.6077 24.4983 33.5979 24.4454 33.5979 24.3901C33.5979 24.3349 33.6077 24.282 33.6253 24.2429C33.6428 24.2038 33.6666 24.1818 33.6914 24.1816H49.9066C49.9314 24.1818 49.9552 24.2038 49.9727 24.2429C49.9902 24.282 50.0001 24.3349 50.0001 24.3901C50.0001 24.4454 49.9902 24.4983 49.9727 24.5374C49.9552 24.5765 49.9314 24.5985 49.9066 24.5986Z" fill="black" fill-opacity="0.2"/>
<path d="M49.9068 25.9541H33.6916C33.6668 25.9541 33.6429 25.9321 33.6254 25.893C33.6078 25.8539 33.5979 25.8009 33.5979 25.7456C33.5979 25.6903 33.6078 25.6373 33.6254 25.5982C33.6429 25.5591 33.6668 25.5371 33.6916 25.5371H49.9068C49.9316 25.5371 49.9555 25.5591 49.9731 25.5982C49.9906 25.6373 50.0005 25.6903 50.0005 25.7456C50.0005 25.8009 49.9906 25.8539 49.9731 25.893C49.9555 25.9321 49.9316 25.9541 49.9068 25.9541Z" fill="#346A97"/>
<path d="M49.9068 25.9541H33.6916C33.6668 25.9541 33.6429 25.9321 33.6254 25.893C33.6078 25.8539 33.5979 25.8009 33.5979 25.7456C33.5979 25.6903 33.6078 25.6373 33.6254 25.5982C33.6429 25.5591 33.6668 25.5371 33.6916 25.5371H49.9068C49.9316 25.5371 49.9555 25.5591 49.9731 25.5982C49.9906 25.6373 50.0005 25.6903 50.0005 25.7456C50.0005 25.8009 49.9906 25.8539 49.9731 25.893C49.9555 25.9321 49.9316 25.9541 49.9068 25.9541Z" fill="black" fill-opacity="0.2"/>
<path d="M49.9066 27.3096H33.6914C33.6666 27.3094 33.6428 27.2874 33.6253 27.2483C33.6077 27.2092 33.5979 27.1563 33.5979 27.1011C33.5979 27.0459 33.6077 26.9929 33.6253 26.9538C33.6428 26.9147 33.6666 26.8927 33.6914 26.8926H49.9066C49.9314 26.8927 49.9552 26.9147 49.9727 26.9538C49.9902 26.9929 50.0001 27.0459 50.0001 27.1011C50.0001 27.1563 49.9902 27.2092 49.9727 27.2483C49.9552 27.2874 49.9314 27.3094 49.9066 27.3096Z" fill="#346A97"/>
<path d="M49.9066 27.3096H33.6914C33.6666 27.3094 33.6428 27.2874 33.6253 27.2483C33.6077 27.2092 33.5979 27.1563 33.5979 27.1011C33.5979 27.0459 33.6077 26.9929 33.6253 26.9538C33.6428 26.9147 33.6666 26.8927 33.6914 26.8926H49.9066C49.9314 26.8927 49.9552 26.9147 49.9727 26.9538C49.9902 26.9929 50.0001 27.0459 50.0001 27.1011C50.0001 27.1563 49.9902 27.2092 49.9727 27.2483C49.9552 27.2874 49.9314 27.3094 49.9066 27.3096Z" fill="black" fill-opacity="0.2"/>
<path d="M28.4234 21.1065C28.119 21.106 27.8271 20.8367 27.612 20.3578C27.3968 19.8788 27.276 19.2295 27.276 18.5524C27.276 17.8753 27.3968 17.2259 27.612 16.747C27.8271 16.268 28.119 15.9987 28.4234 15.9983H45.4782C45.3924 15.648 45.2658 15.3555 45.1117 15.1517C44.9575 14.9479 44.7815 14.8401 44.6022 14.8398H10.7018C10.2595 14.841 9.83551 15.2326 9.52296 15.9287C9.21041 16.6248 9.03487 17.5685 9.03491 18.5524C9.03514 19.536 9.21077 20.4793 9.52326 21.1753C9.83575 21.8713 10.2596 22.2632 10.7018 22.2649H44.6022C44.7815 22.2646 44.9575 22.1569 45.1117 21.953C45.2658 21.7492 45.3924 21.4568 45.4782 21.1065L28.4234 21.1065Z" fill="#00A0F3"/>
<path d="M45.5003 17.4053H29.2852C29.2603 17.4051 29.2366 17.3831 29.219 17.344C29.2015 17.3049 29.1917 17.252 29.1917 17.1968C29.1917 17.1416 29.2015 17.0886 29.219 17.0495C29.2366 17.0104 29.2603 16.9884 29.2852 16.9883H45.5003C45.5252 16.9883 45.549 17.0102 45.5666 17.0493C45.5842 17.0884 45.594 17.1415 45.594 17.1968C45.594 17.2521 45.5842 17.3051 45.5666 17.3442C45.549 17.3833 45.5252 17.4053 45.5003 17.4053Z" fill="#00A0F3"/>
<path d="M45.5005 18.7607H29.2854C29.2605 18.7607 29.2367 18.7388 29.2191 18.6997C29.2015 18.6606 29.1917 18.6075 29.1917 18.5522C29.1917 18.4969 29.2015 18.4439 29.2191 18.4048C29.2367 18.3657 29.2605 18.3438 29.2854 18.3438H45.5005C45.5254 18.3438 45.5492 18.3657 45.5668 18.4048C45.5844 18.4439 45.5943 18.4969 45.5943 18.5522C45.5943 18.6075 45.5844 18.6606 45.5668 18.6997C45.5492 18.7388 45.5254 18.7607 45.5005 18.7607Z" fill="#00A0F3"/>
<path d="M45.5003 20.1162H29.2852C29.2603 20.1161 29.2366 20.0941 29.219 20.055C29.2015 20.0159 29.1917 19.9629 29.1917 19.9077C29.1917 19.8525 29.2015 19.7995 29.219 19.7605C29.2366 19.7214 29.2603 19.6994 29.2852 19.6992H45.5003C45.5126 19.6992 45.5249 19.7045 45.5363 19.7149C45.5477 19.7254 45.558 19.7407 45.5667 19.7601C45.5755 19.7795 45.5824 19.8025 45.5871 19.8278C45.5918 19.8531 45.5943 19.8803 45.5943 19.9077C45.5943 19.9351 45.5918 19.9623 45.5871 19.9876C45.5824 20.013 45.5755 20.036 45.5667 20.0553C45.558 20.0747 45.5477 20.09 45.5363 20.1005C45.5249 20.1109 45.5126 20.1163 45.5003 20.1162Z" fill="#00A0F3"/>
<path d="M19.3885 6.26665C19.0841 6.26619 18.7922 5.99688 18.5771 5.51794C18.3619 5.039 18.2411 4.38962 18.2411 3.71253C18.2411 3.03544 18.3619 2.38605 18.5771 1.90711C18.7922 1.42817 19.0841 1.15887 19.3885 1.15841H36.4433C36.3575 0.808125 36.2309 0.515699 36.0767 0.31186C35.9226 0.108022 35.7466 0.000296405 35.5673 0H1.66688C1.2246 0.00111321 0.800598 0.392755 0.488047 1.08888C0.175495 1.785 -4.31698e-05 2.72866 7.96354e-09 3.71252C0.000229776 4.6962 0.175856 5.6395 0.488348 6.3355C0.800841 7.03149 1.22468 7.42333 1.66688 7.42505H35.5673C35.7466 7.42475 35.9226 7.31702 36.0767 7.11319C36.2309 6.90935 36.3575 6.61693 36.4433 6.26664L19.3885 6.26665Z" fill="#00A0F3"/>
<path d="M36.4654 2.56544H20.2502C20.2254 2.5653 20.2016 2.54327 20.1841 2.50419C20.1666 2.4651 20.1567 2.41214 20.1567 2.35693C20.1567 2.30172 20.1666 2.24877 20.1841 2.20968C20.2016 2.17059 20.2254 2.14857 20.2502 2.14844H36.4654C36.4903 2.14844 36.5141 2.1704 36.5317 2.2095C36.5493 2.2486 36.5591 2.30164 36.5591 2.35693C36.5591 2.41223 36.5493 2.46526 36.5317 2.50436C36.5141 2.54346 36.4903 2.56544 36.4654 2.56544Z" fill="#00A0F3"/>
<path d="M36.4656 3.9209H20.2505C20.2256 3.9209 20.2018 3.89893 20.1842 3.85983C20.1666 3.82073 20.1567 3.7677 20.1567 3.7124C20.1567 3.6571 20.1666 3.60407 20.1842 3.56497C20.2018 3.52587 20.2256 3.50391 20.2505 3.50391H36.4656C36.4905 3.50391 36.5143 3.52587 36.5319 3.56497C36.5495 3.60407 36.5594 3.6571 36.5594 3.7124C36.5594 3.7677 36.5495 3.82073 36.5319 3.85983C36.5143 3.89893 36.4905 3.9209 36.4656 3.9209Z" fill="#00A0F3"/>
<path d="M36.4654 5.27637H20.2502C20.2254 5.27624 20.2016 5.25422 20.1841 5.21513C20.1666 5.17605 20.1567 5.12308 20.1567 5.06787C20.1567 5.01266 20.1666 4.9597 20.1841 4.92062C20.2016 4.88153 20.2254 4.85951 20.2502 4.85938H36.4654C36.4777 4.85931 36.4899 4.86465 36.5013 4.8751C36.5127 4.88555 36.5231 4.9009 36.5318 4.92027C36.5406 4.93963 36.5475 4.96264 36.5522 4.98797C36.5569 5.0133 36.5594 5.04045 36.5594 5.06787C36.5594 5.09529 36.5569 5.12245 36.5522 5.14778C36.5475 5.17311 36.5406 5.19612 36.5318 5.21548C36.5231 5.23485 36.5127 5.2502 36.5013 5.26065C36.4899 5.2711 36.4777 5.27644 36.4654 5.27637Z" fill="#00A0F3"/>
<path d="M24.0188 13.6749C23.7144 13.6744 23.4226 13.4051 23.2074 12.9262C22.9923 12.4472 22.8714 11.7978 22.8714 11.1207C22.8714 10.4436 22.9923 9.79426 23.2074 9.31532C23.4226 8.83638 23.7144 8.56708 24.0188 8.56661H41.0736C40.9879 8.21633 40.8612 7.92391 40.7071 7.72007C40.553 7.51624 40.377 7.40851 40.1977 7.4082H6.29722C5.85494 7.40931 5.43094 7.80095 5.11839 8.49708C4.80585 9.1932 4.63032 10.1369 4.63037 11.1207C4.63059 12.1044 4.80622 13.0477 5.1187 13.7437C5.43119 14.4397 5.85503 14.8315 6.29722 14.8333H40.1977C40.377 14.833 40.553 14.7252 40.7071 14.5214C40.8612 14.3176 40.9879 14.0251 41.0736 13.6749L24.0188 13.6749Z" fill="#346A97"/>
<path d="M24.0188 13.6749C23.7144 13.6744 23.4226 13.4051 23.2074 12.9262C22.9923 12.4472 22.8714 11.7978 22.8714 11.1207C22.8714 10.4436 22.9923 9.79426 23.2074 9.31532C23.4226 8.83638 23.7144 8.56708 24.0188 8.56661H41.0736C40.9879 8.21633 40.8612 7.92391 40.7071 7.72007C40.553 7.51624 40.377 7.40851 40.1977 7.4082H6.29722C5.85494 7.40931 5.43094 7.80095 5.11839 8.49708C4.80585 9.1932 4.63032 10.1369 4.63037 11.1207C4.63059 12.1044 4.80622 13.0477 5.1187 13.7437C5.43119 14.4397 5.85503 14.8315 6.29722 14.8333H40.1977C40.377 14.833 40.553 14.7252 40.7071 14.5214C40.8612 14.3176 40.9879 14.0251 41.0736 13.6749L24.0188 13.6749Z" fill="black" fill-opacity="0.2"/>
<path d="M41.0958 9.97364H24.8806C24.8558 9.97351 24.832 9.95149 24.8145 9.9124C24.797 9.87331 24.7871 9.82035 24.7871 9.76514C24.7871 9.70993 24.797 9.65697 24.8145 9.61789C24.832 9.5788 24.8558 9.55677 24.8806 9.55664H41.0958C41.1206 9.55664 41.1445 9.57861 41.162 9.61771C41.1796 9.65681 41.1895 9.70985 41.1895 9.76514C41.1895 9.82044 41.1796 9.87348 41.162 9.91258C41.1445 9.95168 41.1206 9.97364 41.0958 9.97364Z" fill="#346A97"/>
<path d="M41.0958 9.97364H24.8806C24.8558 9.97351 24.832 9.95149 24.8145 9.9124C24.797 9.87331 24.7871 9.82035 24.7871 9.76514C24.7871 9.70993 24.797 9.65697 24.8145 9.61789C24.832 9.5788 24.8558 9.55677 24.8806 9.55664H41.0958C41.1206 9.55664 41.1445 9.57861 41.162 9.61771C41.1796 9.65681 41.1895 9.70985 41.1895 9.76514C41.1895 9.82044 41.1796 9.87348 41.162 9.91258C41.1445 9.95168 41.1206 9.97364 41.0958 9.97364Z" fill="black" fill-opacity="0.2"/>
<path d="M41.096 11.3291H24.8808C24.8685 11.3291 24.8563 11.3237 24.845 11.3132C24.8336 11.3028 24.8233 11.2874 24.8146 11.268C24.8059 11.2487 24.799 11.2257 24.7942 11.2004C24.7895 11.1751 24.7871 11.148 24.7871 11.1206C24.7871 11.0932 24.7895 11.0661 24.7942 11.0408C24.799 11.0155 24.8059 10.9925 24.8146 10.9732C24.8233 10.9538 24.8336 10.9385 24.845 10.928C24.8563 10.9175 24.8685 10.9121 24.8808 10.9121H41.096C41.1083 10.9121 41.1205 10.9175 41.1319 10.928C41.1432 10.9385 41.1536 10.9538 41.1623 10.9732C41.171 10.9925 41.1779 11.0155 41.1826 11.0408C41.1873 11.0661 41.1897 11.0932 41.1897 11.1206C41.1897 11.148 41.1873 11.1751 41.1826 11.2004C41.1779 11.2257 41.171 11.2487 41.1623 11.268C41.1536 11.2874 41.1432 11.3028 41.1319 11.3132C41.1205 11.3237 41.1083 11.3291 41.096 11.3291Z" fill="#346A97"/>
<path d="M41.096 11.3291H24.8808C24.8685 11.3291 24.8563 11.3237 24.845 11.3132C24.8336 11.3028 24.8233 11.2874 24.8146 11.268C24.8059 11.2487 24.799 11.2257 24.7942 11.2004C24.7895 11.1751 24.7871 11.148 24.7871 11.1206C24.7871 11.0932 24.7895 11.0661 24.7942 11.0408C24.799 11.0155 24.8059 10.9925 24.8146 10.9732C24.8233 10.9538 24.8336 10.9385 24.845 10.928C24.8563 10.9175 24.8685 10.9121 24.8808 10.9121H41.096C41.1083 10.9121 41.1205 10.9175 41.1319 10.928C41.1432 10.9385 41.1536 10.9538 41.1623 10.9732C41.171 10.9925 41.1779 11.0155 41.1826 11.0408C41.1873 11.0661 41.1897 11.0932 41.1897 11.1206C41.1897 11.148 41.1873 11.1751 41.1826 11.2004C41.1779 11.2257 41.171 11.2487 41.1623 11.268C41.1536 11.2874 41.1432 11.3028 41.1319 11.3132C41.1205 11.3237 41.1083 11.3291 41.096 11.3291Z" fill="black" fill-opacity="0.2"/>
<path d="M41.096 12.6846H24.8808C24.856 12.6846 24.8321 12.6626 24.8146 12.6235C24.797 12.5844 24.7871 12.5314 24.7871 12.4761C24.7871 12.4208 24.797 12.3677 24.8146 12.3286C24.8321 12.2895 24.856 12.2676 24.8808 12.2676H41.096C41.1083 12.2676 41.1205 12.273 41.1319 12.2834C41.1432 12.2939 41.1536 12.3093 41.1623 12.3286C41.171 12.348 41.1779 12.371 41.1826 12.3963C41.1873 12.4216 41.1897 12.4487 41.1897 12.4761C41.1897 12.5035 41.1873 12.5306 41.1826 12.5559C41.1779 12.5812 41.171 12.6041 41.1623 12.6235C41.1536 12.6429 41.1432 12.6582 41.1319 12.6687C41.1205 12.6792 41.1083 12.6846 41.096 12.6846Z" fill="#346A97"/>
<path d="M41.096 12.6846H24.8808C24.856 12.6846 24.8321 12.6626 24.8146 12.6235C24.797 12.5844 24.7871 12.5314 24.7871 12.4761C24.7871 12.4208 24.797 12.3677 24.8146 12.3286C24.8321 12.2895 24.856 12.2676 24.8808 12.2676H41.096C41.1083 12.2676 41.1205 12.273 41.1319 12.2834C41.1432 12.2939 41.1536 12.3093 41.1623 12.3286C41.171 12.348 41.1779 12.371 41.1826 12.3963C41.1873 12.4216 41.1897 12.4487 41.1897 12.4761C41.1897 12.5035 41.1873 12.5306 41.1826 12.5559C41.1779 12.5812 41.171 12.6041 41.1623 12.6235C41.1536 12.6429 41.1432 12.6582 41.1319 12.6687C41.1205 12.6792 41.1083 12.6846 41.096 12.6846Z" fill="black" fill-opacity="0.2"/>
</svg>
