<svg width="55" height="38" viewBox="0 0 55 38" fill="none" xmlns="http://www.w3.org/2000/svg">
<rect x="26.6353" y="1.02734" width="8.3633" height="4.10811" fill="#00A0F3"/>
<line x1="26.927" y1="0.5" x2="26.927" y2="6.69584" stroke="#00A0F3" stroke-linecap="round"/>
<path d="M14.8521 18.103C14.7358 18.2172 0.551594 18.103 0.551594 18.103C0.551594 18.103 0.435508 21.7009 0.551594 21.8151C0.66768 21.9293 2.12077 21.9293 2.23742 22.0435C2.35408 22.1577 2.00451 37.5774 2.23742 37.8059C2.47034 38.0343 52.1733 38.0914 52.4636 37.8059C52.7538 37.5203 52.3473 22.2148 52.4636 22.1006C52.5798 21.9864 54.2075 21.9864 54.3819 21.8151C54.5563 21.6438 54.5214 18.2743 54.3819 18.103C54.2424 17.9316 39.5582 18.2743 39.442 18.103C39.3257 17.9316 39.5001 13.8768 39.442 13.7626C39.3838 13.6484 36.1931 13.9339 36.135 13.7626C36.0768 13.5913 36.2512 9.99334 36.135 9.87914C36.0187 9.76494 34.3329 9.82203 34.3329 9.82203C29.4498 5.65303 25.6131 5.59592 20.3746 9.82203C20.3746 9.82203 18.9213 9.7649 18.7469 9.87912C18.5725 9.99334 18.8632 13.6484 18.7469 13.7626C18.6307 13.8768 15.0846 13.6484 14.9684 13.7626C14.8521 13.8768 14.9684 17.9887 14.8521 18.103Z" fill="#00A0F3"/>
<rect x="25.4958" y="22.3867" width="3.83672" height="12.7926" rx="1.91836" fill="#F6F9FF"/>
<rect x="35.2642" y="22.3867" width="3.83672" height="12.7926" rx="1.91836" fill="#F6F9FF"/>
<rect x="45.03" y="22.3867" width="3.83672" height="12.7926" rx="1.91836" fill="#F6F9FF"/>
<rect x="15.7319" y="22.3867" width="3.83672" height="12.7926" rx="1.91836" fill="#F6F9FF"/>
<rect x="5.96387" y="22.3867" width="3.83672" height="12.7926" rx="1.91836" fill="#F6F9FF"/>
</svg>
