<svg width="56" height="35" viewBox="0 0 56 35" fill="none" xmlns="http://www.w3.org/2000/svg">
<path d="M50.5 0H5.50009C2.57196 0 0.198242 2.42818 0.198242 5.42348V29.1709C0.198242 32.1662 2.57196 34.5943 5.50009 34.5943H50.5C53.4281 34.5943 55.8018 32.1662 55.8018 29.1709V5.42348C55.8018 2.42818 53.4281 0 50.5 0Z" fill="#00A0F3"/>
<path d="M50.5 35H5.5001C4.04189 34.9983 2.64388 34.405 1.61277 33.3502C0.581659 32.2955 0.00165384 30.8654 0 29.3737V5.62628C0.00165385 4.13462 0.581658 2.70454 1.61277 1.64977C2.64388 0.595002 4.04189 0.00169179 5.5001 0H50.5C51.9582 0.00171273 53.3562 0.595035 54.3873 1.6498C55.4184 2.70456 55.9984 4.13464 56 5.62628V29.3737C55.9984 30.8654 55.4184 32.2954 54.3873 33.3502C53.3562 34.405 51.9582 34.9983 50.5 35ZM5.5001 0.405584C4.14654 0.405585 2.84841 0.955626 1.8913 1.9347C0.934188 2.91377 0.396486 4.24167 0.396487 5.62628V14.5024C0.396487 19.8311 2.46584 24.9416 6.14931 28.7096C9.83278 32.4776 14.8286 34.5944 20.0379 34.5944H50.5C51.8535 34.5944 53.1516 34.0444 54.1087 33.0653C55.0658 32.0863 55.6035 30.7584 55.6035 29.3738V5.62629C55.6035 4.9407 55.4715 4.26182 55.215 3.62842C54.9586 2.99501 54.5826 2.41948 54.1087 1.9347C53.6348 1.44991 53.0722 1.06536 52.453 0.802992C51.8338 0.540627 51.1701 0.405589 50.4999 0.40559L5.5001 0.405584Z" fill="#00A0F3"/>
<path d="M49.1131 23.4824H41.7781C41.3949 23.4824 41.0842 23.8002 41.0842 24.1922V28.0452C41.0842 28.4372 41.3949 28.755 41.7781 28.755H49.1131C49.4963 28.755 49.8069 28.4372 49.8069 28.0452V24.1922C49.8069 23.8002 49.4963 23.4824 49.1131 23.4824Z" fill="#F6F9FF"/>
<path d="M48.5163 11.375H27.8966C26.8193 11.375 25.946 11.4805 25.946 11.6106V12.8894C25.946 13.0195 26.8193 13.125 27.8966 13.125H48.5163C49.5935 13.125 50.4668 13.0195 50.4668 12.8894V11.6106C50.4668 11.4805 49.5935 11.375 48.5163 11.375Z" fill="#F6F9FF"/>
<path d="M48.5163 14.584H27.8966C26.8193 14.584 25.946 14.6895 25.946 14.8196V16.0984C25.946 16.2285 26.8193 16.334 27.8966 16.334H48.5163C49.5935 16.334 50.4668 16.2285 50.4668 16.0984V14.8196C50.4668 14.6895 49.5935 14.584 48.5163 14.584Z" fill="#F6F9FF"/>
<path d="M48.5163 17.791H27.8966C26.8193 17.791 25.946 17.8965 25.946 18.0266V19.3054C25.946 19.4355 26.8193 19.541 27.8966 19.541H48.5163C49.5935 19.541 50.4668 19.4355 50.4668 19.3054V18.0266C50.4668 17.8965 49.5935 17.791 48.5163 17.791Z" fill="#F6F9FF"/>
<path d="M16.4764 21.0801H7.25382C6.91745 21.0801 6.64478 21.5148 6.64478 22.051C6.64478 22.5872 6.91745 23.0219 7.25382 23.0219H16.4764C16.8128 23.0219 17.0855 22.5872 17.0855 22.051C17.0855 21.5148 16.8128 21.0801 16.4764 21.0801Z" fill="#F6F9FF"/>
<path d="M12.0525 19.4297C14.4146 19.4297 16.3294 17.4709 16.3294 15.0547C16.3294 12.6384 14.4146 10.6797 12.0525 10.6797C9.69045 10.6797 7.77563 12.6384 7.77563 15.0547C7.77563 17.4709 9.69045 19.4297 12.0525 19.4297Z" fill="#F6F9FF"/>
<path d="M14.55 34.5312L5.25676 34.3285C4.10072 34.3267 2.99255 33.8561 2.17526 33.0197C1.35797 32.1834 0.898269 31.0496 0.896975 29.867L0.500488 19.9277C1.64159 28.031 6.0267 33.1711 14.55 34.5312Z" fill="#F6F9FF"/>
</svg>
