<svg width="62" height="28" viewBox="0 0 62 28" fill="none" xmlns="http://www.w3.org/2000/svg">
<path d="M38.036 25.5194C38.6594 25.0541 39.2605 23.0961 39.4831 22.1753C42.4481 22.3289 46.953 22.0224 51.2595 21.5937C51.2732 21.7391 52.0994 23.1567 52.7673 23.4838C53.4352 23.811 55.2905 23.8473 56.5893 23.5565C57.6282 23.3239 58.4322 21.5722 58.7043 20.7255C59.597 20.6066 60.3993 20.4941 61.0792 20.3941C62.0811 18.722 62.1553 15.5596 61.8213 14.142C61.5541 13.0079 61.24 12.482 61.1163 12.3609C61.0792 11.6339 60.4484 10.3253 60.2628 10.0345C60.0773 9.74371 59.6691 9.48927 58.1478 9.19847C56.849 8.18068 54.2516 7.30829 53.0271 6.8721C47.8321 3.23715 44.641 1.31062 42.9712 0.947129C37.331 -0.143357 35.5498 0.0747422 28.6851 0.00204312C21.8204 -0.0706559 16.2915 1.81952 16.0689 2.03762C15.8908 2.21209 15.8957 2.74037 15.9205 2.9827C15.2525 4.21859 13.7905 7.27922 13.2859 9.63467C12.6551 12.579 13.1375 15.0871 13.2859 15.596C13.4046 16.0031 14.1022 16.5411 14.4362 16.7592C14.4238 17.05 14.4288 17.7406 14.5475 18.1768C14.6663 18.613 15.1412 18.6978 15.3639 18.6857C15.4257 19.4612 15.7349 21.1211 16.4771 21.5573C17.2192 21.9935 18.7034 22.1389 19.4084 21.7391C20.1135 21.3392 20.4351 19.3763 20.5959 18.4676L30.5776 20.3941C30.8447 21.8772 31.6289 22.3691 31.9876 22.4297C32.5813 24.5743 33.6945 25.5194 34.0656 25.6648C34.4367 25.8102 37.2568 26.101 38.036 25.5194Z" fill="#346A97"/>
<path d="M38.036 25.5194C38.6594 25.0541 39.2605 23.0961 39.4831 22.1753C42.4481 22.3289 46.953 22.0224 51.2595 21.5937C51.2732 21.7391 52.0994 23.1567 52.7673 23.4838C53.4352 23.811 55.2905 23.8473 56.5893 23.5565C57.6282 23.3239 58.4322 21.5722 58.7043 20.7255C59.597 20.6066 60.3993 20.4941 61.0792 20.3941C62.0811 18.722 62.1553 15.5596 61.8213 14.142C61.5541 13.0079 61.24 12.482 61.1163 12.3609C61.0792 11.6339 60.4484 10.3253 60.2628 10.0345C60.0773 9.74371 59.6691 9.48927 58.1478 9.19847C56.849 8.18068 54.2516 7.30829 53.0271 6.8721C47.8321 3.23715 44.641 1.31062 42.9712 0.947129C37.331 -0.143357 35.5498 0.0747422 28.6851 0.00204312C21.8204 -0.0706559 16.2915 1.81952 16.0689 2.03762C15.8908 2.21209 15.8957 2.74037 15.9205 2.9827C15.2525 4.21859 13.7905 7.27922 13.2859 9.63467C12.6551 12.579 13.1375 15.0871 13.2859 15.596C13.4046 16.0031 14.1022 16.5411 14.4362 16.7592C14.4238 17.05 14.4288 17.7406 14.5475 18.1768C14.6663 18.613 15.1412 18.6978 15.3639 18.6857C15.4257 19.4612 15.7349 21.1211 16.4771 21.5573C17.2192 21.9935 18.7034 22.1389 19.4084 21.7391C20.1135 21.3392 20.4351 19.3763 20.5959 18.4676L30.5776 20.3941C30.8447 21.8772 31.6289 22.3691 31.9876 22.4297C32.5813 24.5743 33.6945 25.5194 34.0656 25.6648C34.4367 25.8102 37.2568 26.101 38.036 25.5194Z" fill="black" fill-opacity="0.2"/>
<path d="M24.2695 7.05476C24.7147 7.08384 28.8262 7.53942 30.3847 7.78175C30.5703 7.56365 30.7929 4.6557 30.3848 3.74696C30.2571 3.46268 29.5769 2.49206 28.4921 1.85678C27.1267 1.05709 26.105 0.93593 25.5236 0.948047C25.2268 1.55872 24.4302 5.7583 24.2695 7.05476Z" fill="#F6F9FF"/>
<path d="M18.4809 6.65491C19.0004 4.87378 19.9157 2.53529 20.4846 1.63867C18.7777 1.85677 16.5884 2.62011 16.3658 2.91091C16.247 4.24857 16.5884 6.07331 17.0337 6.54586L18.4809 6.65491Z" fill="#F6F9FF"/>
<path d="M44.7879 1.92899C47.3408 3.0631 51.0094 5.80627 52.0979 6.90888C46.5319 7.30872 36.0307 7.41777 35.2515 7.41777C33.4704 5.67299 32.9138 4.47346 30.7987 2.07439C36.0307 1.38375 44.3426 1.92899 44.7879 1.92899Z" fill="#F6F9FF"/>
<path d="M25.1243 0.947266C24.6419 2.3649 24.0482 5.52731 23.7142 6.98129C23.5361 7.06853 20.5478 6.78742 19.0759 6.69049C19.2614 5.8908 20.4859 1.856 21.2281 1.45616C21.8218 1.13628 24.0729 0.983615 25.1243 0.947266Z" fill="#F6F9FF"/>
<path d="M36.1418 21.4491C36.142 19.1584 35.5853 17.487 34.3978 17.4143C33.2104 17.3416 32.6167 19.0864 32.6167 20.6858C32.6167 22.2851 33.6187 24.3207 34.3978 24.3571C35.177 24.3934 36.1417 23.4847 36.1418 21.4491Z" fill="#F6F9FF"/>
<path d="M17.9631 18.3578C17.9632 16.6076 17.3694 15.5589 16.7386 15.4498C16.1078 15.3408 15.6996 16.6269 15.6996 17.8489C15.6996 19.0709 16.2594 20.7655 16.8499 20.7932C17.4404 20.821 17.9631 19.913 17.9631 18.3578Z" fill="#F6F9FF"/>
<path d="M30.7983 7.85392C30.9764 7.53405 31.0209 5.4912 31.0209 4.50977C31.6443 4.80056 32.6907 7.1027 33.136 8.21742C32.431 8.18107 30.9764 8.05748 30.7983 7.85392Z" fill="#F6F9FF"/>
<path d="M39.3825 11.9034C39.6438 11.5759 45.7181 11.8379 46.4366 11.9034C47.1551 11.969 48.3963 14.0653 48.2656 14.3273C48.1349 14.5894 40.3557 14.537 39.8071 14.3273C39.1212 14.0653 39.1212 12.231 39.3825 11.9034Z" fill="#F6F9FF"/>
<path d="M60.4371 10.3834C60.2712 10.0685 57.7359 10.7456 57.4042 10.8534C57.0725 10.9611 56.7549 13.1455 56.8506 13.402C56.9462 13.6584 60.8155 12.7886 61.0483 12.5455C61.3392 12.2416 60.6029 10.6983 60.4371 10.3834Z" fill="#F6F9FF"/>
<path d="M30.5992 17.6446C30.2727 17.6155 28.1131 16.9055 27.0741 16.5541V16.7722C27.2968 16.774 27.9573 16.9002 28.8182 17.3901C29.8943 18.0026 31.1794 19.6801 31.527 21.1705C31.8746 22.6608 31.689 24.1875 31.2809 25.0235C30.8727 25.8596 29.7966 27.1001 28.5956 27.568C27.7557 27.8951 27.0741 28.0769 26.1973 27.9678C25.3204 27.8588 24.1428 27.4953 23.2151 26.5865C22.473 25.8596 21.9411 24.8296 21.7679 24.4056H21.434C21.1742 24.4056 20.5805 24.6964 19.5415 24.6964C13.8642 24.0057 11.4894 22.8425 11.0441 22.6608C10.5989 22.479 10.0423 22.8062 9.52277 22.9152C9.2324 22.9762 8.94203 23.0258 8.63221 23.0259C7.51901 25.0995 6.03475 25.0235 5.29262 24.9508C4.55049 24.8781 3.78487 24.6964 2.73226 23.4968C1.67965 22.2973 1.32131 20.1769 1.33941 19.2076C0.782464 18.6114 0.341234 18.0893 0.209045 17.8627C-0.0878079 17.3538 -0.0135947 16.8449 0.0977251 16.8085C0.209045 16.7722 0.728537 16.2996 0.876964 16.2996C1.02539 16.2996 2.32412 16.3723 2.36123 16.2996C2.39833 16.2269 2.54676 15.8271 3.58575 15.1728C4.62473 14.5185 5.55239 14.7729 6.07189 14.7729C6.13126 14.5112 5.92346 14.1792 5.81214 14.046C5.62661 14.0338 5.2407 13.9805 5.18133 13.8642C4.29077 12.9191 3.77128 12.0104 3.10336 11.1743C2.56902 10.5055 2.16333 9.41745 2.02727 8.95702C2.17568 8.86009 2.46508 8.64442 2.43539 8.55718C2.39828 8.44813 1.95301 7.90289 2.43539 7.79384C2.91778 7.68479 4.14229 7.90289 5.36681 8.30273C6.59133 8.70258 10.6731 9.72036 11.2297 10.0839C11.6749 10.3747 13.7653 10.5685 14.7548 10.6291C15.2619 11.0411 16.3875 11.9813 16.8328 12.4466C17.3374 12.7955 17.4636 13.5007 17.3151 13.5734C17.1667 13.6461 16.9441 13.4862 16.9441 13.5734C16.9441 13.6825 16.8328 14.1914 16.4988 15.2091C16.2316 16.0234 16.5112 18.3594 16.6843 19.4257C17.0554 19.559 17.9237 19.8764 18.4283 20.08C18.1315 18.8441 17.5007 13.428 17.4636 13.1736C17.4265 12.9191 17.1667 12.1194 17.1667 11.865C17.1667 11.6614 17.5873 11.4167 17.7975 11.3197C18.2675 11.3076 19.2744 11.2616 19.5415 11.1743C19.69 10.8108 19.3931 9.75671 19.2076 9.42957C18.9107 9.17512 18.2428 8.12098 18.1686 7.90289C18.1092 7.72841 18.3912 7.49093 18.5397 7.39399C18.5025 7.2486 18.4506 6.89964 18.5397 6.667C18.6287 6.43437 18.082 6.32774 17.7975 6.30351C17.4265 6.38832 16.6917 6.57976 16.7214 6.667C16.7585 6.77605 16.6472 6.84875 16.4617 6.9578C16.2762 7.06685 16.3504 6.77605 16.239 6.667C16.15 6.57976 16.672 6.38832 16.9441 6.30351V6.08541L14.6064 6.30351V5.68557C15.3856 5.6371 16.9589 5.51109 17.0183 5.39477C17.0925 5.24937 17.6862 5.14032 18.0202 4.99493L18.0202 4.99492C18.3541 4.84952 19.022 4.55873 19.3931 4.55873C19.8384 4.30428 21.2113 4.08619 21.3226 4.37698C21.434 4.66778 22.844 5.21302 23.0667 5.39477C23.2448 5.54017 23.2398 6.42467 23.2151 6.84875C23.413 6.93357 24.2986 7.4885 26.2578 9.02972C28.7069 10.9562 28.8924 12.6647 28.8182 12.9191C28.7588 13.1227 27.3586 13.9975 26.6659 14.4094C26.6536 14.4337 26.7402 14.4821 27.1854 14.4821C29.5974 15.718 31.0074 17.6809 30.5992 17.6446Z" fill="#00A0F3"/>
<path d="M23.1787 21.1707C23.3642 20.153 24.663 19.0625 25.4422 18.8444C26.2214 18.6263 27.5365 18.6843 28.522 19.7531C29.561 20.8799 29.6723 22.5157 29.561 23.2063C29.4497 23.897 29.1529 25.3509 27.4088 25.8235C25.6646 26.296 24.7001 25.46 23.8837 24.5149C23.0674 23.5698 22.9931 22.1885 23.1787 21.1707Z" fill="#F6F9FF"/>
<path d="M3.43601 20.9886C2.57513 18.226 3.76991 16.9901 4.62342 16.6994C5.47693 16.4086 6.36749 16.8811 6.9983 17.9716C7.62911 19.0621 7.25804 21.97 6.73855 22.4789C6.21906 22.9878 5.51402 23.2423 4.84612 22.9151C4.17821 22.588 3.95556 22.1881 3.43601 20.9886Z" fill="#F6F9FF"/>
<path d="M10.4273 12.9919C9.77421 12.323 6.19714 10.096 4.49023 9.06612C4.71287 8.33913 5.4179 8.48453 5.75186 8.48453C6.08582 8.48453 9.75937 9.46596 10.687 9.79311C11.726 10.4474 13.9895 10.4111 14.6945 10.5564C15.3996 10.7018 17.2549 12.7374 17.3291 13.1009C17.4008 13.452 17.4404 13.6098 17.0694 13.6098C16.7725 13.6098 15.6841 13.6583 15.214 13.7189C13.9895 13.6704 11.3178 13.4571 10.4273 12.9919Z" fill="#3C4856"/>
<path d="M24.9355 12.2658C24.5792 12.2077 24.082 11.6115 23.748 10.5938C23.9262 10.5938 26.3826 11.4419 28.1266 11.9023C28.3864 12.2658 28.2008 13.0001 28.0524 13.0292C27.8669 13.0655 25.3807 12.3385 24.9355 12.2658Z" fill="#F6F9FF"/>
</svg>
