<svg width="46" height="47" viewBox="0 0 46 47" fill="none" xmlns="http://www.w3.org/2000/svg">
<path d="M5.90092 46.7848H40.1068C41.6692 46.784 43.1672 46.4979 44.272 45.9893C45.3769 45.4807 45.9983 44.7911 46.0001 44.0718V3.81474C45.9983 3.09546 45.3768 2.40587 44.272 1.89726C43.1672 1.38865 41.6692 1.10255 40.1068 1.10174L35.1928 1.10175L33.6615 1.10177C32.5794 1.10172 32.1041 1.10135 31.3412 1.10174L14.2133 1.10174C13.4504 1.10135 11.9433 1.10176 11.9433 1.10176L11.3918 1.10168H11.0213C11.0213 1.10168 10.62 1.10188 10.3617 1.10174H5.90089C4.33843 1.10256 2.84047 1.38865 1.73564 1.89726C0.630811 2.40587 0.00934132 3.09546 0.00756836 3.81474V44.0718C0.00934907 44.7911 0.630827 45.4807 1.73566 45.9893C2.84049 46.4979 4.33845 46.784 5.90092 46.7848Z" fill="#00A0F3"/>
<path d="M45.6152 3.36523H0V3.85018H45.6152V3.36523Z" fill="#F6F9FF"/>
<path d="M45.6152 23.4102H0V23.8951H45.6152V23.4102Z" fill="#F6F9FF"/>
<path d="M45.6152 43.4551H0V43.94H45.6152V43.4551Z" fill="#F6F9FF"/>
<path d="M33.1272 0H32.6389V33.501H33.1272V0Z" fill="#F6F9FF"/>
<path d="M10.2924 23.6445H9.8042V46.4861H10.2924V23.6445Z" fill="#F6F9FF"/>
<path d="M44.5749 33.4453H10.0488V33.9303H44.5749V33.4453Z" fill="#F6F9FF"/>
<path d="M32.8009 13.5859H1.00269V14.0709H32.8009V13.5859Z" fill="#F6F9FF"/>
<path d="M32.8081 23.7927L21.2234 46.7832L21.66 47.0002L33.2446 24.0097L32.8081 23.7927Z" fill="#F6F9FF"/>
<mask id="mask0_132_1573" style="mask-type:alpha" maskUnits="userSpaceOnUse" x="15" y="13" width="18" height="18">
<ellipse cx="23.664" cy="21.5504" rx="8.54147" ry="8.48403" fill="white"/>
</mask>
<g mask="url(#mask0_132_1573)">
<path d="M6.3197 21.1001C7.39008 20.3164 8.51258 19.6054 9.67951 18.9721C12.9432 17.1833 16.9568 15.6537 21.5197 14.4688C21.8332 14.3871 22.1494 14.3073 22.4682 14.2293C23.1452 14.0628 23.8335 13.9044 24.533 13.7538C24.7058 13.7168 24.879 13.68 25.0527 13.6432C26.0262 13.4399 27.0191 13.2522 28.0314 13.0802C28.0517 13.0765 28.072 13.0733 28.0928 13.0701C28.3305 13.0292 28.5692 12.9897 28.809 12.9517C33.6001 12.1784 38.7923 11.753 44.2169 11.7466C44.2617 11.7461 44.307 11.7461 44.3518 11.7461V30.3779H0.506104C0.506104 26.9999 2.62123 23.832 6.3197 21.1001Z" fill="#346A97"/>
<path d="M6.3197 21.1001C7.39008 20.3164 8.51258 19.6054 9.67951 18.9721C12.9432 17.1833 16.9568 15.6537 21.5197 14.4688C21.8332 14.3871 22.1494 14.3073 22.4682 14.2293C23.1452 14.0628 23.8335 13.9044 24.533 13.7538C24.7058 13.7168 24.879 13.68 25.0527 13.6432C26.0262 13.4399 27.0191 13.2522 28.0314 13.0802C28.0517 13.0765 28.072 13.0733 28.0928 13.0701C28.3305 13.0292 28.5692 12.9897 28.809 12.9517C33.6001 12.1784 38.7923 11.753 44.2169 11.7466C44.2617 11.7461 44.307 11.7461 44.3518 11.7461V30.3779H0.506104C0.506104 26.9999 2.62123 23.832 6.3197 21.1001Z" fill="black" fill-opacity="0.2"/>
<path d="M15.0314 23.225C16.8998 21.8451 19.2921 20.6092 22.0933 19.567C22.4043 19.4509 22.7203 19.3376 23.0414 19.227C23.0862 19.2114 23.1315 19.1958 23.1768 19.1802C23.5857 19.0407 24.0024 18.9048 24.427 18.7727C25.1445 18.5499 25.8824 18.3394 26.6405 18.1412C27.1833 17.9988 27.7355 17.8631 28.2973 17.7341C28.4778 17.6922 28.6591 17.6515 28.8411 17.6121C29.255 17.5206 29.6737 17.4331 30.0974 17.3496C34.4288 16.4923 39.2588 16.0137 44.3516 16.0137V30.3776H10.5493C10.5493 27.7733 12.1802 25.331 15.0314 23.225Z" fill="#00A0F3"/>
<path d="M14.1453 29.6334L14.2289 29.6728C14.5128 29.089 14.8595 28.5373 15.2629 28.0276L15.1899 27.9712C14.7825 28.4863 14.4322 29.0436 14.1453 29.6334ZM16.5251 26.5302L16.5884 26.5972C17.0418 26.1785 17.5184 25.7853 18.0161 25.4196C18.0438 25.399 18.072 25.3783 18.1002 25.3577L18.0452 25.2838C18.017 25.3044 17.9888 25.3251 17.9606 25.3462C17.4603 25.714 16.9811 26.1093 16.5251 26.5302ZM19.6867 24.2003L19.7343 24.2788C20.273 23.9557 20.851 23.6381 21.4516 23.3348L21.4096 23.2526C20.8071 23.5573 20.2273 23.8763 19.6867 24.2003ZM23.1921 22.4206L23.2286 22.5046C23.8121 22.2527 24.4252 22.0067 25.0499 21.774L25.0175 21.6882C24.391 21.9213 23.777 22.1678 23.1921 22.4206ZM26.8762 21.0434L26.9044 21.1306C27.068 21.0778 27.232 21.026 27.3978 20.9741C27.8497 20.8342 28.3163 20.6965 28.7853 20.5662L28.7603 20.4776C28.2905 20.6084 27.8229 20.746 27.3701 20.8869C27.2044 20.9385 27.0398 20.9906 26.8762 21.0434ZM31.2437 19.8475C31.0501 19.8915 30.8551 19.9374 30.6648 19.9833L30.6865 20.0724C30.8769 20.0269 31.0714 19.981 31.265 19.9365C31.4484 19.8943 31.6309 19.853 31.8078 19.8149C32.0716 19.7566 32.3396 19.6993 32.6039 19.6451L32.5854 19.5552C32.3202 19.6098 32.0522 19.6667 31.788 19.725C31.611 19.7635 31.4276 19.8048 31.2437 19.8475ZM34.5185 19.189L34.5347 19.2794C35.1709 19.1688 35.8242 19.065 36.4756 18.9714L36.4622 18.8806C35.8098 18.9746 35.1561 19.0784 34.5185 19.189ZM38.4142 18.6277L38.4249 18.719C39.0689 18.6447 39.7268 18.5777 40.3806 18.5194L40.3723 18.4281C39.7181 18.4864 39.0592 18.5534 38.4142 18.6277ZM42.3354 18.2798L42.3409 18.3716C42.9896 18.3308 43.6503 18.2977 44.3045 18.2734L44.3013 18.1816C43.6457 18.2064 42.9845 18.2395 42.3354 18.2798Z" fill="#F6F9FF" stroke="#F6F9FF"/>
<path d="M23.8352 25.3739C27.9176 22.3584 35.576 20.3281 44.3498 20.3281V30.3783H20.699C20.699 28.5564 21.8402 26.8474 23.8352 25.3739Z" fill="#346A97"/>
<path d="M23.8352 25.3739C27.9176 22.3584 35.576 20.3281 44.3498 20.3281V30.3783H20.699C20.699 28.5564 21.8402 26.8474 23.8352 25.3739Z" fill="black" fill-opacity="0.2"/>
</g>
<path d="M32.2367 21.549C32.2367 26.1175 28.5054 29.8383 23.8812 29.8383C19.257 29.8383 15.5256 26.1175 15.5256 21.549C15.5256 16.9805 19.257 13.2598 23.8812 13.2598C28.5054 13.2598 32.2367 16.9805 32.2367 21.549Z" stroke="#F6F9FF" stroke-width="3"/>
<path d="M18.729 29.4856L20.148 28.0762L17.3101 25.2573L15.8911 26.6667L18.729 29.4856ZM11.2918 31.2351C10.5082 32.0135 10.5082 33.2755 11.2918 34.0539C12.0755 34.8323 13.3461 34.8323 14.1298 34.0539L11.2918 31.2351ZM15.8911 26.6667L11.2918 31.2351L14.1298 34.0539L18.729 29.4856L15.8911 26.6667Z" fill="#F6F9FF"/>
</svg>
