<svg width="53" height="43" viewBox="0 0 53 43" fill="none" xmlns="http://www.w3.org/2000/svg">
<path d="M27.5 26L29.5 25.5V24.5L30.5 25.5L32 24.5L31.4375 25.3438L33.0881 25.0686L33.5 25.5H34L33 26L32.5881 25.9625L32.1763 25.5311L33.0881 25.0686L31.4375 25.3438L31 26H30H27.5Z" fill="#3C4856"/>
<path d="M43.5 24L42.5 25L44.5 24.5V24L45 23L44 24L43 23.5L43.5 24Z" fill="#3C4856"/>
<path d="M23.5 16.5L21.5 16L24.5 17.5L25.5 17L26.5 18H27.5H28.5L29.5 18.5L31.5 19L32.5 19.5L31 18.5L29.5 18L28.5 17.5H27L25.5 16.5L25 17L23.5 16.5Z" fill="#3C4856"/>
<path d="M37.9201 15.6648C40.08 16.6443 43.1838 19.0135 44.1047 19.9658C39.3956 20.3111 30.5111 20.4053 29.8519 20.4053C28.3449 18.8984 27.874 17.8624 26.0846 15.7904C30.5111 15.1939 37.5434 15.6648 37.9201 15.6648Z" fill="#F6F9FF"/>
<path d="M32.2077 36.0404C32.7351 35.6385 33.2437 33.9474 33.432 33.1521C35.9405 33.2848 39.7519 33.0201 43.3955 32.6498C43.407 32.7754 44.106 33.9998 44.6711 34.2823C45.2362 34.5648 46.8059 34.5962 47.9047 34.3451C48.7837 34.1442 49.4639 32.6313 49.6941 31.9C50.4494 31.7974 51.1282 31.7002 51.7034 31.6138C52.551 30.1697 52.6138 27.4384 52.3312 26.214C52.1052 25.2345 51.8394 24.7804 51.7348 24.6757C51.7034 24.0478 51.1697 22.9177 51.0127 22.6665C50.8557 22.4154 50.5104 22.1956 49.2232 21.9444C48.1244 21.0654 42.536 18.8767 41.5 18.5L40.5 17L39.5 18L38 15.5L36.5 17L36 15.5L34.5 16.5761L34 15.7598L33 15.5H32L30.5 15L29 14.5L24.2964 14.0018C18.4885 13.939 13.8108 15.5715 13.6224 15.7598C13.4717 15.9105 13.4759 16.3668 13.4968 16.5761C12.9318 17.6435 11.6948 20.2868 11.2679 22.3212C10.7342 24.8641 11.1423 27.0303 11.2679 27.4698C11.3683 27.8214 11.9585 28.286 12.2411 28.4744C12.2306 28.7256 12.2348 29.322 12.3353 29.6988C12.4357 30.0755 12.8376 30.1488 13.0259 30.1383C13.0783 30.808 13.3399 32.2417 13.9678 32.6184C14.5956 32.9951 15.8514 33.1207 16.4479 32.7754C17.0443 32.4301 17.3165 30.7348 17.4525 29.9499L25.8975 31.6138C26.1235 32.8947 26.787 33.3196 27.0905 33.3719C27.5928 35.2241 28.5346 36.0404 28.8485 36.1659C29.1625 36.2915 31.5484 36.5427 32.2077 36.0404Z" fill="#346A97"/>
<path d="M32.2077 36.0404C32.7351 35.6385 33.2437 33.9474 33.432 33.1521C35.9405 33.2848 39.7519 33.0201 43.3955 32.6498C43.407 32.7754 44.106 33.9998 44.6711 34.2823C45.2362 34.5648 46.8059 34.5962 47.9047 34.3451C48.7837 34.1442 49.4639 32.6313 49.6941 31.9C50.4494 31.7974 51.1282 31.7002 51.7034 31.6138C52.551 30.1697 52.6138 27.4384 52.3312 26.214C52.1052 25.2345 51.8394 24.7804 51.7348 24.6757C51.7034 24.0478 51.1697 22.9177 51.0127 22.6665C50.8557 22.4154 50.5104 22.1956 49.2232 21.9444C48.1244 21.0654 42.536 18.8767 41.5 18.5L40.5 17L39.5 18L38 15.5L36.5 17L36 15.5L34.5 16.5761L34 15.7598L33 15.5H32L30.5 15L29 14.5L24.2964 14.0018C18.4885 13.939 13.8108 15.5715 13.6224 15.7598C13.4717 15.9105 13.4759 16.3668 13.4968 16.5761C12.9318 17.6435 11.6948 20.2868 11.2679 22.3212C10.7342 24.8641 11.1423 27.0303 11.2679 27.4698C11.3683 27.8214 11.9585 28.286 12.2411 28.4744C12.2306 28.7256 12.2348 29.322 12.3353 29.6988C12.4357 30.0755 12.8376 30.1488 13.0259 30.1383C13.0783 30.808 13.3399 32.2417 13.9678 32.6184C14.5956 32.9951 15.8514 33.1207 16.4479 32.7754C17.0443 32.4301 17.3165 30.7348 17.4525 29.9499L25.8975 31.6138C26.1235 32.8947 26.787 33.3196 27.0905 33.3719C27.5928 35.2241 28.5346 36.0404 28.8485 36.1659C29.1625 36.2915 31.5484 36.5427 32.2077 36.0404Z" fill="black" fill-opacity="0.2"/>
<path d="M20.5605 20.0913C20.9373 20.1164 24.4158 20.5099 25.7343 20.7192C25.8913 20.5308 26.0797 18.0193 25.7344 17.2344C25.6264 16.9889 25.0509 16.1506 24.1331 15.6019C22.9779 14.9113 22.1134 14.8066 21.6216 14.8171C21.3705 15.3445 20.6966 18.9716 20.5605 20.0913Z" fill="#F6F9FF"/>
<path d="M15.6629 19.7464C16.1024 18.2081 16.8768 16.1884 17.3582 15.4141C15.914 15.6024 14.0618 16.2617 13.8734 16.5129C13.773 17.6682 14.0618 19.2441 14.4385 19.6523L15.6629 19.7464Z" fill="#F6F9FF"/>
<path d="M21.2837 14.8184C20.8756 16.0427 20.3733 18.774 20.0907 20.0298C19.94 20.1051 17.4118 19.8623 16.1665 19.7786C16.3234 19.0879 17.3594 15.6032 17.9873 15.2579C18.4896 14.9816 20.3942 14.8498 21.2837 14.8184Z" fill="#F6F9FF"/>
<path d="M30.6052 32.5237C30.6053 30.5454 30.1343 29.1018 29.1297 29.039C28.1251 28.9762 27.6228 30.4831 27.6228 31.8645C27.6228 33.2458 28.4705 35.0039 29.1297 35.0353C29.7889 35.0667 30.6051 34.2818 30.6052 32.5237Z" fill="#F6F9FF"/>
<path d="M15.2251 29.855C15.2252 28.3434 14.7228 27.4377 14.1891 27.3435C13.6554 27.2493 13.3101 28.3601 13.3101 29.4155C13.3101 30.4709 13.7837 31.9344 14.2833 31.9584C14.7829 31.9824 15.225 31.1982 15.2251 29.855Z" fill="#F6F9FF"/>
<path d="M26.0842 20.7828C26.2349 20.5065 26.2726 18.7422 26.2726 17.8945C26.8 18.1457 27.6853 20.134 28.062 21.0967C27.4655 21.0653 26.2349 20.9586 26.0842 20.7828Z" fill="#F6F9FF"/>
<path d="M33.347 24.2819C33.568 23.999 38.7072 24.2253 39.3151 24.2819C39.923 24.3384 40.9731 26.149 40.8625 26.3753C40.7519 26.6016 34.1704 26.5563 33.7062 26.3753C33.1259 26.149 33.1259 24.5648 33.347 24.2819Z" fill="#F6F9FF"/>
<path d="M51.1602 22.9673C51.0198 22.6953 48.8749 23.2801 48.5942 23.3732C48.3136 23.4663 48.0449 25.3529 48.1258 25.5743C48.2067 25.7958 51.4803 25.0446 51.6773 24.8346C51.9234 24.5722 51.3005 23.2392 51.1602 22.9673Z" fill="#F6F9FF"/>
<path d="M38.1572 15.4832C40.3171 16.4627 43.4209 18.8319 44.3418 19.7841C39.6327 20.1295 30.7482 20.2237 30.0889 20.2237C28.582 18.7167 28.1111 17.6807 26.3216 15.6087C30.7482 15.0122 37.7804 15.4832 38.1572 15.4832Z" fill="#F6F9FF"/>
<path d="M25.8885 28.5786C25.6122 28.5535 23.7851 27.9403 22.906 27.6368V27.8252C23.0944 27.8267 23.6533 27.9357 24.3816 28.3589C25.2921 28.8878 26.3793 30.3367 26.6734 31.6238C26.9675 32.911 26.8105 34.2295 26.4652 34.9516C26.1198 35.6737 25.2094 36.7451 24.1933 37.1492C23.4827 37.4317 22.906 37.5887 22.1642 37.4945C21.4223 37.4003 20.426 37.0864 19.6411 36.3015C19.0132 35.6737 18.5633 34.7842 18.4168 34.4179H18.1342C17.9145 34.4179 17.4122 34.6691 16.5331 34.6691C11.7298 34.0726 9.72062 33.068 9.34389 32.911C8.96716 32.754 8.49625 33.0366 8.05674 33.1307C7.81107 33.1834 7.5654 33.2262 7.30328 33.2264C6.36146 35.0172 5.1057 34.9516 4.47782 34.8888C3.84994 34.826 3.20219 34.6691 2.31163 33.633C1.42107 32.597 1.11789 30.7657 1.13321 29.9286C0.662003 29.4136 0.288701 28.9627 0.176862 28.767C-0.0742898 28.3275 -0.0115018 27.8879 0.0826803 27.8565C0.176862 27.8252 0.616379 27.417 0.741955 27.417C0.867531 27.417 1.96632 27.4798 1.99772 27.417C2.02911 27.3542 2.15469 27.0089 3.03372 26.4438C3.91275 25.8787 4.6976 26.0985 5.13712 26.0985C5.18735 25.8724 5.01154 25.5857 4.91736 25.4706C4.76039 25.4601 4.43389 25.4141 4.38366 25.3136C3.6302 24.4974 3.19069 23.7125 2.6256 22.9905C2.17352 22.4128 1.83028 21.4731 1.71517 21.0754C1.84073 20.9917 2.08558 20.8055 2.06046 20.7301C2.02907 20.6359 1.65234 20.165 2.06046 20.0708C2.46858 19.9766 3.50459 20.165 4.54059 20.5103C5.57659 20.8557 9.02993 21.7347 9.50084 22.0487C9.87757 22.2998 11.6461 22.4672 12.4833 22.5196C12.9123 22.8754 13.8646 23.6874 14.2413 24.0893C14.6683 24.3906 14.775 24.9997 14.6495 25.0625C14.5239 25.1253 14.3355 24.9871 14.3355 25.0625C14.3355 25.1567 14.2413 25.5962 13.9588 26.4752C13.7328 27.1784 13.9693 29.196 14.1158 30.1169C14.4297 30.232 15.1643 30.5062 15.5913 30.682C15.3401 29.6146 14.8064 24.9369 14.775 24.7171C14.7436 24.4974 14.5239 23.8067 14.5239 23.587C14.5239 23.4112 14.8797 23.1998 15.0576 23.1161C15.4552 23.1056 16.3071 23.0658 16.5331 22.9905C16.6587 22.6765 16.4075 21.7661 16.2506 21.4836C15.9994 21.2638 15.4343 20.3534 15.3715 20.165C15.3213 20.0143 15.5599 19.8092 15.6855 19.7255C15.6541 19.5999 15.6101 19.2985 15.6855 19.0976C15.7608 18.8967 15.2983 18.8046 15.0576 18.7837C14.7436 18.8569 14.122 19.0223 14.1472 19.0976C14.1786 19.1918 14.0844 19.2546 13.9274 19.3488C13.7704 19.443 13.8332 19.1918 13.739 19.0976C13.6637 19.0223 14.1053 18.8569 14.3355 18.7837V18.5953L12.3577 18.7837V18.25C13.017 18.2081 14.3481 18.0993 14.3983 17.9988C14.4611 17.8732 14.9634 17.7791 15.246 17.6535C15.5285 17.5279 16.0936 17.2768 16.4075 17.2768C16.7843 17.057 17.9458 16.8686 18.04 17.1198C18.1342 17.3709 19.3272 17.8419 19.5155 17.9988C19.6662 18.1244 19.662 18.8883 19.6411 19.2546C19.8085 19.3278 20.5578 19.8071 22.2154 21.1382C24.2874 22.8021 24.4444 24.2776 24.3816 24.4974C24.3314 24.6732 23.1467 25.4287 22.5607 25.7845C22.5502 25.8055 22.6235 25.8473 23.0002 25.8473C25.0408 26.9147 26.2338 28.61 25.8885 28.5786Z" fill="#00A0F3"/>
<path d="M19.6103 31.6229C19.7673 30.7438 20.8661 29.802 21.5253 29.6136C22.1846 29.4253 23.2972 29.4754 24.131 30.3985C25.0101 31.3717 25.1043 32.7844 25.0101 33.3809C24.9159 33.9774 24.6647 35.2332 23.1891 35.6413C21.7135 36.0494 20.8975 35.3274 20.2068 34.5111C19.5161 33.6949 19.4533 32.5019 19.6103 31.6229Z" fill="#F6F9FF"/>
<path d="M2.907 31.4666C2.17866 29.0807 3.1895 28.0133 3.91161 27.7621C4.63372 27.511 5.38718 27.9191 5.92088 28.8609C6.45458 29.8027 6.14064 32.3142 5.70112 32.7538C5.2616 33.1933 4.6651 33.413 4.10002 33.1305C3.53494 32.8479 3.34657 32.5026 2.907 31.4666Z" fill="#F6F9FF"/>
<path d="M8.82211 24.5594C8.26958 23.9817 5.2432 22.0583 3.79907 21.1688C3.98744 20.5409 4.58392 20.6665 4.86647 20.6665C5.14901 20.6665 8.25702 21.5141 9.04187 21.7967C9.92091 22.3618 11.8359 22.3304 12.4324 22.456C13.0289 22.5815 14.5986 24.3396 14.6614 24.6535C14.722 24.9567 14.7556 25.0931 14.4416 25.0931C14.1905 25.0931 13.2696 25.1349 12.8719 25.1872C11.8359 25.1454 9.57557 24.9612 8.82211 24.5594Z" fill="#3C4856"/>
<path d="M21.0966 23.9324C20.7953 23.8822 20.3746 23.3673 20.092 22.4883C20.2427 22.4883 22.321 23.2208 23.7965 23.6185C24.0163 23.9324 23.8593 24.5666 23.7337 24.5917C23.5768 24.6231 21.4734 23.9952 21.0966 23.9324Z" fill="#F6F9FF"/>
<path d="M19.5 24.5L17.5 24L19.5 25H20.5L19.5 24.5Z" fill="#3C4856"/>
<path d="M17 27.5L15 26L17 28L18 28.5L18.5 28L19.5 28.5L19 28L18.5 27.5H18H17Z" fill="#3C4856"/>
<path d="M30 9.30592C25.9664 6.94077 21.6527 8.32044 20 9.30592C20.6723 17.1897 21.8487 30.1801 21.8487 33.7637C24.0336 35.3762 26.4706 35.2867 28.4034 34.2116C28.4034 27.3133 29.0756 17.1897 30 9.30592Z" fill="#AD3B6F"/>
<path d="M28 36.2901C26.5185 37.0638 23.7778 36.9671 22 36V42.3829C23.4074 43.1566 26.5185 43.2533 28 42.3829V36.2901Z" fill="#AD3B6F"/>
<path d="M15.0586 5.24023L17.0375 7.64245" stroke="#AD3B6F" stroke-linecap="round"/>
<path d="M19.2988 2.41406L20.7119 5.24029" stroke="#AD3B6F" stroke-linecap="round"/>
<path d="M25 1L25 5" stroke="#AD3B6F" stroke-linecap="round"/>
<path d="M30.6035 2.41406L29.1904 5.24029" stroke="#AD3B6F" stroke-linecap="round"/>
<path d="M35.1777 5.46289L33.0964 7.84038" stroke="#AD3B6F" stroke-linecap="round"/>
<path d="M25 9C21.8 9 21 10.3333 21 11H21.5C22 9 25 9.5 25 9Z" fill="#F6F9FF"/>
<path d="M32 15.5L30 15L33.5 16.5H35.5L36 17.5L37.5 17L38 18L40 17.5L41 19L45 20.5L42 18.5H41L40.5 17.0761L38 17.5L37.5 16.5L36 17.0761V16H34.5H33.5L32 15.5Z" fill="#346A97"/>
<path d="M32 15.5L30 15L33.5 16.5H35.5L36 17.5L37.5 17L38 18L40 17.5L41 19L45 20.5L42 18.5H41L40.5 17.0761L38 17.5L37.5 16.5L36 17.0761V16H34.5H33.5L32 15.5Z" fill="black" fill-opacity="0.2"/>
<path d="M31.5 18L30.5 16.5L32 18L32.5 18.5L33 19L31.5 18Z" fill="#3C4856"/>
<path d="M33.5 18L33 17.5L33.5 18.5L35 19.5L35.5 20L35 19L33.5 18Z" fill="#3C4856"/>
</svg>
