<svg width="50" height="48" viewBox="0 0 50 48" fill="none" xmlns="http://www.w3.org/2000/svg">
<g clip-path="url(#clip0_132_1579)">
<path d="M0.0248784 13.3561L6.19996 35.6445L47.5605 20.2132L42.0898 0.467268C42.0439 0.302117 41.9375 0.162872 41.7941 0.0800989C41.6507 -0.00267473 41.4818 -0.0222136 41.3247 0.0257688L0.444732 12.5515C0.287599 12.5997 0.15509 12.7115 0.0763526 12.8624C-0.00238516 13.0133 -0.020902 13.1909 0.0248784 13.3561Z" fill="#346A97"/>
<path d="M0.0248784 13.3561L6.19996 35.6445L47.5605 20.2132L42.0898 0.467268C42.0439 0.302117 41.9375 0.162872 41.7941 0.0800989C41.6507 -0.00267473 41.4818 -0.0222136 41.3247 0.0257688L0.444732 12.5515C0.287599 12.5997 0.15509 12.7115 0.0763526 12.8624C-0.00238516 13.0133 -0.020902 13.1909 0.0248784 13.3561Z" fill="black" fill-opacity="0.2"/>
<path d="M43.0902 4.40917L1.19458 17.2461L2.30427 21.2514L44.1999 8.41452L43.0902 4.40917Z" fill="#F6F9FF"/>
<path d="M38.5124 20.3061C38.3884 20.306 38.2677 20.2636 38.1685 20.1853C38.0693 20.1071 37.9968 19.9971 37.962 19.8719L36.9263 16.1336C36.884 15.9802 36.9012 15.8154 36.9743 15.6753C37.0474 15.5352 37.1703 15.4314 37.3161 15.3865L40.8709 14.2973C41.0168 14.2528 41.1736 14.271 41.3068 14.3479C41.4399 14.4247 41.5387 14.554 41.5813 14.7074L42.6171 18.4457C42.6594 18.5991 42.6421 18.7639 42.569 18.904C42.4959 19.0441 42.373 19.1479 42.2272 19.1928L38.6724 20.282C38.6204 20.298 38.5666 20.3061 38.5124 20.3061Z" fill="#F6F9FF"/>
<path d="M30.9145 18.8144C30.8957 18.7434 30.8638 18.6771 30.8207 18.6191C30.7775 18.5611 30.7239 18.5127 30.6629 18.4765C30.6019 18.4403 30.5347 18.4172 30.4652 18.4083C30.3957 18.3995 30.3252 18.4052 30.2577 18.425L24.405 20.1466L23.7747 20.332H27.7329L28.3632 20.1466L30.5451 19.5051C30.6811 19.4649 30.7964 19.3696 30.8657 19.2401C30.9349 19.1106 30.9525 18.9575 30.9145 18.8144Z" fill="#F6F9FF"/>
<path d="M26.7739 17.5283C26.7358 17.3852 26.6452 17.2639 26.522 17.1911C26.3988 17.1183 26.2532 17.0998 26.1171 17.1399L17.335 19.7228C17.2122 19.7593 17.106 19.8408 17.0353 19.9525C16.9647 20.0641 16.9343 20.1987 16.9497 20.3318H19.2233L19.8544 20.1464L26.4045 18.2199C26.5406 18.1796 26.656 18.0842 26.7253 17.9545C26.7945 17.8248 26.812 17.6716 26.7739 17.5283Z" fill="#F6F9FF"/>
<path d="M49.383 20.1465H6.80313C6.63953 20.1467 6.48267 20.2151 6.36698 20.3368C6.25129 20.4584 6.18622 20.6234 6.18604 20.7954V47.3102C6.18621 47.4822 6.25128 47.6472 6.36697 47.7689C6.48266 47.8905 6.63952 47.959 6.80313 47.9591H49.383C49.5466 47.9589 49.7034 47.8905 49.8191 47.7689C49.9348 47.6472 49.9999 47.4822 50.0001 47.3102V20.7954C49.9999 20.6234 49.9348 20.4584 49.8191 20.3368C49.7034 20.2151 49.5466 20.1467 49.383 20.1465Z" fill="#00A0F3"/>
<path d="M15.2343 35.793C15.024 35.7927 14.8223 35.7048 14.6736 35.5483C14.5248 35.3919 14.4412 35.1798 14.4409 34.9586V32.4555C14.4409 32.2342 14.5245 32.022 14.6733 31.8655C14.8221 31.709 15.0239 31.6211 15.2343 31.6211C15.4448 31.6211 15.6466 31.709 15.7954 31.8655C15.9442 32.022 16.0277 32.2342 16.0277 32.4555V34.9586C16.0275 35.1798 15.9438 35.3919 15.7951 35.5483C15.6463 35.7047 15.4447 35.7927 15.2343 35.793Z" fill="#F6F9FF"/>
<path d="M17.3501 35.793C17.1397 35.7927 16.938 35.7048 16.7893 35.5483C16.6405 35.3919 16.5569 35.1798 16.5566 34.9586V32.4555C16.5566 32.2342 16.6402 32.022 16.789 31.8655C16.9378 31.709 17.1396 31.6211 17.3501 31.6211C17.5605 31.6211 17.7623 31.709 17.9111 31.8655C18.0599 32.022 18.1435 32.2342 18.1435 32.4555V34.9586C18.1432 35.1798 18.0596 35.3919 17.9108 35.5483C17.7621 35.7047 17.5604 35.7927 17.3501 35.793Z" fill="#F6F9FF"/>
<path d="M19.466 35.793C19.2557 35.7927 19.054 35.7048 18.9053 35.5483C18.7565 35.3919 18.6728 35.1798 18.6726 34.9586V32.4555C18.6726 32.2342 18.7562 32.022 18.905 31.8655C19.0538 31.709 19.2556 31.6211 19.466 31.6211C19.6764 31.6211 19.8783 31.709 20.027 31.8655C20.1758 32.022 20.2594 32.2342 20.2594 32.4555V34.9586C20.2592 35.1798 20.1755 35.3919 20.0268 35.5483C19.878 35.7047 19.6764 35.7927 19.466 35.793Z" fill="#F6F9FF"/>
<path d="M22.7277 35.793C22.5174 35.7927 22.3157 35.7048 22.167 35.5483C22.0182 35.3919 21.9346 35.1798 21.9343 34.9586V32.4555C21.9343 32.2342 22.0179 32.022 22.1667 31.8655C22.3155 31.709 22.5173 31.6211 22.7277 31.6211C22.9382 31.6211 23.14 31.709 23.2888 31.8655C23.4376 32.022 23.5212 32.2342 23.5212 32.4555V34.9586C23.5209 35.1798 23.4372 35.3919 23.2885 35.5483C23.1398 35.7047 22.9381 35.7927 22.7277 35.793Z" fill="#F6F9FF"/>
<path d="M24.8435 35.793C24.6331 35.7927 24.4314 35.7048 24.2827 35.5483C24.134 35.3919 24.0503 35.1798 24.05 34.9586V32.4555C24.05 32.2342 24.1336 32.022 24.2824 31.8655C24.4312 31.709 24.633 31.6211 24.8435 31.6211C25.0539 31.6211 25.2557 31.709 25.4045 31.8655C25.5533 32.022 25.6369 32.2342 25.6369 32.4555V34.9586C25.6366 35.1798 25.553 35.3919 25.4042 35.5483C25.2555 35.7047 25.0538 35.7927 24.8435 35.793Z" fill="#F6F9FF"/>
<path d="M26.9592 35.793C26.7488 35.7927 26.5472 35.7048 26.3984 35.5483C26.2497 35.3919 26.166 35.1798 26.1658 34.9586V32.4555C26.1658 32.2342 26.2494 32.022 26.3982 31.8655C26.547 31.709 26.7488 31.6211 26.9592 31.6211C27.1696 31.6211 27.3714 31.709 27.5202 31.8655C27.669 32.022 27.7526 32.2342 27.7526 32.4555V34.9586C27.7524 35.1798 27.6687 35.3919 27.5199 35.5483C27.3712 35.7047 27.1695 35.7927 26.9592 35.793Z" fill="#F6F9FF"/>
<path d="M30.2211 35.793C30.0108 35.7927 29.8091 35.7048 29.6604 35.5483C29.5116 35.3919 29.428 35.1798 29.4277 34.9586V32.4555C29.4277 32.2342 29.5113 32.022 29.6601 31.8655C29.8089 31.709 30.0107 31.6211 30.2211 31.6211C30.4316 31.6211 30.6334 31.709 30.7822 31.8655C30.931 32.022 31.0146 32.2342 31.0146 32.4555V34.9586C31.0143 35.1798 30.9307 35.3919 30.7819 35.5483C30.6332 35.7047 30.4315 35.7927 30.2211 35.793Z" fill="#F6F9FF"/>
<path d="M32.3369 35.793C32.1265 35.7927 31.9249 35.7048 31.7761 35.5483C31.6274 35.3919 31.5437 35.1798 31.5435 34.9586V32.4555C31.5435 32.2342 31.627 32.022 31.7758 31.8655C31.9246 31.709 32.1264 31.6211 32.3369 31.6211C32.5473 31.6211 32.7491 31.709 32.8979 31.8655C33.0467 32.022 33.1303 32.2342 33.1303 32.4555V34.9586C33.13 35.1798 33.0464 35.3919 32.8976 35.5483C32.7489 35.7047 32.5472 35.7927 32.3369 35.793Z" fill="#F6F9FF"/>
<path d="M34.4526 35.793C34.2422 35.7927 34.0406 35.7048 33.8918 35.5483C33.7431 35.3919 33.6594 35.1798 33.6592 34.9586V32.4555C33.6592 32.2342 33.7428 32.022 33.8916 31.8655C34.0404 31.709 34.2422 31.6211 34.4526 31.6211C34.663 31.6211 34.8648 31.709 35.0136 31.8655C35.1624 32.022 35.246 32.2342 35.246 32.4555V34.9586C35.2458 35.1798 35.1621 35.3919 35.0134 35.5483C34.8646 35.7047 34.6629 35.7927 34.4526 35.793Z" fill="#F6F9FF"/>
<path d="M37.7143 35.793C37.504 35.7927 37.3023 35.7048 37.1536 35.5483C37.0048 35.3919 36.9211 35.1798 36.9209 34.9586V32.4555C36.9209 32.2342 37.0045 32.022 37.1533 31.8655C37.3021 31.709 37.5039 31.6211 37.7143 31.6211C37.9247 31.6211 38.1265 31.709 38.2753 31.8655C38.4241 32.022 38.5077 32.2342 38.5077 32.4555V34.9586C38.5075 35.1798 38.4238 35.3919 38.2751 35.5483C38.1263 35.7047 37.9247 35.7927 37.7143 35.793Z" fill="#F6F9FF"/>
<path d="M39.8303 35.793C39.6199 35.7927 39.4183 35.7048 39.2695 35.5483C39.1208 35.3919 39.0371 35.1798 39.0369 34.9586V32.4555C39.0369 32.2342 39.1205 32.022 39.2693 31.8655C39.418 31.709 39.6199 31.6211 39.8303 31.6211C40.0407 31.6211 40.2425 31.709 40.3913 31.8655C40.5401 32.022 40.6237 32.2342 40.6237 32.4555V34.9586C40.6234 35.1798 40.5398 35.3919 40.391 35.5483C40.2423 35.7047 40.0406 35.7927 39.8303 35.793Z" fill="#F6F9FF"/>
<path d="M41.946 35.793C41.7356 35.7927 41.534 35.7048 41.3852 35.5483C41.2365 35.3919 41.1528 35.1798 41.1526 34.9586V32.4555C41.1526 32.2342 41.2362 32.022 41.385 31.8655C41.5338 31.709 41.7356 31.6211 41.946 31.6211C42.1564 31.6211 42.3582 31.709 42.507 31.8655C42.6558 32.022 42.7394 32.2342 42.7394 32.4555V34.9586C42.7392 35.1798 42.6555 35.3919 42.5068 35.5483C42.358 35.7047 42.1564 35.7927 41.946 35.793Z" fill="#F6F9FF"/>
<path d="M20.6136 45.0803H9.20255C9.06116 45.0803 8.92556 45.0212 8.82558 44.9161C8.7256 44.8109 8.66943 44.6683 8.66943 44.5196C8.66943 44.3709 8.7256 44.2283 8.82558 44.1232C8.92556 44.0181 9.06116 43.959 9.20255 43.959H20.6136C20.755 43.959 20.8906 44.0181 20.9906 44.1232C21.0906 44.2283 21.1467 44.3709 21.1467 44.5196C21.1467 44.6683 21.0906 44.8109 20.9906 44.9161C20.8906 45.0212 20.755 45.0803 20.6136 45.0803Z" fill="#F6F9FF"/>
<path d="M16.955 42.6701H12.861C12.7196 42.6701 12.584 42.611 12.484 42.5059C12.384 42.4008 12.3279 42.2582 12.3279 42.1095C12.3279 41.9608 12.384 41.8182 12.484 41.713C12.584 41.6079 12.7196 41.5488 12.861 41.5488H16.955C17.0964 41.5488 17.232 41.6079 17.332 41.713C17.432 41.8182 17.4881 41.9608 17.4881 42.1095C17.4881 42.2582 17.432 42.4008 17.332 42.5059C17.232 42.611 17.0964 42.6701 16.955 42.6701Z" fill="#F6F9FF"/>
<path d="M49.7919 25.6895H6.33057V25.8749H49.7919V25.6895Z" fill="#F6F9FF"/>
</g>
<defs>
<clipPath id="clip0_132_1579">
<rect width="50" height="47.9592" fill="white"/>
</clipPath>
</defs>
</svg>
