<svg width="51" height="47" viewBox="0 0 51 47" fill="none" xmlns="http://www.w3.org/2000/svg">
<path d="M24.6429 31.0363C24.6429 31.0363 24.2286 32.0266 23.6941 32.663C23.6941 32.663 21.6686 31.1156 20.9001 31.2803C20.9001 31.2803 20.3561 31.1156 19.14 34.7798C19.14 34.7798 18.7558 35.2739 18.6277 34.7798L19.8706 30.8899C19.8706 30.8899 20.8177 28.2566 24.6429 31.0363Z" fill="#346A97"/>
<path d="M24.6429 31.0363C24.6429 31.0363 24.2286 32.0266 23.6941 32.663C23.6941 32.663 21.6686 31.1156 20.9001 31.2803C20.9001 31.2803 20.3561 31.1156 19.14 34.7798C19.14 34.7798 18.7558 35.2739 18.6277 34.7798L19.8706 30.8899C19.8706 30.8899 20.8177 28.2566 24.6429 31.0363Z" fill="black" fill-opacity="0.2"/>
<path d="M50.2545 19.0652C50.0053 18.9392 49.6951 18.799 49.3359 18.6696C48.3631 18.3192 47.0037 18.0388 45.5151 18.3653L45.4885 18.3711L45.4626 18.3798L39.8174 20.2815L39.5169 17.6741L45.7132 16.2475L45.7158 16.2472C45.7307 16.2452 45.7547 16.2423 45.7875 16.239C45.8531 16.2324 45.9534 16.2242 46.084 16.2193C46.3454 16.2094 46.727 16.2124 47.1942 16.2661C48.0639 16.3662 49.2265 16.6414 50.4637 17.3336L50.2545 19.0652Z" fill="#00A0F3" stroke="#00A0F3"/>
<path d="M1.83539 43.8618L1.174 43.9383C1.26827 43.6403 1.39209 43.2602 1.54397 42.8176C1.93089 41.6899 2.49867 40.1597 3.22249 38.5472C3.94716 36.9328 4.82311 35.2474 5.8238 33.8037C6.7039 32.5339 7.65934 31.4821 8.66628 30.8193L9.43573 32.2892C8.46479 32.9268 7.60551 33.8933 6.86083 34.9705C6.00442 36.2094 5.27256 37.6345 4.67876 38.9752C4.08413 40.3177 3.62283 41.5872 3.31028 42.5203C3.15388 42.9873 3.03441 43.371 2.95385 43.6386C2.94354 43.6729 2.93386 43.7053 2.92482 43.7357L2.81152 43.7488L1.83539 43.8618Z" fill="#00A0F3" stroke="#00A0F3"/>
<path d="M24.9439 31.4867C25.369 30.9036 25.6578 30.3539 25.8495 29.9142L27.4288 32.2477L20.0508 36.5783L20.0343 36.588L20.0187 36.5989C18.5742 37.6022 17.4878 37.5685 16.79 37.3472C16.4284 37.2325 16.1487 37.0601 15.9602 36.9168C15.8663 36.8454 15.7964 36.7824 15.7519 36.7393C15.7297 36.7178 15.714 36.7015 15.7049 36.6918L15.6963 36.6824C15.6963 36.6824 15.6963 36.6823 15.6963 36.6823L15.6898 36.6748L15.6812 36.6657L12.0956 32.8797L13.5411 32.036C14.9103 34.1495 16.2713 34.9877 17.3839 35.2423C17.9693 35.3762 18.4604 35.3421 18.8118 35.2701C18.987 35.2343 19.1272 35.1891 19.2273 35.1509C19.2731 35.1335 19.3106 35.1175 19.3394 35.1044C22.2383 34.3642 23.9545 32.8436 24.9439 31.4867Z" fill="#00A0F3" stroke="#00A0F3"/>
<path d="M39.6759 21.8116C39.6756 21.888 39.6744 21.9572 39.6727 22.0183L35.2568 23.7503L34.8339 23.9162L34.9585 24.353C35.4505 26.0772 34.3114 27.7042 32.8134 29.0018C32.0856 29.6322 31.3186 30.1436 30.7306 30.4983C30.4374 30.6752 30.1907 30.812 30.0182 30.904C29.9321 30.95 29.8646 30.9848 29.8193 31.0077C29.7966 31.0192 29.7795 31.0277 29.7684 31.0332L29.7563 31.0392L29.7537 31.0404L29.7535 31.0405L29.7533 31.0406L29.7533 31.0406L29.7039 31.0645L29.6608 31.0987C28.1824 32.269 27.1167 32.1802 26.4493 31.9017C26.0945 31.7536 25.818 31.5373 25.6286 31.3542C25.5346 31.2633 25.4644 31.183 25.4191 31.1273C25.3965 31.0995 25.3803 31.0781 25.3706 31.065L25.3615 31.0524L25.3616 31.0524L25.3548 31.0429C23.5756 28.5323 22.0741 27.6673 20.9157 27.5232C20.3369 27.4512 19.8771 27.5647 19.5559 27.7048C19.3967 27.7743 19.2728 27.8498 19.1856 27.9107C19.1438 27.9399 19.1103 27.9659 19.0849 27.9867L11.551 32.357L9.55549 29.0792L15.6025 24.3671L15.8798 24.1511L15.7703 23.8171C15.3207 22.4447 15.8294 21.436 16.4879 20.7309C16.8213 20.3738 17.1882 20.1028 17.4748 19.9204C17.6173 19.8297 17.7376 19.7624 17.8207 19.7184C17.8622 19.6965 17.8942 19.6805 17.9149 19.6704L17.9341 19.6612L28.9225 15.2325C30.0927 15.0567 31.4495 15.6952 32.5983 16.4887C33.1648 16.8799 33.6497 17.287 33.9934 17.597C34.1649 17.7517 34.3003 17.8813 34.3921 17.9715C34.438 18.0165 34.4729 18.0517 34.4959 18.0752L34.5214 18.1013L34.5272 18.1074L34.5283 18.1085L34.5284 18.1085L34.5284 18.1086L34.5285 18.1087L34.7171 18.3071L34.9861 18.2548L38.6005 17.5521C39.2066 18.4329 39.4839 19.5464 39.6004 20.5074C39.6632 21.0255 39.6774 21.4836 39.6759 21.8116Z" fill="#00A0F3" stroke="#00A0F3"/>
<path d="M10.1906 33.3838L7.72308 29.21L8.72284 28.5098L11.1904 32.6836L10.1906 33.3838Z" fill="#00A0F3" stroke="#00A0F3"/>
<line x1="11.0991" y1="2.90625" x2="11.0991" y2="21.0238" stroke="#00A0F3" stroke-width="2" stroke-linecap="round"/>
<line x1="18.2078" y1="2.90625" x2="18.2078" y2="14.8338" stroke="#00A0F3" stroke-width="2" stroke-linecap="round"/>
<line x1="25.3167" y1="2.90625" x2="25.3167" y2="11.7388" stroke="#00A0F3" stroke-width="2" stroke-linecap="round"/>
<line x1="32.4253" y1="4.45312" x2="32.4253" y2="11.7381" stroke="#00A0F3" stroke-width="2" stroke-linecap="round"/>
</svg>
