<svg width="49" height="47" viewBox="0 0 49 47" fill="none" xmlns="http://www.w3.org/2000/svg">
<path d="M45.7535 46.9996H8.02793C7.84273 46.9993 7.66518 46.9257 7.53422 46.7947C7.40326 46.6637 7.32959 46.4862 7.32935 46.301V36.9427C7.32959 36.7575 7.40326 36.58 7.53422 36.449C7.66518 36.3181 7.84273 36.2444 8.02793 36.2441H45.7535C45.9387 36.2444 46.1163 36.3181 46.2472 36.449C46.3782 36.58 46.4519 36.7575 46.4521 36.9427V46.3009C46.4519 46.4861 46.3782 46.6637 46.2473 46.7947C46.1163 46.9256 45.9388 46.9993 45.7535 46.9996ZM8.02793 36.523C7.91694 36.5233 7.81055 36.5675 7.73207 36.646C7.65358 36.7244 7.60939 36.8308 7.60915 36.9418V46.2999C7.60939 46.4109 7.65358 46.5173 7.73207 46.5958C7.81055 46.6743 7.91694 46.7185 8.02793 46.7187H45.7535C45.8645 46.7185 45.9709 46.6743 46.0494 46.5959C46.1279 46.5174 46.1721 46.411 46.1723 46.2999V36.9427C46.1721 36.8317 46.1279 36.7253 46.0494 36.6468C45.9709 36.5683 45.8645 36.5241 45.7535 36.5239L8.02793 36.523Z" fill="#00A0F3"/>
<path d="M13.8875 44.5041C15.4592 44.5041 16.7333 43.23 16.7333 41.6583C16.7333 40.0866 15.4592 38.8125 13.8875 38.8125C12.3158 38.8125 11.0417 40.0866 11.0417 41.6583C11.0417 43.23 12.3158 44.5041 13.8875 44.5041Z" fill="#00A0F3"/>
<path d="M20.4623 39.8594C20.3365 39.8594 20.2159 39.9093 20.1269 39.9983C20.038 40.0872 19.988 40.2079 19.988 40.3337C19.988 40.4594 20.038 40.5801 20.1269 40.669C20.2159 40.758 20.3365 40.8079 20.4623 40.8079H42.8223C42.9481 40.8079 43.0687 40.758 43.1577 40.669C43.2466 40.5801 43.2966 40.4594 43.2966 40.3337C43.2966 40.2079 43.2466 40.0872 43.1577 39.9983C43.0687 39.9093 42.9481 39.8594 42.8223 39.8594H20.4623Z" fill="#00A0F3"/>
<path d="M20.4623 42.7051C20.3365 42.7051 20.2159 42.755 20.1269 42.844C20.038 42.9329 19.988 43.0536 19.988 43.1793C19.988 43.3051 20.038 43.4258 20.1269 43.5147C20.2159 43.6037 20.3365 43.6536 20.4623 43.6536H30.0839C30.2097 43.6536 30.3303 43.6037 30.4193 43.5147C30.5082 43.4258 30.5582 43.3051 30.5582 43.1793C30.5582 43.0536 30.5082 42.9329 30.4193 42.844C30.3303 42.755 30.2097 42.7051 30.0839 42.7051H20.4623Z" fill="#00A0F3"/>
<path d="M38.4242 33.6578H0.698588C0.513385 33.6575 0.335834 33.5838 0.204876 33.4529C0.0739186 33.3219 0.000242389 33.1444 0 32.9592V0.698586C0.000242389 0.513384 0.0739186 0.335836 0.204876 0.204878C0.335834 0.0739206 0.513385 0.000242389 0.698588 0H38.4242C38.6094 0.000242389 38.7869 0.0739206 38.9179 0.204878C39.0489 0.335836 39.1225 0.513384 39.1228 0.698586V32.959C39.1226 33.1443 39.0489 33.3218 38.9179 33.4528C38.787 33.5838 38.6094 33.6576 38.4242 33.6578Z" fill="#00A0F3"/>
<path d="M6.56013 8.51968C8.13181 8.51968 9.40591 7.24558 9.40591 5.6739C9.40591 4.10222 8.13181 2.82812 6.56013 2.82812C4.98845 2.82812 3.71436 4.10222 3.71436 5.6739C3.71436 7.24558 4.98845 8.51968 6.56013 8.51968Z" fill="#F6F9FF"/>
<path d="M13.133 3.77539C13.0072 3.77539 12.8865 3.82536 12.7976 3.9143C12.7087 4.00325 12.6587 4.12388 12.6587 4.24966C12.6587 4.37545 12.7087 4.49608 12.7976 4.58503C12.8865 4.67397 13.0072 4.72394 13.133 4.72394H35.4929C35.6187 4.72394 35.7394 4.67397 35.8283 4.58503C35.9172 4.49608 35.9672 4.37545 35.9672 4.24966C35.9672 4.12388 35.9172 4.00325 35.8283 3.9143C35.7394 3.82536 35.6187 3.77539 35.4929 3.77539H13.133Z" fill="#F6F9FF"/>
<path d="M13.133 6.62109C13.0072 6.62109 12.8865 6.67106 12.7976 6.76001C12.7087 6.84895 12.6587 6.96958 12.6587 7.09537C12.6587 7.22115 12.7087 7.34179 12.7976 7.43073C12.8865 7.51967 13.0072 7.56964 13.133 7.56964H22.7546C22.8803 7.56964 23.001 7.51967 23.0899 7.43073C23.1789 7.34179 23.2288 7.22115 23.2288 7.09537C23.2288 6.96958 23.1789 6.84895 23.0899 6.76001C23.001 6.67106 22.8803 6.62109 22.7546 6.62109H13.133Z" fill="#F6F9FF"/>
<path d="M47.387 29.4727H9.66123C9.47602 29.4725 9.29846 29.3988 9.16749 29.2679C9.03653 29.1369 8.96285 28.9593 8.96265 28.7741V12.2181C8.96285 12.0329 9.03653 11.8553 9.16749 11.7244C9.29846 11.5934 9.47602 11.5197 9.66123 11.5195H47.387C47.5722 11.5197 47.7497 11.5934 47.8807 11.7244C48.0117 11.8553 48.0853 12.0329 48.0856 12.2181V28.7741C48.0853 28.9593 48.0117 29.1369 47.8807 29.2679C47.7497 29.3988 47.5722 29.4725 47.387 29.4727Z" fill="#346A97"/>
<path d="M47.387 29.4727H9.66123C9.47602 29.4725 9.29846 29.3988 9.16749 29.2679C9.03653 29.1369 8.96285 28.9593 8.96265 28.7741V12.2181C8.96285 12.0329 9.03653 11.8553 9.16749 11.7244C9.29846 11.5934 9.47602 11.5197 9.66123 11.5195H47.387C47.5722 11.5197 47.7497 11.5934 47.8807 11.7244C48.0117 11.8553 48.0853 12.0329 48.0856 12.2181V28.7741C48.0853 28.9593 48.0117 29.1369 47.8807 29.2679C47.7497 29.3988 47.5722 29.4725 47.387 29.4727Z" fill="black" fill-opacity="0.2"/>
<path d="M17.3446 17.291C17.2188 17.291 17.0982 17.341 17.0093 17.4299C16.9203 17.5189 16.8704 17.6395 16.8704 17.7653C16.8704 17.8911 16.9203 18.0117 17.0093 18.1007C17.0982 18.1896 17.2188 18.2396 17.3446 18.2396H39.7047C39.8305 18.2396 39.9512 18.1896 40.0401 18.1007C40.1291 18.0117 40.179 17.8911 40.179 17.7653C40.179 17.6395 40.1291 17.5189 40.0401 17.4299C39.9512 17.341 39.8305 17.291 39.7047 17.291H17.3446Z" fill="#F6F9FF"/>
<path d="M17.3446 20.0391C17.2188 20.0391 17.0982 20.089 17.0093 20.178C16.9203 20.2669 16.8704 20.3876 16.8704 20.5133C16.8704 20.6391 16.9203 20.7598 17.0093 20.8487C17.0982 20.9376 17.2188 20.9876 17.3446 20.9876H39.7047C39.8305 20.9876 39.9512 20.9376 40.0401 20.8487C40.1291 20.7598 40.179 20.6391 40.179 20.5133C40.179 20.3876 40.1291 20.2669 40.0401 20.178C39.9512 20.089 39.8305 20.0391 39.7047 20.0391H17.3446Z" fill="#F6F9FF"/>
<path d="M17.3446 22.7539C17.2188 22.7539 17.0982 22.8039 17.0093 22.8928C16.9203 22.9818 16.8704 23.1024 16.8704 23.2282C16.8704 23.354 16.9203 23.4746 17.0093 23.5635C17.0982 23.6525 17.2188 23.7025 17.3446 23.7025H26.9662C27.092 23.7025 27.2126 23.6525 27.3016 23.5635C27.3905 23.4746 27.4405 23.354 27.4405 23.2282C27.4405 23.1024 27.3905 22.9818 27.3016 22.8928C27.2126 22.8039 27.092 22.7539 26.9662 22.7539H17.3446Z" fill="#F6F9FF"/>
</svg>
