<svg width="38" height="39" viewBox="0 0 38 39" fill="none" xmlns="http://www.w3.org/2000/svg">
<path d="M29.6808 15.5523C29.7061 12.4557 29.8321 9.32915 30.059 6.17267C30.0627 6.11001 30.0674 6.04828 30.0721 5.98562C30.1919 4.34238 30.3385 2.69322 30.512 1.03813V1.02878C30.5118 0.755979 30.4033 0.494401 30.2102 0.301503C30.0172 0.108605 29.7554 0.00016279 29.4824 0H1.87085C1.59876 0.00053418 1.3379 0.108454 1.14507 0.300261C0.952231 0.492069 0.843041 0.752231 0.841267 1.0241C0.601655 3.30331 0.413832 5.5713 0.277802 7.82807C0.272187 7.90195 0.268444 7.9749 0.2647 8.04879C0.197309 9.16455 0.143646 10.2775 0.103711 11.3876C0.100903 11.4531 0.0980941 11.5186 0.0971582 11.584C-0.158383 18.3955 0.0903321 25.2165 0.841267 31.9913C0.843235 32.263 0.952518 32.5229 1.14534 32.7146C1.33816 32.9062 1.59891 33.014 1.87085 33.0144H29.4824C29.7554 33.0143 30.0172 32.9058 30.2102 32.7129C30.4033 32.52 30.5118 32.2585 30.512 31.9857V31.9754C30.3763 30.7717 30.2571 29.5602 30.1544 28.341C30.1395 28.1623 30.1248 27.9837 30.1104 27.8051C30.0393 26.9269 29.9772 26.0452 29.9242 25.1602C29.9129 24.9815 29.9027 24.8029 29.8933 24.6243C29.7931 22.8529 29.7276 21.0678 29.6967 19.269C29.693 19.0904 29.6902 18.9127 29.6874 18.7331C29.6761 17.8549 29.6727 16.9733 29.6771 16.0882C29.6771 15.9096 29.678 15.731 29.6808 15.5523Z" fill="#346A97"/>
<path d="M29.6808 15.5523C29.7061 12.4557 29.8321 9.32915 30.059 6.17267C30.0627 6.11001 30.0674 6.04828 30.0721 5.98562C30.1919 4.34238 30.3385 2.69322 30.512 1.03813V1.02878C30.5118 0.755979 30.4033 0.494401 30.2102 0.301503C30.0172 0.108605 29.7554 0.00016279 29.4824 0H1.87085C1.59876 0.00053418 1.3379 0.108454 1.14507 0.300261C0.952231 0.492069 0.843041 0.752231 0.841267 1.0241C0.601655 3.30331 0.413832 5.5713 0.277802 7.82807C0.272187 7.90195 0.268444 7.9749 0.2647 8.04879C0.197309 9.16455 0.143646 10.2775 0.103711 11.3876C0.100903 11.4531 0.0980941 11.5186 0.0971582 11.584C-0.158383 18.3955 0.0903321 25.2165 0.841267 31.9913C0.843235 32.263 0.952518 32.5229 1.14534 32.7146C1.33816 32.9062 1.59891 33.014 1.87085 33.0144H29.4824C29.7554 33.0143 30.0172 32.9058 30.2102 32.7129C30.4033 32.52 30.5118 32.2585 30.512 31.9857V31.9754C30.3763 30.7717 30.2571 29.5602 30.1544 28.341C30.1395 28.1623 30.1248 27.9837 30.1104 27.8051C30.0393 26.9269 29.9772 26.0452 29.9242 25.1602C29.9129 24.9815 29.9027 24.8029 29.8933 24.6243C29.7931 22.8529 29.7276 21.0678 29.6967 19.269C29.693 19.0904 29.6902 18.9127 29.6874 18.7331C29.6761 17.8549 29.6727 16.9733 29.6771 16.0882C29.6771 15.9096 29.678 15.731 29.6808 15.5523Z" fill="black" fill-opacity="0.2"/>
<path d="M38 7.01511C37.9998 6.74231 37.8913 6.48073 37.6982 6.28783C37.5052 6.09493 37.2434 5.98649 36.9704 5.98633H9.35884C9.08676 5.98686 8.82589 6.09478 8.63306 6.28659C8.44022 6.4784 8.33104 6.73856 8.32926 7.01043C7.39702 15.8925 7.24258 24.6175 7.86688 33.0151C7.9427 34.0542 8.03131 35.088 8.1327 36.1164C8.18699 36.6673 8.24471 37.2166 8.30586 37.7644C8.31335 37.8354 8.32084 37.9065 8.32926 37.9776C8.33123 38.2493 8.44051 38.5093 8.63333 38.7009C8.82615 38.8925 9.0869 39.0003 9.35884 39.0008H36.9704C37.2434 39.0006 37.5052 38.8922 37.6982 38.6993C37.8913 38.5064 37.9998 38.2448 38 37.972V37.9617C36.8833 28.0695 36.8833 17.6611 38 7.02446V7.01511Z" fill="#00A0F3"/>
<path d="M38 7.01511C37.9998 6.74231 37.8913 6.48073 37.6982 6.28783C37.5052 6.09493 37.2434 5.98649 36.9704 5.98633H9.35884C9.08676 5.98686 8.82589 6.09478 8.63306 6.28659C8.44022 6.4784 8.33104 6.73856 8.32926 7.01043C7.39702 15.8925 7.24258 24.6175 7.86688 33.0151C7.9427 34.0542 8.03131 35.088 8.1327 36.1164C8.18699 36.6673 8.24471 37.2166 8.30586 37.7644C8.31335 37.8354 8.32084 37.9065 8.32926 37.9776C8.33123 38.2493 8.44051 38.5093 8.63333 38.7009C8.82615 38.8925 9.0869 39.0003 9.35884 39.0008H36.9704C37.2434 39.0006 37.5052 38.8922 37.6982 38.6993C37.8913 38.5064 37.9998 38.2448 38 37.972V37.9617C36.8833 28.0695 36.8833 17.6611 38 7.02446V7.01511ZM37.8128 37.9776C37.8111 38.1998 37.7216 38.4124 37.5639 38.569C37.4061 38.7256 37.1928 38.8135 36.9704 38.8137H9.35884C9.13553 38.8134 8.92146 38.7246 8.76356 38.5668C8.60565 38.409 8.51679 38.1951 8.51646 37.972V37.9617C8.50991 37.9018 8.50335 37.841 8.4968 37.7812C8.43222 37.2088 8.372 36.6349 8.31616 36.0594C8.21788 35.0503 8.13083 34.0355 8.05502 33.0151C7.43072 24.6222 7.58422 15.9028 8.51646 7.02446V7.01511C8.51679 6.79197 8.60565 6.57807 8.76356 6.42029C8.92146 6.2625 9.13553 6.17371 9.35884 6.17338H36.9704C37.193 6.17345 37.4065 6.26151 37.5643 6.41834C37.7221 6.57517 37.8115 6.78802 37.8128 7.01043C36.6961 17.6555 36.6961 28.0751 37.8128 37.9776Z" fill="#346A97"/>
<path d="M38 7.01511C37.9998 6.74231 37.8913 6.48073 37.6982 6.28783C37.5052 6.09493 37.2434 5.98649 36.9704 5.98633H9.35884C9.08676 5.98686 8.82589 6.09478 8.63306 6.28659C8.44022 6.4784 8.33104 6.73856 8.32926 7.01043C7.39702 15.8925 7.24258 24.6175 7.86688 33.0151C7.9427 34.0542 8.03131 35.088 8.1327 36.1164C8.18699 36.6673 8.24471 37.2166 8.30586 37.7644C8.31335 37.8354 8.32084 37.9065 8.32926 37.9776C8.33123 38.2493 8.44051 38.5093 8.63333 38.7009C8.82615 38.8925 9.0869 39.0003 9.35884 39.0008H36.9704C37.2434 39.0006 37.5052 38.8922 37.6982 38.6993C37.8913 38.5064 37.9998 38.2448 38 37.972V37.9617C36.8833 28.0695 36.8833 17.6611 38 7.02446V7.01511ZM37.8128 37.9776C37.8111 38.1998 37.7216 38.4124 37.5639 38.569C37.4061 38.7256 37.1928 38.8135 36.9704 38.8137H9.35884C9.13553 38.8134 8.92146 38.7246 8.76356 38.5668C8.60565 38.409 8.51679 38.1951 8.51646 37.972V37.9617C8.50991 37.9018 8.50335 37.841 8.4968 37.7812C8.43222 37.2088 8.372 36.6349 8.31616 36.0594C8.21788 35.0503 8.13083 34.0355 8.05502 33.0151C7.43072 24.6222 7.58422 15.9028 8.51646 7.02446V7.01511C8.51679 6.79197 8.60565 6.57807 8.76356 6.42029C8.92146 6.2625 9.13553 6.17371 9.35884 6.17338H36.9704C37.193 6.17345 37.4065 6.26151 37.5643 6.41834C37.7221 6.57517 37.8115 6.78802 37.8128 7.01043C36.6961 17.6555 36.6961 28.0751 37.8128 37.9776Z" fill="black" fill-opacity="0.2"/>
<path d="M11.2622 15.5527C11.1912 15.5529 11.1231 15.5812 11.073 15.6315C11.0228 15.6818 10.9946 15.7498 10.9946 15.8208C10.9946 15.8918 11.0228 15.9599 11.073 16.0101C11.1231 16.0604 11.1912 16.0887 11.2622 16.0889H33.7007C33.7717 16.0887 33.8398 16.0604 33.8899 16.0101C33.9401 15.9599 33.9682 15.8918 33.9682 15.8208C33.9682 15.7498 33.9401 15.6818 33.8899 15.6315C33.8398 15.5812 33.7717 15.5529 33.7007 15.5527H11.2622Z" fill="#F6F9FF"/>
<path d="M11.2624 17.1602C11.1913 17.1603 11.1232 17.1886 11.073 17.2389C11.0228 17.2891 10.9946 17.3572 10.9946 17.4282C10.9946 17.4992 11.0228 17.5674 11.073 17.6176C11.1232 17.6679 11.1913 17.6962 11.2624 17.6963H26.4951C26.5661 17.6962 26.6342 17.6679 26.6845 17.6176C26.7347 17.5674 26.7629 17.4992 26.7629 17.4282C26.7629 17.3572 26.7347 17.2891 26.6845 17.2389C26.6342 17.1886 26.5661 17.1603 26.4951 17.1602H11.2624Z" fill="#F6F9FF"/>
<path d="M11.2624 18.7324C11.1913 18.7326 11.1232 18.7609 11.073 18.8111C11.0228 18.8614 10.9946 18.9295 10.9946 19.0005C10.9946 19.0715 11.0228 19.1396 11.073 19.1899C11.1232 19.2401 11.1913 19.2684 11.2624 19.2686H33.7009C33.7719 19.2684 33.8401 19.2401 33.8903 19.1899C33.9405 19.1396 33.9687 19.0715 33.9687 19.0005C33.9687 18.9295 33.9405 18.8614 33.8903 18.8111C33.8401 18.7609 33.7719 18.7326 33.7009 18.7324H11.2624Z" fill="#F6F9FF"/>
<path d="M11.2622 20.3418C11.1912 20.342 11.1231 20.3703 11.073 20.4206C11.0228 20.4708 10.9946 20.5389 10.9946 20.6099C10.9946 20.6808 11.0228 20.7489 11.073 20.7992C11.1231 20.8494 11.1912 20.8778 11.2622 20.8779H26.4949C26.5659 20.8778 26.6339 20.8494 26.6841 20.7992C26.7343 20.7489 26.7624 20.6808 26.7624 20.6099C26.7624 20.5389 26.7343 20.4708 26.6841 20.4206C26.6339 20.3703 26.5659 20.342 26.4949 20.3418H11.2622Z" fill="#F6F9FF"/>
<path d="M11.2622 24.625C11.1912 24.6252 11.1231 24.6535 11.073 24.7038C11.0228 24.754 10.9946 24.8221 10.9946 24.8931C10.9946 24.964 11.0228 25.0321 11.073 25.0824C11.1231 25.1326 11.1912 25.161 11.2622 25.1611H33.7007C33.7717 25.161 33.8398 25.1326 33.8899 25.0824C33.9401 25.0321 33.9682 24.964 33.9682 24.8931C33.9682 24.8221 33.9401 24.754 33.8899 24.7038C33.8398 24.6535 33.7717 24.6252 33.7007 24.625H11.2622Z" fill="#F6F9FF"/>
<path d="M11.2624 26.2324C11.1913 26.2326 11.1232 26.2609 11.073 26.3111C11.0228 26.3614 10.9946 26.4295 10.9946 26.5005C10.9946 26.5715 11.0228 26.6396 11.073 26.6899C11.1232 26.7401 11.1913 26.7684 11.2624 26.7686H26.4951C26.5661 26.7684 26.6342 26.7401 26.6845 26.6899C26.7347 26.6396 26.7629 26.5715 26.7629 26.5005C26.7629 26.4295 26.7347 26.3614 26.6845 26.3111C26.6342 26.2609 26.5661 26.2326 26.4951 26.2324H11.2624Z" fill="#F6F9FF"/>
<path d="M11.2624 27.8047C11.1913 27.8048 11.1232 27.8331 11.073 27.8834C11.0228 27.9336 10.9946 28.0018 10.9946 28.0728C10.9946 28.1438 11.0228 28.2119 11.073 28.2621C11.1232 28.3124 11.1913 28.3407 11.2624 28.3408H33.7009C33.7719 28.3407 33.8401 28.3124 33.8903 28.2621C33.9405 28.2119 33.9687 28.1438 33.9687 28.0728C33.9687 28.0018 33.9405 27.9336 33.8903 27.8834C33.8401 27.8331 33.7719 27.8048 33.7009 27.8047H11.2624Z" fill="#F6F9FF"/>
<path d="M11.2622 29.4141C11.1912 29.4142 11.1231 29.4426 11.073 29.4928C11.0228 29.5431 10.9946 29.6112 10.9946 29.6821C10.9946 29.7531 11.0228 29.8212 11.073 29.8714C11.1231 29.9217 11.1912 29.95 11.2622 29.9502H26.4949C26.5659 29.95 26.6339 29.9217 26.6841 29.8714C26.7343 29.8212 26.7624 29.7531 26.7624 29.6821C26.7624 29.6112 26.7343 29.5431 26.6841 29.4928C26.6339 29.4426 26.5659 29.4142 26.4949 29.4141H11.2622Z" fill="#F6F9FF"/>
<path d="M30.5901 34.2944L29.2774 34.7279C29.0586 34.8002 28.8398 34.8724 28.621 34.9447C28.4184 35.0113 28.1991 35.0906 27.9822 35.062C27.8323 35.0421 27.6614 34.9559 27.6147 34.8018C27.5705 34.656 27.6642 34.5034 27.7776 34.4171C28.0909 34.179 28.487 34.4214 28.709 34.668C28.9805 34.9696 29.1341 35.359 29.3887 35.6748C29.6154 35.9579 29.9028 36.1866 30.2297 36.344C30.8794 36.6505 31.6718 36.6179 32.2513 36.1712C32.9433 35.6379 33.0139 34.7135 33.0175 33.907C33.0163 33.8706 33.0009 33.8362 32.9747 33.8109C32.9486 33.7856 32.9136 33.7715 32.8771 33.7715C32.8407 33.7715 32.8057 33.7856 32.7795 33.8109C32.7534 33.8362 32.738 33.8706 32.7367 33.907C32.7334 34.6379 32.6918 35.5339 32.0248 35.9913C31.3859 36.4294 30.5462 36.3132 29.958 35.8464C29.6303 35.5863 29.4286 35.2471 29.2134 34.8958C29.0033 34.553 28.7425 34.2206 28.3471 34.0872C28.1776 34.0257 27.992 34.0245 27.8217 34.0839C27.6513 34.1433 27.5068 34.2597 27.4124 34.4133C27.3693 34.4858 27.3422 34.5666 27.3328 34.6504C27.3234 34.7342 27.332 34.8191 27.358 34.8993C27.384 34.9795 27.4267 35.0533 27.4835 35.1157C27.5402 35.1781 27.6097 35.2277 27.6871 35.2612C28.1455 35.4795 28.6699 35.2237 29.1114 35.078L30.6648 34.565C30.8355 34.5086 30.7624 34.2376 30.5901 34.2944L30.5901 34.2944Z" fill="#F6F9FF"/>
<path d="M9.26302 0C9.11576 2.61562 8.15354 5.11974 6.51109 7.16173C4.86863 9.20371 2.62819 10.6813 0.103476 11.3876C0.100668 11.4531 0.0978598 11.5186 0.0969238 11.584C2.67394 10.8757 4.96319 9.37638 6.64145 7.29785C8.31972 5.21932 9.30221 2.66657 9.45022 0H9.26302Z" fill="#00A0F3"/>
<path d="M6.39677 0C5.9618 1.65135 5.19503 3.19697 4.14315 4.54275C3.09126 5.88854 1.77627 7.00633 0.278239 7.82807C0.272623 7.90195 0.268881 7.9749 0.265137 8.04879C1.81766 7.21517 3.18096 6.06988 4.26947 4.68479C5.35798 3.29971 6.1482 1.70474 6.59052 0H6.39677Z" fill="#00A0F3"/>
</svg>
