<svg width="16" height="20" viewBox="0 0 16 20" fill="none" xmlns="http://www.w3.org/2000/svg">
<path d="M13.625 2.5H10.5C10.5 1.12109 9.37891 0 8 0C6.62109 0 5.5 1.12109 5.5 2.5H2.375C1.33984 2.5 0.5 3.33984 0.5 4.375V18.125C0.5 19.1602 1.33984 20 2.375 20H13.625C14.6602 20 15.5 19.1602 15.5 18.125V4.375C15.5 3.33984 14.6602 2.5 13.625 2.5ZM4.25 16.5625C3.73047 16.5625 3.3125 16.1445 3.3125 15.625C3.3125 15.1055 3.73047 14.6875 4.25 14.6875C4.76953 14.6875 5.1875 15.1055 5.1875 15.625C5.1875 16.1445 4.76953 16.5625 4.25 16.5625ZM4.25 12.8125C3.73047 12.8125 3.3125 12.3945 3.3125 11.875C3.3125 11.3555 3.73047 10.9375 4.25 10.9375C4.76953 10.9375 5.1875 11.3555 5.1875 11.875C5.1875 12.3945 4.76953 12.8125 4.25 12.8125ZM4.25 9.0625C3.73047 9.0625 3.3125 8.64453 3.3125 8.125C3.3125 7.60547 3.73047 7.1875 4.25 7.1875C4.76953 7.1875 5.1875 7.60547 5.1875 8.125C5.1875 8.64453 4.76953 9.0625 4.25 9.0625ZM8 1.5625C8.51953 1.5625 8.9375 1.98047 8.9375 2.5C8.9375 3.01953 8.51953 3.4375 8 3.4375C7.48047 3.4375 7.0625 3.01953 7.0625 2.5C7.0625 1.98047 7.48047 1.5625 8 1.5625ZM13 15.9375C13 16.1094 12.8594 16.25 12.6875 16.25H7.0625C6.89062 16.25 6.75 16.1094 6.75 15.9375V15.3125C6.75 15.1406 6.89062 15 7.0625 15H12.6875C12.8594 15 13 15.1406 13 15.3125V15.9375ZM13 12.1875C13 12.3594 12.8594 12.5 12.6875 12.5H7.0625C6.89062 12.5 6.75 12.3594 6.75 12.1875V11.5625C6.75 11.3906 6.89062 11.25 7.0625 11.25H12.6875C12.8594 11.25 13 11.3906 13 11.5625V12.1875ZM13 8.4375C13 8.60938 12.8594 8.75 12.6875 8.75H7.0625C6.89062 8.75 6.75 8.60938 6.75 8.4375V7.8125C6.75 7.64062 6.89062 7.5 7.0625 7.5H12.6875C12.8594 7.5 13 7.64062 13 7.8125V8.4375Z" fill="#00A0F3"/>
</svg>
