<svg width="24" height="25" viewBox="0 0 24 25" fill="none" xmlns="http://www.w3.org/2000/svg">
<path d="M17.625 4.85547H14.5C14.5 3.47656 13.3789 2.35547 12 2.35547C10.6211 2.35547 9.5 3.47656 9.5 4.85547H6.375C5.33984 4.85547 4.5 5.69531 4.5 6.73047V20.4805C4.5 21.5156 5.33984 22.3555 6.375 22.3555H17.625C18.6602 22.3555 19.5 21.5156 19.5 20.4805V6.73047C19.5 5.69531 18.6602 4.85547 17.625 4.85547ZM8.25 18.918C7.73047 18.918 7.3125 18.5 7.3125 17.9805C7.3125 17.4609 7.73047 17.043 8.25 17.043C8.76953 17.043 9.1875 17.4609 9.1875 17.9805C9.1875 18.5 8.76953 18.918 8.25 18.918ZM8.25 15.168C7.73047 15.168 7.3125 14.75 7.3125 14.2305C7.3125 13.7109 7.73047 13.293 8.25 13.293C8.76953 13.293 9.1875 13.7109 9.1875 14.2305C9.1875 14.75 8.76953 15.168 8.25 15.168ZM8.25 11.418C7.73047 11.418 7.3125 11 7.3125 10.4805C7.3125 9.96094 7.73047 9.54297 8.25 9.54297C8.76953 9.54297 9.1875 9.96094 9.1875 10.4805C9.1875 11 8.76953 11.418 8.25 11.418ZM12 3.91797C12.5195 3.91797 12.9375 4.33594 12.9375 4.85547C12.9375 5.375 12.5195 5.79297 12 5.79297C11.4805 5.79297 11.0625 5.375 11.0625 4.85547C11.0625 4.33594 11.4805 3.91797 12 3.91797ZM17 18.293C17 18.4648 16.8594 18.6055 16.6875 18.6055H11.0625C10.8906 18.6055 10.75 18.4648 10.75 18.293V17.668C10.75 17.4961 10.8906 17.3555 11.0625 17.3555H16.6875C16.8594 17.3555 17 17.4961 17 17.668V18.293ZM17 14.543C17 14.7148 16.8594 14.8555 16.6875 14.8555H11.0625C10.8906 14.8555 10.75 14.7148 10.75 14.543V13.918C10.75 13.7461 10.8906 13.6055 11.0625 13.6055H16.6875C16.8594 13.6055 17 13.7461 17 13.918V14.543ZM17 10.793C17 10.9648 16.8594 11.1055 16.6875 11.1055H11.0625C10.8906 11.1055 10.75 10.9648 10.75 10.793V10.168C10.75 9.99609 10.8906 9.85547 11.0625 9.85547H16.6875C16.8594 9.85547 17 9.99609 17 10.168V10.793Z" fill="#F6F9FF"/>
</svg>
