<svg width="358" height="217" viewBox="0 0 358 217" fill="none" xmlns="http://www.w3.org/2000/svg">
<g clip-path="url(#clip0_2258_14099)">
<rect width="358" height="216.837" rx="8" fill="#00A0F3"/>
<path opacity="0.2" d="M646.834 -109.03C636.698 -109.939 166.789 -162.614 28.7541 144.313" stroke="#3C4856" stroke-width="87"/>
<path d="M595.081 -104.562C584.945 -105.47 115.037 -158.146 -22.9984 148.782" stroke="#00BDF7" stroke-width="87"/>
<path d="M23.0087 57.8711C23.554 57.8711 47.2093 57.8711 47.2093 57.8711C51.5173 57.8711 54.9515 56.5904 57.5119 54.029C60.0723 51.427 61.3525 47.7476 61.3525 42.9907C61.3525 41.5271 61.2103 40.0634 60.9258 38.5998C60.682 37.0955 60.4805 37.2581 60.4805 37.2581H50.6841C50.6841 37.2581 50.9009 38.5591 50.928 39.4908C50.9427 39.999 50.928 40.653 50.928 41.2222C50.928 42.1979 50.6232 42.9907 50.0135 43.6006C49.4039 44.2104 48.4285 44.5153 47.0873 44.5153H45.5023H39.8635C39.8635 44.5153 23.808 44.5153 23.0087 44.5153C22.2094 44.5153 22.4634 57.8711 23.0087 57.8711Z" fill="#F6F9FF"/>
<circle cx="3.14137" cy="3.14137" r="3.14137" transform="matrix(0 -1 -1 0 48.3691 42.0781)" fill="#F6F9FF"/>
<path d="M69.9139 19.9988C69.284 19.9988 43.3022 19.9988 43.3022 19.9988C38.9941 19.9988 35.5599 21.2795 32.9995 23.8409C30.4391 26.4429 29.1588 30.1223 29.1588 34.8792C29.1588 36.3428 29.3011 37.8065 29.5856 39.2701C29.8294 40.7744 30.555 40.8359 30.555 40.8359H40.4979C40.4979 40.8359 40.3027 39.4881 40.2033 38.2943C40.1186 37.2779 40.1186 36.9154 40.1186 36.3462C40.1186 35.3704 39.8883 34.8792 40.4979 34.2693C41.1075 33.6595 42.0829 33.3545 43.4241 33.3545H45.0091L50.7238 33.3545C50.7238 33.3545 69.4872 33.3545 70.1171 33.3545C70.747 33.3545 70.5438 19.9988 69.9139 19.9988Z" fill="#F6F9FF"/>
<path d="M39.8633 36.1133C40.0001 34.4986 40.3647 34.0491 41.9323 33.5239L31.6511 25.4857L31.2419 26.0995L30.8699 26.7691L30.2375 28.1455L39.8633 36.1133Z" fill="#F6F9FF"/>
<path d="M23.816 76.0631C23.112 76.0631 22.432 75.9831 21.776 75.8231C21.12 75.6631 20.58 75.4551 20.156 75.1991L21.068 73.1351C21.468 73.3671 21.912 73.5551 22.4 73.6991C22.896 73.8351 23.376 73.9031 23.84 73.9031C24.112 73.9031 24.324 73.8871 24.476 73.8551C24.636 73.8151 24.752 73.7631 24.824 73.6991C24.896 73.6271 24.932 73.5431 24.932 73.4471C24.932 73.2951 24.848 73.1751 24.68 73.0871C24.512 72.9991 24.288 72.9271 24.008 72.8711C23.736 72.8071 23.436 72.7431 23.108 72.6791C22.78 72.6071 22.448 72.5151 22.112 72.4031C21.784 72.2911 21.48 72.1431 21.2 71.9591C20.928 71.7751 20.708 71.5351 20.54 71.2391C20.372 70.9351 20.288 70.5591 20.288 70.1111C20.288 69.5911 20.432 69.1191 20.72 68.6951C21.016 68.2631 21.452 67.9191 22.028 67.6631C22.612 67.4071 23.336 67.2791 24.2 67.2791C24.768 67.2791 25.328 67.3391 25.88 67.4591C26.432 67.5791 26.928 67.7631 27.368 68.0111L26.516 70.0631C26.1 69.8551 25.696 69.6991 25.304 69.5951C24.92 69.4911 24.544 69.4391 24.176 69.4391C23.904 69.4391 23.688 69.4631 23.528 69.5111C23.368 69.5591 23.252 69.6231 23.18 69.7031C23.116 69.7831 23.084 69.8711 23.084 69.9671C23.084 70.1111 23.168 70.2271 23.336 70.3151C23.504 70.3951 23.724 70.4631 23.996 70.5191C24.276 70.5751 24.58 70.6351 24.908 70.6991C25.244 70.7631 25.576 70.8511 25.904 70.9631C26.232 71.0751 26.532 71.2231 26.804 71.4071C27.084 71.5911 27.308 71.8311 27.476 72.1271C27.644 72.4231 27.728 72.7911 27.728 73.2311C27.728 73.7431 27.58 74.2151 27.284 74.6471C26.996 75.0711 26.564 75.4151 25.988 75.6791C25.412 75.9351 24.688 76.0631 23.816 76.0631ZM30.3707 75.8711V67.4711H33.2027V75.8711H30.3707ZM36.366 75.8711V67.4711H38.694L42.054 72.9551H40.83L44.094 67.4711H46.422L46.446 75.8711H43.866L43.842 71.3591H44.25L42.018 75.1151H40.77L38.442 71.3591H38.946V75.8711H36.366ZM49.6152 75.8711V67.4711H52.4472V75.8711H49.6152ZM57.4346 75.8711V69.6671H54.9746V67.4711H62.7266V69.6671H60.2666V75.8711H57.4346ZM68.3941 76.0631C67.6901 76.0631 67.0101 75.9831 66.3541 75.8231C65.6981 75.6631 65.1581 75.4551 64.7341 75.1991L65.6461 73.1351C66.0461 73.3671 66.4901 73.5551 66.9781 73.6991C67.4741 73.8351 67.9541 73.9031 68.4181 73.9031C68.6901 73.9031 68.9021 73.8871 69.0541 73.8551C69.2141 73.8151 69.3301 73.7631 69.4021 73.6991C69.4741 73.6271 69.5101 73.5431 69.5101 73.4471C69.5101 73.2951 69.4261 73.1751 69.2581 73.0871C69.0901 72.9991 68.8661 72.9271 68.5861 72.8711C68.3141 72.8071 68.0141 72.7431 67.6861 72.6791C67.3581 72.6071 67.0261 72.5151 66.6901 72.4031C66.3621 72.2911 66.0581 72.1431 65.7781 71.9591C65.5061 71.7751 65.2861 71.5351 65.1181 71.2391C64.9501 70.9351 64.8661 70.5591 64.8661 70.1111C64.8661 69.5911 65.0101 69.1191 65.2981 68.6951C65.5941 68.2631 66.0301 67.9191 66.6061 67.6631C67.1901 67.4071 67.9141 67.2791 68.7781 67.2791C69.3461 67.2791 69.9061 67.3391 70.4581 67.4591C71.0101 67.5791 71.5061 67.7631 71.9461 68.0111L71.0941 70.0631C70.6781 69.8551 70.2741 69.6991 69.8821 69.5951C69.4981 69.4911 69.1221 69.4391 68.7541 69.4391C68.4821 69.4391 68.2661 69.4631 68.1061 69.5111C67.9461 69.5591 67.8301 69.6231 67.7581 69.7031C67.6941 69.7831 67.6621 69.8711 67.6621 69.9671C67.6621 70.1111 67.7461 70.2271 67.9141 70.3151C68.0821 70.3951 68.3021 70.4631 68.5741 70.5191C68.8541 70.5751 69.1581 70.6351 69.4861 70.6991C69.8221 70.7631 70.1541 70.8511 70.4821 70.9631C70.8101 71.0751 71.1101 71.2231 71.3821 71.4071C71.6621 71.5911 71.8861 71.8311 72.0541 72.1271C72.2221 72.4231 72.3061 72.7911 72.3061 73.2311C72.3061 73.7431 72.1581 74.2151 71.8621 74.6471C71.5741 75.0711 71.1421 75.4151 70.5661 75.6791C69.9901 75.9351 69.2661 76.0631 68.3941 76.0631Z" fill="#F6F9FF"/>
<path opacity="0.2" d="M-250.166 440.379C-239.997 440.02 232.816 433.882 331.632 112.178" stroke="#3C4856" stroke-width="87"/>
<path d="M-188.205 438.199C-178.035 437.841 294.777 431.702 393.593 109.998" stroke="#00BDF7" stroke-width="87"/>
<path d="M276.343 35.098C275.662 35.098 275.046 34.9813 274.495 34.748C273.954 34.5147 273.524 34.1787 273.207 33.74C272.89 33.3013 272.726 32.7833 272.717 32.186H274.817C274.845 32.5873 274.985 32.9047 275.237 33.138C275.498 33.3713 275.853 33.488 276.301 33.488C276.758 33.488 277.118 33.3807 277.379 33.166C277.64 32.942 277.771 32.6527 277.771 32.298C277.771 32.0087 277.682 31.7707 277.505 31.584C277.328 31.3973 277.104 31.2527 276.833 31.15C276.572 31.038 276.208 30.9167 275.741 30.786C275.106 30.5993 274.588 30.4173 274.187 30.24C273.795 30.0533 273.454 29.778 273.165 29.414C272.885 29.0407 272.745 28.546 272.745 27.93C272.745 27.3513 272.89 26.8473 273.179 26.418C273.468 25.9887 273.874 25.662 274.397 25.438C274.92 25.2047 275.517 25.088 276.189 25.088C277.197 25.088 278.014 25.3353 278.639 25.83C279.274 26.3153 279.624 26.9967 279.689 27.874H277.533C277.514 27.538 277.37 27.2627 277.099 27.048C276.838 26.824 276.488 26.712 276.049 26.712C275.666 26.712 275.358 26.81 275.125 27.006C274.901 27.202 274.789 27.4867 274.789 27.86C274.789 28.1213 274.873 28.3407 275.041 28.518C275.218 28.686 275.433 28.826 275.685 28.938C275.946 29.0407 276.31 29.162 276.777 29.302C277.412 29.4887 277.93 29.6753 278.331 29.862C278.732 30.0487 279.078 30.3287 279.367 30.702C279.656 31.0753 279.801 31.5653 279.801 32.172C279.801 32.6947 279.666 33.18 279.395 33.628C279.124 34.076 278.728 34.4353 278.205 34.706C277.682 34.9673 277.062 35.098 276.343 35.098ZM283.46 25.228V35H281.5V25.228H283.46ZM299.387 25.228V35H297.427V28.644L294.809 35H293.325L290.693 28.644V35H288.733V25.228H290.959L294.067 32.494L297.175 25.228H299.387ZM305.86 35.098C304.946 35.098 304.106 34.8833 303.34 34.454C302.575 34.0247 301.968 33.432 301.52 32.676C301.072 31.9107 300.848 31.0473 300.848 30.086C300.848 29.134 301.072 28.28 301.52 27.524C301.968 26.7587 302.575 26.1613 303.34 25.732C304.106 25.3027 304.946 25.088 305.86 25.088C306.784 25.088 307.624 25.3027 308.38 25.732C309.146 26.1613 309.748 26.7587 310.186 27.524C310.634 28.28 310.858 29.134 310.858 30.086C310.858 31.0473 310.634 31.9107 310.186 32.676C309.748 33.432 309.146 34.0247 308.38 34.454C307.615 34.8833 306.775 35.098 305.86 35.098ZM305.86 33.348C306.448 33.348 306.966 33.2173 307.414 32.956C307.862 32.6853 308.212 32.3027 308.464 31.808C308.716 31.3133 308.842 30.7393 308.842 30.086C308.842 29.4327 308.716 28.8633 308.464 28.378C308.212 27.8833 307.862 27.5053 307.414 27.244C306.966 26.9827 306.448 26.852 305.86 26.852C305.272 26.852 304.75 26.9827 304.292 27.244C303.844 27.5053 303.494 27.8833 303.242 28.378C302.99 28.8633 302.864 29.4327 302.864 30.086C302.864 30.7393 302.99 31.3133 303.242 31.808C303.494 32.3027 303.844 32.6853 304.292 32.956C304.75 33.2173 305.272 33.348 305.86 33.348ZM320.675 35H318.715L314.277 28.294V35H312.317V25.214H314.277L318.715 31.934V25.214H320.675V35ZM324.572 26.81V29.26H327.862V30.814H324.572V33.404H328.282V35H322.612V25.214H328.282V26.81H324.572ZM337.833 25.228L334.529 31.598V35H332.569V31.598L329.251 25.228H331.463L333.563 29.694L335.649 25.228H337.833Z" fill="white"/>
</g>
<defs>
<clipPath id="clip0_2258_14099">
<rect width="358" height="216.837" rx="8" fill="white"/>
</clipPath>
</defs>
</svg>
