<svg width="358" height="217" viewBox="0 0 358 217" fill="none" xmlns="http://www.w3.org/2000/svg">
<g clip-path="url(#clip0_2530_14198)">
<rect width="358" height="216.837" rx="8" fill="#00A0F3"/>
<path opacity="0.2" d="M646.833 -109.03C636.697 -109.939 166.788 -162.614 28.7531 144.313" stroke="#3C4856" stroke-width="87"/>
<path d="M595.079 -104.562C584.943 -105.47 115.034 -158.146 -23.0008 148.782" stroke="#00BDF7" stroke-width="87"/>
<path opacity="0.2" d="M-250.165 440.379C-239.995 440.02 232.817 433.882 331.634 112.178" stroke="#3C4856" stroke-width="87"/>
<path d="M-188.204 438.199C-178.034 437.841 294.778 431.702 393.595 109.998" stroke="#00BDF7" stroke-width="87"/>
<path d="M276.343 35.098C275.662 35.098 275.046 34.9813 274.495 34.748C273.954 34.5147 273.524 34.1787 273.207 33.74C272.89 33.3013 272.726 32.7833 272.717 32.186H274.817C274.845 32.5873 274.985 32.9047 275.237 33.138C275.498 33.3713 275.853 33.488 276.301 33.488C276.758 33.488 277.118 33.3807 277.379 33.166C277.64 32.942 277.771 32.6527 277.771 32.298C277.771 32.0087 277.682 31.7707 277.505 31.584C277.328 31.3973 277.104 31.2527 276.833 31.15C276.572 31.038 276.208 30.9167 275.741 30.786C275.106 30.5993 274.588 30.4173 274.187 30.24C273.795 30.0533 273.454 29.778 273.165 29.414C272.885 29.0407 272.745 28.546 272.745 27.93C272.745 27.3513 272.89 26.8473 273.179 26.418C273.468 25.9887 273.874 25.662 274.397 25.438C274.92 25.2047 275.517 25.088 276.189 25.088C277.197 25.088 278.014 25.3353 278.639 25.83C279.274 26.3153 279.624 26.9967 279.689 27.874H277.533C277.514 27.538 277.37 27.2627 277.099 27.048C276.838 26.824 276.488 26.712 276.049 26.712C275.666 26.712 275.358 26.81 275.125 27.006C274.901 27.202 274.789 27.4867 274.789 27.86C274.789 28.1213 274.873 28.3407 275.041 28.518C275.218 28.686 275.433 28.826 275.685 28.938C275.946 29.0407 276.31 29.162 276.777 29.302C277.412 29.4887 277.93 29.6753 278.331 29.862C278.732 30.0487 279.078 30.3287 279.367 30.702C279.656 31.0753 279.801 31.5653 279.801 32.172C279.801 32.6947 279.666 33.18 279.395 33.628C279.124 34.076 278.728 34.4353 278.205 34.706C277.682 34.9673 277.062 35.098 276.343 35.098ZM283.46 25.228V35H281.5V25.228H283.46ZM299.387 25.228V35H297.427V28.644L294.809 35H293.325L290.693 28.644V35H288.733V25.228H290.959L294.067 32.494L297.175 25.228H299.387ZM305.86 35.098C304.946 35.098 304.106 34.8833 303.34 34.454C302.575 34.0247 301.968 33.432 301.52 32.676C301.072 31.9107 300.848 31.0473 300.848 30.086C300.848 29.134 301.072 28.28 301.52 27.524C301.968 26.7587 302.575 26.1613 303.34 25.732C304.106 25.3027 304.946 25.088 305.86 25.088C306.784 25.088 307.624 25.3027 308.38 25.732C309.146 26.1613 309.748 26.7587 310.186 27.524C310.634 28.28 310.858 29.134 310.858 30.086C310.858 31.0473 310.634 31.9107 310.186 32.676C309.748 33.432 309.146 34.0247 308.38 34.454C307.615 34.8833 306.775 35.098 305.86 35.098ZM305.86 33.348C306.448 33.348 306.966 33.2173 307.414 32.956C307.862 32.6853 308.212 32.3027 308.464 31.808C308.716 31.3133 308.842 30.7393 308.842 30.086C308.842 29.4327 308.716 28.8633 308.464 28.378C308.212 27.8833 307.862 27.5053 307.414 27.244C306.966 26.9827 306.448 26.852 305.86 26.852C305.272 26.852 304.75 26.9827 304.292 27.244C303.844 27.5053 303.494 27.8833 303.242 28.378C302.99 28.8633 302.864 29.4327 302.864 30.086C302.864 30.7393 302.99 31.3133 303.242 31.808C303.494 32.3027 303.844 32.6853 304.292 32.956C304.75 33.2173 305.272 33.348 305.86 33.348ZM320.675 35H318.715L314.277 28.294V35H312.317V25.214H314.277L318.715 31.934V25.214H320.675V35ZM324.572 26.81V29.26H327.862V30.814H324.572V33.404H328.282V35H322.612V25.214H328.282V26.81H324.572ZM337.833 25.228L334.529 31.598V35H332.569V31.598L329.251 25.228H331.463L333.563 29.694L335.649 25.228H337.833Z" fill="white"/>
</g>
<path d="M19.1053 75.9434L22.7773 67.5434H25.5613L29.2333 75.9434H26.3053L23.5933 68.8874H24.6973L21.9853 75.9434H19.1053ZM21.2893 74.4794L22.0093 72.4394H25.8733L26.5933 74.4794H21.2893ZM31.4853 75.9434V67.5434H34.3173V75.9434H31.4853ZM41.8846 76.1354C41.2046 76.1354 40.5726 76.0274 39.9886 75.8114C39.4126 75.5954 38.9126 75.2914 38.4886 74.8994C38.0646 74.4994 37.7326 74.0314 37.4926 73.4954C37.2606 72.9594 37.1446 72.3754 37.1446 71.7434C37.1446 71.1034 37.2606 70.5194 37.4926 69.9914C37.7326 69.4554 38.0646 68.9914 38.4886 68.5994C38.9126 68.1994 39.4126 67.8914 39.9886 67.6754C40.5726 67.4594 41.2046 67.3514 41.8846 67.3514C42.5726 67.3514 43.2046 67.4594 43.7806 67.6754C44.3566 67.8914 44.8566 68.1994 45.2806 68.5994C45.7046 68.9914 46.0326 69.4554 46.2646 69.9914C46.5046 70.5194 46.6246 71.1034 46.6246 71.7434C46.6246 72.3754 46.5046 72.9594 46.2646 73.4954C46.0326 74.0314 45.7046 74.4994 45.2806 74.8994C44.8566 75.2914 44.3566 75.5954 43.7806 75.8114C43.2046 76.0274 42.5726 76.1354 41.8846 76.1354ZM41.8846 73.8434C42.1486 73.8434 42.3926 73.7954 42.6166 73.6994C42.8486 73.6034 43.0486 73.4674 43.2166 73.2914C43.3926 73.1074 43.5286 72.8874 43.6246 72.6314C43.7206 72.3674 43.7686 72.0714 43.7686 71.7434C43.7686 71.4154 43.7206 71.1234 43.6246 70.8674C43.5286 70.6034 43.3926 70.3834 43.2166 70.2074C43.0486 70.0234 42.8486 69.8834 42.6166 69.7874C42.3926 69.6914 42.1486 69.6434 41.8846 69.6434C41.6206 69.6434 41.3726 69.6914 41.1406 69.7874C40.9166 69.8834 40.7166 70.0234 40.5406 70.2074C40.3726 70.3834 40.2406 70.6034 40.1446 70.8674C40.0486 71.1234 40.0006 71.4154 40.0006 71.7434C40.0006 72.0714 40.0486 72.3674 40.1446 72.6314C40.2406 72.8874 40.3726 73.1074 40.5406 73.2914C40.7166 73.4674 40.9166 73.6034 41.1406 73.6994C41.3726 73.7954 41.6206 73.8434 41.8846 73.8434ZM49.4525 75.9434V67.5434H52.2845V75.9434H49.4525ZM57.2718 75.9434V69.7394H54.8118V67.5434H62.5638V69.7394H60.1038V75.9434H57.2718ZM68.2313 76.1354C67.5273 76.1354 66.8473 76.0554 66.1913 75.8954C65.5353 75.7354 64.9953 75.5274 64.5713 75.2714L65.4833 73.2074C65.8833 73.4394 66.3273 73.6274 66.8153 73.7714C67.3113 73.9074 67.7913 73.9754 68.2553 73.9754C68.5273 73.9754 68.7393 73.9594 68.8913 73.9274C69.0513 73.8874 69.1673 73.8354 69.2393 73.7714C69.3113 73.6994 69.3473 73.6154 69.3473 73.5194C69.3473 73.3674 69.2633 73.2474 69.0953 73.1594C68.9273 73.0714 68.7033 72.9994 68.4233 72.9434C68.1513 72.8794 67.8513 72.8154 67.5233 72.7514C67.1953 72.6794 66.8633 72.5874 66.5273 72.4754C66.1993 72.3634 65.8953 72.2154 65.6153 72.0314C65.3433 71.8474 65.1233 71.6074 64.9553 71.3114C64.7873 71.0074 64.7033 70.6314 64.7033 70.1834C64.7033 69.6634 64.8473 69.1914 65.1353 68.7674C65.4313 68.3354 65.8673 67.9914 66.4433 67.7354C67.0273 67.4794 67.7513 67.3514 68.6153 67.3514C69.1833 67.3514 69.7433 67.4114 70.2953 67.5314C70.8473 67.6514 71.3433 67.8354 71.7833 68.0834L70.9313 70.1354C70.5153 69.9274 70.1113 69.7714 69.7193 69.6674C69.3353 69.5634 68.9593 69.5114 68.5913 69.5114C68.3193 69.5114 68.1033 69.5354 67.9433 69.5834C67.7833 69.6314 67.6673 69.6954 67.5953 69.7754C67.5313 69.8554 67.4993 69.9434 67.4993 70.0394C67.4993 70.1834 67.5833 70.2994 67.7513 70.3874C67.9193 70.4674 68.1393 70.5354 68.4113 70.5914C68.6913 70.6474 68.9953 70.7074 69.3233 70.7714C69.6593 70.8354 69.9913 70.9234 70.3193 71.0354C70.6473 71.1474 70.9473 71.2954 71.2193 71.4794C71.4993 71.6634 71.7233 71.9034 71.8913 72.1994C72.0593 72.4954 72.1433 72.8634 72.1433 73.3034C72.1433 73.8154 71.9953 74.2874 71.6993 74.7194C71.4113 75.1434 70.9793 75.4874 70.4033 75.7514C69.8273 76.0074 69.1033 76.1354 68.2313 76.1354Z" fill="#F6F9FF"/>
<path d="M20.25 52.7719C24.5447 57.6327 33.0411 40.3553 35.6199 31.0781C40.8569 32.7246 42.2492 37.5201 42.7137 39.5199C41.7923 43.7654 37.2181 54.1671 32.6842 57.7007C28.1503 61.2343 23.4293 59.839 20.25 52.7719Z" fill="#F6F9FF"/>
<path d="M46.8993 37.5457C41.3336 27.0539 37.5302 25.1254 36.3242 25.4727C36.7853 22.6042 42.3964 16.1044 46.8993 20.4612C54.4142 28.3449 59.4303 38.8516 64.5543 46.4117C68.6535 52.4597 71.8523 51.7642 72.9393 50.6605C72.3146 53.1569 67.41 60.743 62.5947 59.4037C57.7848 58.0658 53.8653 50.6772 46.923 37.5902L46.8993 37.5457Z" fill="#F6F9FF"/>
<ellipse cx="45.8139" cy="52.9102" rx="5.353" ry="5.34574" fill="#F6F9FF"/>
<defs>
<clipPath id="clip0_2530_14198">
<rect width="358" height="216.837" rx="8" fill="white"/>
</clipPath>
</defs>
</svg>
