<svg width="24" height="24" viewBox="0 0 24 24" fill="none" xmlns="http://www.w3.org/2000/svg">
<path d="M20.3333 4.22266H3.66667C2.74653 4.22266 2 4.96918 2 5.88932V18.1115C2 19.0317 2.74653 19.7782 3.66667 19.7782H20.3333C21.2535 19.7782 22 19.0317 22 18.1115V5.88932C22 4.96918 21.2535 4.22266 20.3333 4.22266ZM8.11111 7.55599C9.33681 7.55599 10.3333 8.55252 10.3333 9.77821C10.3333 11.0039 9.33681 12.0004 8.11111 12.0004C6.88542 12.0004 5.88889 11.0039 5.88889 9.77821C5.88889 8.55252 6.88542 7.55599 8.11111 7.55599ZM12 15.7782C12 16.1463 11.6528 16.4449 11.2222 16.4449H5C4.56944 16.4449 4.22222 16.1463 4.22222 15.7782V15.1115C4.22222 14.0074 5.26736 13.1115 6.55556 13.1115H6.72917C7.15625 13.2886 7.62153 13.3893 8.11111 13.3893C8.60069 13.3893 9.06944 13.2886 9.49306 13.1115H9.66667C10.9549 13.1115 12 14.0074 12 15.1115V15.7782ZM19.7778 13.9449C19.7778 14.0977 19.6528 14.2227 19.5 14.2227H14.5C14.3472 14.2227 14.2222 14.0977 14.2222 13.9449V13.3893C14.2222 13.2365 14.3472 13.1115 14.5 13.1115H19.5C19.6528 13.1115 19.7778 13.2365 19.7778 13.3893V13.9449ZM19.7778 11.7227C19.7778 11.8754 19.6528 12.0004 19.5 12.0004H14.5C14.3472 12.0004 14.2222 11.8754 14.2222 11.7227V11.1671C14.2222 11.0143 14.3472 10.8893 14.5 10.8893H19.5C19.6528 10.8893 19.7778 11.0143 19.7778 11.1671V11.7227ZM19.7778 9.50043C19.7778 9.65321 19.6528 9.77821 19.5 9.77821H14.5C14.3472 9.77821 14.2222 9.65321 14.2222 9.50043V8.94488C14.2222 8.7921 14.3472 8.6671 14.5 8.6671H19.5C19.6528 8.6671 19.7778 8.7921 19.7778 8.94488V9.50043Z" fill="#F6F9FF"/>
</svg>
